<?xml version="1.0" encoding="UTF-8" standalone="no"?>
<!DOCTYPE svg PUBLIC "-//W3C//DTD SVG 1.1//EN" "http://www.w3.org/Graphics/SVG/1.1/DTD/svg11.dtd">
<svg xmlns="http://www.w3.org/2000/svg" version="1.1" viewBox="0.00 0.00 844.00 186.00">
<g stroke-width="2.00" fill="none" stroke-linecap="butt">
<path stroke="#a1a1a1" vector-effect="non-scaling-stroke" d="
  M 274.62 33.26
  A 0.49 0.49 0.0 0 0 274.13 33.75
  L 274.09 91.00
  A 0.49 0.49 0.0 0 0 274.58 91.49
  L 546.01 91.49
  A 0.49 0.49 0.0 0 0 546.50 91.00
  L 546.50 33.74
  A 0.49 0.49 0.0 0 0 546.01 33.25
  L 274.62 33.26"
/>
<path stroke="#818181" vector-effect="non-scaling-stroke" d="
  M 254.62 114.44
  A 1.89 1.89 0.0 0 0 252.73 112.55
  A 1.89 1.89 0.0 0 0 250.84 114.44
  A 1.89 1.89 0.0 0 0 252.73 116.33
  A 1.89 1.89 0.0 0 0 254.62 114.44"
/>
<path stroke="#818181" vector-effect="non-scaling-stroke" d="
  M 273.8534 114.1895
  A 2.05 1.78 -7.3 0 0 271.5938 112.6844
  A 2.05 1.78 -7.3 0 0 269.7866 114.7105
  A 2.05 1.78 -7.3 0 0 272.0462 116.2156
  A 2.05 1.78 -7.3 0 0 273.8534 114.1895"
/>
<path stroke="#818181" vector-effect="non-scaling-stroke" d="
  M 466.0580 114.1505
  A 2.05 1.77 -8.4 0 0 463.7714 112.6990
  A 2.05 1.77 -8.4 0 0 462.0020 114.7495
  A 2.05 1.77 -8.4 0 0 464.2886 116.2010
  A 2.05 1.77 -8.4 0 0 466.0580 114.1505"
/>
<path stroke="#818181" vector-effect="non-scaling-stroke" d="
  M 619.84 114.44
  A 1.90 1.90 0.0 0 0 617.94 112.54
  A 1.90 1.90 0.0 0 0 616.04 114.44
  A 1.90 1.90 0.0 0 0 617.94 116.34
  A 1.90 1.90 0.0 0 0 619.84 114.44"
/>
<path stroke="#818181" vector-effect="non-scaling-stroke" d="
  M 230.18 128.04
  L 234.87 127.98
  Q 235.49 127.98 235.85 128.49
  C 236.70 129.69 237.11 131.71 239.21 130.86
  A 1.18 1.18 0.0 0 0 239.89 129.42
  Q 237.67 122.23 235.34 114.79
  Q 234.77 112.97 232.99 113.00
  Q 230.59 113.05 230.01 114.84
  Q 227.81 121.67 225.76 128.17
  Q 225.43 129.21 225.59 130.21
  A 1.18 1.18 0.0 0 0 227.56 130.88
  Q 228.69 129.82 229.34 128.57
  A 0.96 0.96 0.0 0 1 230.18 128.04"
/>
<path stroke="#818181" vector-effect="non-scaling-stroke" d="
  M 283.59 118.29
  C 274.29 114.06 272.56 132.96 283.14 130.44
  C 284.28 130.17 285.10 130.46 286.16 130.82
  A 1.16 1.16 0.0 0 0 287.70 129.72
  L 287.58 114.21
  Q 287.57 112.84 286.21 113.06
  L 285.40 113.18
  Q 284.19 113.37 284.21 114.60
  L 284.28 117.83
  Q 284.30 118.62 283.59 118.29"
/>
<path stroke="#818181" vector-effect="non-scaling-stroke" d="
  M 638.8064 114.4560
  A 1.38 1.38 0.0 0 0 637.4312 113.0712
  L 636.7712 113.0689
  A 1.38 1.38 0.0 0 0 635.3864 114.4441
  L 635.3336 129.5640
  A 1.38 1.38 0.0 0 0 636.7088 130.9488
  L 637.3688 130.9511
  A 1.38 1.38 0.0 0 0 638.7536 129.5759
  L 638.8064 114.4560"
/>
<path stroke="#818181" vector-effect="non-scaling-stroke" d="
  M 310.49 118.29
  C 300.85 114.01 300.19 133.72 310.11 130.44
  Q 311.74 129.90 313.05 130.77
  A 0.97 0.97 0.0 0 0 314.55 129.96
  L 314.59 114.25
  Q 314.59 113.15 313.50 113.18
  L 311.98 113.23
  Q 311.20 113.25 311.20 114.02
  L 311.23 117.81
  Q 311.23 118.62 310.49 118.29"
/>
<path stroke="#818181" vector-effect="non-scaling-stroke" d="
  M 357.70 123.31
  Q 354.93 119.59 352.55 115.00
  C 351.87 113.69 350.70 112.93 349.18 113.17
  Q 348.06 113.34 348.06 114.48
  L 348.06 129.40
  A 1.60 1.59 -2.0 0 0 349.77 130.99
  L 350.07 130.97
  A 1.54 1.53 -2.2 0 0 351.50 129.43
  L 351.48 121.45
  Q 351.47 119.39 352.50 121.18
  Q 354.93 125.38 357.35 129.30
  Q 358.78 131.62 361.08 130.45
  Q 361.51 130.23 361.51 129.75
  L 361.50 113.97
  Q 361.50 113.19 360.72 113.21
  L 358.83 113.26
  Q 358.07 113.27 358.04 114.03
  Q 357.78 118.85 358.23 123.10
  Q 358.34 124.17 357.70 123.31"
/>
<path stroke="#818181" vector-effect="non-scaling-stroke" d="
  M 368.46 120.27
  A 0.63 0.63 0.0 0 1 367.85 119.63
  L 367.89 116.85
  A 0.63 0.63 0.0 0 1 368.53 116.23
  L 375.73 116.35
  A 0.63 0.63 0.0 0 0 376.37 115.75
  L 376.46 113.95
  A 0.63 0.63 0.0 0 0 375.83 113.29
  L 365.01 113.23
  A 0.63 0.63 0.0 0 0 364.38 113.86
  L 364.37 130.10
  A 0.63 0.63 0.0 0 0 365.01 130.74
  L 375.81 130.65
  A 0.63 0.63 0.0 0 0 376.43 130.05
  L 376.50 128.18
  A 0.63 0.63 0.0 0 0 375.84 127.52
  L 368.55 127.78
  A 0.63 0.63 0.0 0 1 367.90 127.18
  L 367.77 124.04
  A 0.63 0.63 0.0 0 1 368.37 123.39
  L 373.23 123.20
  A 0.63 0.63 0.0 0 0 373.84 122.53
  L 373.73 120.98
  A 0.63 0.63 0.0 0 0 373.12 120.39
  L 368.46 120.27"
/>
<path stroke="#818181" vector-effect="non-scaling-stroke" d="
  M 391.3949 119.1913
  A 5.99 5.99 0.0 0 0 385.4154 113.1909
  L 384.4154 113.1891
  A 5.99 5.99 0.0 0 0 378.4150 119.1687
  L 378.4051 124.8487
  A 5.99 5.99 0.0 0 0 384.3846 130.8491
  L 385.3846 130.8509
  A 5.99 5.99 0.0 0 0 391.3850 124.8713
  L 391.3949 119.1913"
/>
<path stroke="#818181" vector-effect="non-scaling-stroke" d="
  M 420.28 127.99
  L 424.89 128.02
  A 1.28 1.25 -13.5 0 1 425.99 128.68
  Q 426.69 130.01 427.83 130.89
  A 1.26 1.25 -46.9 0 0 429.43 130.83
  Q 430.19 130.16 429.92 129.30
  Q 427.43 121.35 425.09 113.79
  Q 424.92 113.26 424.36 113.25
  L 421.36 113.24
  Q 420.56 113.24 420.32 113.99
  L 415.46 129.41
  A 1.25 1.25 0.0 0 0 416.94 131.01
  Q 418.90 130.55 419.44 128.62
  Q 419.61 127.99 420.28 127.99"
/>
<path stroke="#818181" vector-effect="non-scaling-stroke" d="
  M 459.6933 114.3232
  A 1.14 1.14 0.0 0 0 458.5553 113.1812
  L 457.2353 113.1789
  A 1.14 1.14 0.0 0 0 456.0933 114.3169
  L 456.0667 129.5968
  A 1.14 1.14 0.0 0 0 457.2047 130.7388
  L 458.5247 130.7411
  A 1.14 1.14 0.0 0 0 459.6667 129.6031
  L 459.6933 114.3232"
/>
<path stroke="#818181" vector-effect="non-scaling-stroke" d="
  M 503.8851 114.6468
  A 0.72 0.72 0.0 0 0 503.2416 113.8577
  L 497.1131 113.2352
  A 0.72 0.72 0.0 0 0 496.3240 113.8788
  L 496.2149 114.9532
  A 0.72 0.72 0.0 0 0 496.8584 115.7423
  L 502.9869 116.3648
  A 0.72 0.72 0.0 0 0 503.7760 115.7212
  L 503.8851 114.6468"
/>
<path stroke="#818181" vector-effect="non-scaling-stroke" d="
  M 530.86 123.76
  C 535.47 124.42 540.39 122.77 538.86 116.90
  C 537.62 112.15 530.73 113.17 527.00 113.28
  A 0.50 0.49 -0.6 0 0 526.51 113.77
  L 526.51 129.05
  Q 526.51 130.82 528.25 131.11
  Q 529.13 131.25 529.95 129.04
  A 0.35 0.31 -41.4 0 0 529.96 128.96
  L 530.01 124.49
  Q 530.02 123.64 530.86 123.76"
/>
<path stroke="#818181" vector-effect="non-scaling-stroke" d="
  M 245.76 116.71
  Q 245.81 116.49 245.91 116.28
  Q 246.19 115.69 245.89 115.20
  Q 245.24 114.15 243.74 114.49
  Q 242.65 114.73 242.70 115.84
  Q 242.75 117.24 241.58 117.83
  Q 241.21 118.02 241.03 118.39
  Q 240.22 120.02 241.99 120.76
  Q 242.48 120.96 242.49 121.48
  L 242.68 128.67
  A 1.24 1.20 20.4 0 0 243.11 129.57
  Q 245.00 131.17 247.44 130.84
  A 1.39 1.38 -31.2 0 0 248.06 128.34
  L 246.67 127.35
  A 1.49 1.48 16.7 0 1 246.03 126.17
  L 245.93 121.60
  Q 245.92 121.05 246.45 120.88
  L 248.47 120.24
  A 1.02 1.02 0.0 0 0 248.69 118.39
  Q 247.58 117.71 246.31 117.51
  Q 245.60 117.40 245.76 116.71"
/>
<path stroke="#818181" vector-effect="non-scaling-stroke" d="
  M 254.5052 119.2122
  A 1.66 1.66 0.0 0 0 252.8568 117.5407
  L 252.7168 117.5397
  A 1.66 1.66 0.0 0 0 251.0453 119.1880
  L 250.9748 129.2878
  A 1.66 1.66 0.0 0 0 252.6232 130.9593
  L 252.7632 130.9603
  A 1.66 1.66 0.0 0 0 254.4347 129.3120
  L 254.5052 119.2122"
/>
<path stroke="#818181" vector-effect="non-scaling-stroke" d="
  M 273.6568 119.0695
  A 1.48 1.48 0.0 0 0 272.1846 117.5818
  L 271.5446 117.5784
  A 1.48 1.48 0.0 0 0 270.0569 119.0506
  L 270.0032 129.3105
  A 1.48 1.48 0.0 0 0 271.4754 130.7982
  L 272.1154 130.8016
  A 1.48 1.48 0.0 0 0 273.6031 129.3294
  L 273.6568 119.0695"
/>
<path stroke="#818181" vector-effect="non-scaling-stroke" d="
  M 322.00 125.31
  L 327.35 125.35
  A 1.29 1.29 0.0 0 0 328.65 124.00
  C 328.54 121.53 327.48 119.19 325.14 118.13
  C 321.99 116.71 318.09 118.40 317.26 121.84
  Q 316.46 125.15 317.76 127.78
  C 319.55 131.43 324.44 131.74 327.58 129.36
  Q 328.08 128.98 327.77 128.44
  L 327.00 127.05
  Q 326.61 126.34 325.98 126.85
  Q 323.36 128.98 321.31 127.02
  Q 319.49 125.29 322.00 125.31"
/>
<path stroke="#818181" vector-effect="non-scaling-stroke" d="
  M 405.88 121.68
  A 1.05 1.05 0.0 0 1 405.09 120.88
  L 404.56 118.45
  A 1.05 1.05 0.0 0 0 402.51 118.44
  L 401.96 120.86
  A 1.05 1.05 0.0 0 1 401.16 121.65
  L 398.73 122.18
  A 1.05 1.05 0.0 0 0 398.72 124.23
  L 401.14 124.78
  A 1.05 1.05 0.0 0 1 401.93 125.58
  L 402.46 128.01
  A 1.05 1.05 0.0 0 0 404.51 128.02
  L 405.06 125.60
  A 1.05 1.05 0.0 0 1 405.86 124.81
  L 408.29 124.28
  A 1.05 1.05 0.0 0 0 408.30 122.23
  L 405.88 121.68"
/>
<path stroke="#818181" vector-effect="non-scaling-stroke" d="
  M 465.8470 119.0494
  A 1.38 1.38 0.0 0 0 464.4743 117.6622
  L 463.6543 117.6579
  A 1.38 1.38 0.0 0 0 462.2671 119.0307
  L 462.2130 129.3706
  A 1.38 1.38 0.0 0 0 463.5857 130.7578
  L 464.4057 130.7621
  A 1.38 1.38 0.0 0 0 465.7929 129.3893
  L 465.8470 119.0494"
/>
<path stroke="#818181" vector-effect="non-scaling-stroke" d="
  M 619.6811 119.1670
  A 1.68 1.68 0.0 0 0 617.9982 117.4899
  L 617.8582 117.4901
  A 1.68 1.68 0.0 0 0 616.1812 119.1731
  L 616.1989 129.3130
  A 1.68 1.68 0.0 0 0 617.8818 130.9901
  L 618.0218 130.9899
  A 1.68 1.68 0.0 0 0 619.6988 129.3069
  L 619.6811 119.1670"
/>
<path stroke="#818181" vector-effect="non-scaling-stroke" d="
  M 262.22 124.40
  Q 260.88 121.79 260.35 118.66
  A 1.13 1.12 84.9 0 0 259.23 117.72
  L 257.47 117.75
  Q 256.37 117.76 256.68 118.81
  Q 258.12 123.65 259.93 129.17
  C 260.68 131.46 264.05 131.41 264.71 129.17
  Q 266.29 123.83 267.85 119.45
  Q 268.55 117.48 266.47 117.67
  L 265.98 117.71
  A 2.53 2.52 2.4 0 0 263.73 119.77
  L 262.91 124.30
  Q 262.72 125.37 262.22 124.40"
/>
<path stroke="#818181" vector-effect="non-scaling-stroke" d="
  M 296.59 123.11
  Q 295.22 123.25 293.76 123.28
  C 287.48 123.37 288.56 132.81 295.82 130.52
  Q 297.57 129.97 299.16 130.66
  A 1.31 1.30 -80.8 0 0 300.97 129.35
  Q 300.73 126.51 300.87 123.26
  C 301.13 117.08 293.54 116.04 290.27 119.99
  A 1.13 1.13 0.0 0 0 290.23 121.40
  Q 291.00 122.44 292.19 121.97
  Q 293.65 121.40 294.98 120.79
  A 1.45 1.44 -33.4 0 1 296.66 121.13
  Q 297.02 121.52 297.23 122.04
  Q 297.63 123.01 296.59 123.11"
/>
<path stroke="#818181" vector-effect="non-scaling-stroke" d="
  M 334.43 120.56
  Q 335.32 120.27 336.15 120.72
  L 338.90 122.23
  A 1.21 1.21 0.0 0 0 340.67 120.95
  Q 340.49 119.92 339.63 119.24
  Q 336.12 116.49 332.20 118.57
  C 329.40 120.06 329.68 123.53 332.45 124.74
  Q 334.74 125.74 337.08 126.62
  A 0.72 0.72 0.0 0 1 337.09 127.97
  C 334.24 129.10 333.52 126.05 330.91 126.62
  A 1.20 1.20 0.0 0 0 330.34 128.66
  Q 333.55 131.70 337.68 130.61
  Q 341.58 129.59 340.73 125.96
  C 340.21 123.74 335.65 122.79 333.79 122.02
  Q 332.95 121.67 333.61 121.04
  Q 333.96 120.71 334.43 120.56"
/>
<path stroke="#818181" vector-effect="non-scaling-stroke" d="
  M 435.67 123.85
  Q 434.81 121.56 434.28 119.01
  Q 434.03 117.75 432.74 117.74
  L 431.51 117.72
  Q 430.12 117.71 430.53 119.04
  Q 431.95 123.64 433.59 128.83
  C 434.38 131.31 437.82 131.70 438.59 129.08
  Q 440.14 123.81 441.65 119.22
  Q 442.18 117.62 440.50 117.71
  L 439.63 117.75
  Q 438.06 117.83 437.73 119.37
  L 436.78 123.77
  Q 436.36 125.71 435.67 123.85"
/>
<path stroke="#818181" vector-effect="non-scaling-stroke" d="
  M 449.50 123.06
  C 446.57 123.06 442.63 123.24 442.46 127.10
  C 442.31 130.39 445.84 131.32 448.39 130.64
  Q 450.44 130.10 452.37 130.71
  A 1.17 1.16 6.3 0 0 453.89 129.50
  C 453.61 126.53 454.61 121.67 452.54 119.43
  C 450.15 116.87 445.11 117.03 443.15 120.25
  A 1.10 1.10 0.0 0 0 444.02 121.92
  Q 445.82 122.03 447.37 121.02
  C 448.52 120.26 449.83 120.86 450.17 122.19
  Q 450.38 123.06 449.50 123.06"
/>
<path stroke="#818181" vector-effect="non-scaling-stroke" d="
  M 474.66 123.14
  C 471.60 123.22 467.21 123.37 467.79 127.83
  C 468.17 130.72 471.89 131.30 474.09 130.46
  Q 475.47 129.94 476.79 130.66
  A 1.55 1.55 0.0 0 0 479.08 129.24
  Q 479.00 126.51 479.07 123.79
  C 479.17 120.28 477.82 118.01 474.16 117.69
  Q 470.43 117.37 468.48 120.23
  A 1.14 1.14 0.0 0 0 469.37 122.01
  Q 471.14 122.09 472.72 121.06
  C 473.90 120.29 475.29 120.66 475.45 122.24
  Q 475.55 123.12 474.66 123.14"
/>
<path stroke="#818181" vector-effect="non-scaling-stroke" d="
  M 486.74 132.28
  Q 486.41 132.53 486.01 132.51
  C 477.16 132.19 468.72 132.43 460.30 132.42
  Q 342.80 132.33 225.54 132.43
  Q 224.69 132.43 224.50 133.26
  L 224.39 133.72
  A 0.63 0.63 0.0 0 0 225.00 134.49
  Q 353.90 134.48 483.03 134.49
  C 484.90 134.49 486.38 135.73 488.17 135.06
  Q 489.69 134.48 491.28 134.48
  Q 563.50 134.50 639.32 134.47
  Q 640.16 134.47 640.25 133.64
  Q 640.27 133.48 640.23 133.33
  Q 639.97 132.42 639.02 132.42
  Q 560.67 132.41 490.18 132.38
  Q 489.17 132.38 488.96 131.45
  A 1.10 1.09 -15.8 0 1 489.67 130.18
  Q 491.75 129.47 492.35 127.69
  Q 492.56 127.06 492.09 126.59
  Q 491.50 125.99 490.69 125.83
  Q 490.08 125.71 489.62 126.13
  L 487.98 127.62
  A 1.52 1.52 0.0 0 1 485.73 127.40
  Q 484.16 125.26 484.96 122.36
  C 485.30 121.09 486.65 119.97 487.91 120.85
  C 489.15 121.73 490.10 123.93 492.03 122.39
  Q 492.87 121.72 492.33 120.79
  C 489.65 116.13 482.45 116.77 481.38 122.26
  C 480.35 127.55 482.44 129.27 486.67 131.50
  A 0.47 0.47 0.0 0 1 486.74 132.28"
/>
<path stroke="#818181" vector-effect="non-scaling-stroke" d="
  M 501.15 122.99
  Q 499.74 123.25 498.09 123.30
  C 491.90 123.49 493.33 132.71 500.06 130.59
  Q 502.03 129.97 503.84 130.71
  A 1.14 1.13 11.1 0 0 505.41 129.66
  Q 505.39 126.50 505.42 123.23
  C 505.48 118.07 500.44 116.52 496.45 118.57
  Q 495.08 119.27 494.64 120.63
  A 1.15 1.15 0.0 0 0 496.14 122.07
  L 499.60 120.77
  A 1.47 1.44 -44.0 0 1 500.63 120.78
  Q 501.45 121.10 501.77 121.81
  Q 502.21 122.80 501.15 122.99"
/>
<path stroke="#818181" vector-effect="non-scaling-stroke" d="
  M 513.3067 130.9498
  A 6.69 5.99 89.6 0 0 519.2499 124.2182
  A 6.69 5.99 89.6 0 0 513.2133 117.5702
  A 6.69 5.99 89.6 0 0 507.2701 124.3018
  A 6.69 5.99 89.6 0 0 513.3067 130.9498"
/>
<path stroke="#818181" vector-effect="non-scaling-stroke" d="
  M 545.47 121.89
  L 547.58 121.30
  A 1.57 1.57 0.0 0 0 548.72 119.93
  L 548.83 118.76
  Q 548.97 117.22 547.52 117.75
  Q 546.00 118.30 544.59 118.28
  A 2.57 2.48 -29.6 0 1 543.45 117.99
  Q 542.54 117.50 541.68 117.86
  Q 541.14 118.08 541.13 118.67
  L 541.09 129.40
  A 1.46 1.46 0.0 0 0 542.52 130.87
  L 542.84 130.88
  Q 544.59 130.92 544.62 129.16
  L 544.73 122.85
  A 1.02 1.01 -7.8 0 1 545.47 121.89"
/>
<path stroke="#818181" vector-effect="non-scaling-stroke" d="
  M 554.28 125.38
  L 560.03 125.26
  Q 561.99 125.22 561.60 123.30
  Q 561.28 121.69 560.53 120.36
  Q 559.23 118.05 556.59 117.73
  C 551.16 117.09 548.96 122.18 550.38 126.77
  C 551.73 131.18 556.97 132.00 560.38 129.49
  Q 561.07 128.98 560.73 128.20
  L 560.31 127.24
  Q 559.88 126.24 559.00 126.87
  C 557.19 128.18 554.99 128.81 553.73 126.28
  A 0.63 0.62 -13.8 0 1 554.28 125.38"
/>
<path stroke="#818181" vector-effect="non-scaling-stroke" d="
  M 569.58 128.14
  Q 568.42 128.52 567.39 127.86
  L 565.39 126.58
  A 1.39 1.39 0.0 0 0 563.26 127.89
  Q 563.36 128.86 564.24 129.47
  Q 567.90 132.03 572.09 130.06
  C 575.11 128.64 574.09 124.29 571.03 123.58
  Q 568.74 123.06 566.86 121.93
  Q 566.20 121.54 566.72 120.97
  Q 567.11 120.55 567.79 120.50
  Q 568.68 120.42 569.46 120.86
  L 571.93 122.24
  A 1.17 1.17 0.0 0 0 573.66 121.05
  C 572.88 115.66 560.87 117.23 563.64 123.02
  C 564.65 125.13 568.08 125.68 570.07 126.67
  Q 570.94 127.11 570.22 127.77
  Q 569.94 128.02 569.58 128.14"
/>
<path stroke="#818181" vector-effect="non-scaling-stroke" d="
  M 580.19 125.32
  L 586.30 125.26
  A 1.10 1.09 87.1 0 0 587.37 124.07
  C 586.53 114.36 574.03 116.29 575.77 125.61
  C 576.73 130.80 582.01 132.38 586.09 129.51
  Q 586.81 129.00 586.42 128.22
  L 585.96 127.28
  A 0.87 0.87 0.0 0 0 584.72 126.92
  C 582.98 127.96 580.85 128.81 579.50 126.57
  A 0.82 0.82 0.0 0 1 580.19 125.32"
/>
<path stroke="#818181" vector-effect="non-scaling-stroke" d="
  M 596.29 121.37
  C 597.33 122.89 597.03 127.31 596.96 129.21
  Q 596.90 130.85 598.54 130.80
  L 598.98 130.79
  Q 600.25 130.75 600.32 129.48
  Q 600.50 126.03 600.41 122.38
  C 600.30 118.21 597.13 117.03 593.66 118.13
  Q 592.72 118.42 591.81 118.06
  Q 591.08 117.77 590.32 117.73
  A 0.93 0.93 0.0 0 0 589.34 118.66
  L 589.39 129.39
  A 1.42 1.42 0.0 0 0 590.77 130.80
  L 591.22 130.81
  Q 592.94 130.86 592.90 129.13
  Q 592.82 126.00 592.95 122.91
  Q 593.01 121.60 594.05 120.92
  A 1.63 1.63 0.0 0 1 596.29 121.37"
/>
<path stroke="#818181" vector-effect="non-scaling-stroke" d="
  M 606.51 121.88
  C 607.14 120.46 608.98 120.30 609.92 121.41
  Q 610.86 122.51 612.30 122.72
  Q 612.89 122.80 613.31 122.54
  Q 614.42 121.83 613.72 120.72
  Q 611.58 117.31 607.57 117.76
  C 599.08 118.72 601.68 134.11 610.90 130.33
  Q 612.87 129.52 613.60 128.07
  Q 614.32 126.66 612.76 126.02
  A 2.08 2.06 -54.9 0 0 610.56 126.41
  L 609.31 127.55
  A 1.65 1.65 0.0 0 1 606.77 127.15
  Q 605.31 124.58 606.51 121.88"
/>
<path stroke="#818181" vector-effect="non-scaling-stroke" d="
  M 628.52 123.15
  C 626.45 123.33 623.94 123.00 622.53 124.73
  Q 621.40 126.11 621.81 127.89
  C 622.61 131.33 626.30 131.24 629.03 130.17
  A 1.30 1.28 55.8 0 1 630.39 130.44
  Q 631.25 131.27 632.23 130.78
  Q 632.76 130.52 632.79 129.92
  Q 632.99 126.52 632.96 123.04
  Q 632.92 118.32 628.37 117.80
  Q 623.91 117.29 622.38 120.37
  Q 621.60 121.94 623.35 122.02
  Q 624.89 122.08 626.22 121.14
  C 627.29 120.38 628.90 120.52 629.32 121.99
  Q 629.61 123.05 628.52 123.15"
/>
<path stroke="#a1a1a1" vector-effect="non-scaling-stroke" d="
  M 424.22 54.17
  A 1.90 1.90 0.0 0 0 422.32 52.27
  A 1.90 1.90 0.0 0 0 420.42 54.17
  A 1.90 1.90 0.0 0 0 422.32 56.07
  A 1.90 1.90 0.0 0 0 424.22 54.17"
/>
<path stroke="#a1a1a1" vector-effect="non-scaling-stroke" d="
  M 449.38 67.04
  A 2.00 1.98 11.2 0 1 448.33 65.49
  Q 448.00 62.36 448.17 58.59
  C 448.30 55.77 451.74 54.95 453.29 57.13
  Q 454.09 58.26 455.25 59.01
  A 1.31 1.30 -71.5 0 0 457.26 58.00
  C 457.68 52.01 446.22 50.79 444.96 57.07
  Q 444.16 61.06 444.89 65.90
  C 445.79 71.90 455.18 72.14 456.97 66.73
  Q 457.75 64.34 457.48 61.60
  Q 457.39 60.75 456.54 60.75
  L 451.93 60.75
  A 1.18 1.16 12.0 0 0 450.86 61.43
  Q 450.57 62.08 450.77 62.84
  A 1.02 1.01 -1.4 0 0 451.54 63.57
  L 453.07 63.89
  A 1.36 1.36 0.0 0 1 453.78 66.15
  Q 451.75 68.30 449.38 67.04"
/>
<path stroke="#a1a1a1" vector-effect="non-scaling-stroke" d="
  M 327.01 67.46
  L 331.26 67.52
  Q 332.06 67.53 332.39 68.26
  C 333.05 69.70 333.81 71.04 335.66 70.42
  A 1.09 1.08 72.4 0 0 336.36 69.06
  L 331.70 54.18
  Q 331.44 53.33 330.58 53.09
  Q 329.41 52.76 327.81 53.01
  A 1.47 1.45 4.1 0 0 326.64 54.01
  L 321.77 69.49
  Q 321.51 70.29 322.34 70.45
  C 324.68 70.90 325.10 70.09 325.91 68.18
  A 1.18 1.18 0.0 0 1 327.01 67.46"
/>
<path stroke="#a1a1a1" vector-effect="non-scaling-stroke" d="
  M 344.65 64.39
  A 0.42 0.41 -21.4 0 1 344.03 64.12
  Q 343.06 59.57 341.78 54.62
  A 2.15 2.11 81.7 0 0 339.65 53.00
  Q 339.50 53.00 339.35 52.98
  Q 337.43 52.74 338.01 54.58
  Q 340.33 62.06 342.46 69.29
  Q 342.64 69.92 343.24 70.18
  Q 344.50 70.75 345.90 70.29
  Q 346.50 70.10 346.69 69.49
  L 351.31 54.26
  Q 351.75 52.82 350.25 52.90
  L 349.39 52.95
  A 1.88 1.87 -84.7 0 0 347.68 54.38
  Q 346.61 58.81 345.05 63.87
  Q 344.95 64.21 344.65 64.39"
/>
<path stroke="#a1a1a1" vector-effect="non-scaling-stroke" d="
  M 386.92 61.26
  Q 386.65 65.22 386.81 69.28
  A 1.19 1.19 0.0 0 0 387.98 70.42
  L 389.04 70.44
  Q 390.29 70.46 390.29 69.21
  L 390.32 53.77
  Q 390.32 53.20 389.77 53.06
  C 386.44 52.24 385.02 55.63 383.77 57.96
  A 0.91 0.91 0.0 0 1 382.15 57.94
  C 380.94 55.58 379.59 52.14 376.24 53.09
  A 0.99 0.99 0.0 0 0 375.53 54.05
  L 375.60 69.21
  A 1.31 1.31 0.0 0 0 376.96 70.52
  L 377.77 70.49
  Q 379.22 70.43 379.19 68.98
  L 379.04 60.95
  Q 379.00 58.94 380.19 60.55
  Q 381.08 61.75 381.92 63.11
  A 1.22 1.21 -44.7 0 0 383.98 63.12
  Q 384.72 61.95 385.61 60.77
  Q 387.09 58.78 386.92 61.26"
/>
<path stroke="#a1a1a1" vector-effect="non-scaling-stroke" d="
  M 400.7485 53.2280
  A 2.17 1.22 -37.2 0 0 398.2824 53.5682
  A 2.17 1.22 -37.2 0 0 397.2915 55.8520
  A 2.17 1.22 -37.2 0 0 399.7576 55.5118
  A 2.17 1.22 -37.2 0 0 400.7485 53.2280"
/>
<path stroke="#a1a1a1" vector-effect="non-scaling-stroke" d="
  M 413.94 57.96
  C 403.72 54.55 403.96 72.21 412.43 70.35
  Q 414.46 69.90 416.46 70.39
  Q 417.88 70.73 417.88 69.27
  L 417.80 54.24
  Q 417.80 52.94 416.49 52.97
  L 415.72 52.99
  Q 414.22 53.03 414.33 54.53
  L 414.55 57.49
  A 0.46 0.46 0.0 0 1 413.94 57.96"
/>
<path stroke="#a1a1a1" vector-effect="non-scaling-stroke" d="
  M 499.1734 54.0432
  A 0.99 0.99 0.0 0 0 498.1851 53.0514
  L 496.5651 53.0486
  A 0.99 0.99 0.0 0 0 495.5734 54.0369
  L 495.5466 69.3768
  A 0.99 0.99 0.0 0 0 496.5349 70.3686
  L 498.1549 70.3714
  A 0.99 0.99 0.0 0 0 499.1466 69.3831
  L 499.1734 54.0432"
/>
<path stroke="#a1a1a1" vector-effect="non-scaling-stroke" d="
  M 464.24 65.12
  L 469.05 65.26
  Q 471.27 65.33 471.02 63.11
  Q 470.86 61.76 470.39 60.57
  A 4.88 4.87 -6.0 0 0 466.64 57.54
  C 460.86 56.60 458.54 61.65 459.94 66.34
  Q 461.69 72.16 469.13 69.93
  A 1.56 1.54 -84.6 0 0 470.05 69.16
  Q 470.34 68.58 470.29 67.99
  Q 470.12 66.13 468.42 66.89
  Q 465.18 68.35 463.56 66.67
  A 0.91 0.91 0.0 0 1 464.24 65.12"
/>
<path stroke="#a1a1a1" vector-effect="non-scaling-stroke" d="
  M 397.52 65.08
  L 402.51 65.26
  Q 405.31 65.36 404.39 62.71
  Q 404.10 61.88 403.75 60.88
  Q 402.83 58.21 400.06 57.63
  C 396.31 56.83 393.13 58.91 392.91 62.77
  C 392.68 66.98 394.06 70.56 399.06 70.57
  C 400.63 70.58 404.10 69.94 403.54 67.60
  A 1.04 1.04 0.0 0 0 402.33 66.82
  L 398.41 67.58
  A 1.01 1.00 -34.0 0 1 397.67 67.44
  Q 396.72 66.83 396.66 65.98
  Q 396.59 65.05 397.52 65.08"
/>
<path stroke="#a1a1a1" vector-effect="non-scaling-stroke" d="
  M 424.0284 58.7561
  A 1.22 1.22 0.0 0 0 422.8126 57.5318
  L 421.7926 57.5283
  A 1.22 1.22 0.0 0 0 420.5684 58.7440
  L 420.5316 69.2639
  A 1.22 1.22 0.0 0 0 421.7474 70.4882
  L 422.7674 70.4917
  A 1.22 1.22 0.0 0 0 423.9916 69.2760
  L 424.0284 58.7561"
/>
<path stroke="#a1a1a1" vector-effect="non-scaling-stroke" d="
  M 432.61 62.98
  C 429.27 63.03 425.54 62.90 426.34 67.82
  C 426.84 70.95 430.49 70.90 432.81 70.12
  Q 433.30 69.96 433.80 70.04
  L 436.52 70.49
  Q 437.26 70.61 437.29 69.86
  Q 437.47 66.33 437.38 62.23
  C 437.23 54.85 425.21 57.35 426.86 61.04
  A 1.09 1.08 -20.5 0 0 428.17 61.63
  L 431.28 60.67
  Q 432.48 60.30 433.45 61.10
  Q 433.74 61.34 433.77 61.67
  Q 433.90 62.96 432.61 62.98"
/>
<path stroke="#a1a1a1" vector-effect="non-scaling-stroke" d="
  M 477.58 61.50
  L 480.05 60.74
  A 1.66 1.66 0.0 0 0 481.22 59.21
  L 481.24 58.78
  Q 481.29 57.41 479.95 57.66
  Q 477.27 58.15 474.69 57.54
  A 1.23 1.23 0.0 0 0 473.18 58.75
  L 473.27 68.86
  Q 473.29 70.44 474.87 70.49
  L 475.19 70.50
  Q 476.68 70.54 476.71 69.06
  L 476.87 62.44
  Q 476.89 61.71 477.58 61.50"
/>
<path stroke="#a1a1a1" vector-effect="non-scaling-stroke" d="
  M 488.56 60.55
  Q 489.89 61.21 489.36 62.47
  A 0.94 0.94 0.0 0 1 488.33 63.03
  C 479.39 61.41 480.49 72.52 487.50 70.43
  Q 489.69 69.77 492.16 70.40
  A 0.87 0.87 0.0 0 0 493.25 69.53
  Q 493.14 66.52 493.29 63.08
  C 493.51 58.26 489.35 56.69 485.30 57.78
  Q 483.35 58.31 482.60 60.25
  A 1.08 1.07 3.8 0 0 483.86 61.68
  Q 485.60 61.27 487.24 60.52
  A 1.54 1.53 -43.4 0 1 488.56 60.55"
/>
<path stroke="#a1a1a1" vector-effect="non-scaling-stroke" d="
  M 368.6751 60.1530
  A 1.09 1.09 0.0 0 0 367.5737 59.0744
  L 358.8542 59.1657
  A 1.09 1.09 0.0 0 0 357.7757 60.2671
  L 357.7849 61.1470
  A 1.09 1.09 0.0 0 0 358.8863 62.2256
  L 367.6058 62.1343
  A 1.09 1.09 0.0 0 0 368.6843 61.0329
  L 368.6751 60.1530"
/>
<path stroke="#a1a1a1" vector-effect="non-scaling-stroke" d="
  M 368.7129 65.2075
  A 1.19 1.19 0.0 0 0 367.5355 64.0051
  L 358.9359 63.9151
  A 1.19 1.19 0.0 0 0 357.7335 65.0925
  L 357.7271 65.7125
  A 1.19 1.19 0.0 0 0 358.9045 66.9149
  L 367.5041 67.0049
  A 1.19 1.19 0.0 0 0 368.7065 65.8275
  L 368.7129 65.2075"
/>
<path stroke="#a1a1a1" vector-effect="non-scaling-stroke" d="
  M 326.94 64.26
  A 0.49 0.49 0.0 0 0 327.39 64.90
  L 330.72 64.97
  A 0.49 0.49 0.0 0 0 331.20 64.35
  L 329.66 58.71
  A 0.49 0.49 0.0 0 0 328.72 58.69
  L 326.94 64.26"
/>
<path stroke="#a1a1a1" vector-effect="non-scaling-stroke" d="
  M 412.1394 67.6799
  A 3.70 2.24 89.7 0 0 414.3600 63.9683
  A 3.70 2.24 89.7 0 0 412.1006 60.2801
  A 3.70 2.24 89.7 0 0 409.8800 63.9917
  A 3.70 2.24 89.7 0 0 412.1394 67.6799"
/>
<path stroke="#a1a1a1" vector-effect="non-scaling-stroke" d="
  M 467.2405 61.5666
  A 1.02 1.02 0.0 0 0 466.2240 60.5430
  L 464.5041 60.5370
  A 1.02 1.02 0.0 0 0 463.4805 61.5534
  L 463.4795 61.8334
  A 1.02 1.02 0.0 0 0 464.4960 62.8570
  L 466.2159 62.8630
  A 1.02 1.02 0.0 0 0 467.2395 61.8466
  L 467.2405 61.5666"
/>
<path stroke="#a1a1a1" vector-effect="non-scaling-stroke" d="
  M 400.6752 61.8001
  A 2.06 1.16 3.9 0 0 398.6989 60.5027
  A 2.06 1.16 3.9 0 0 396.5648 61.5199
  A 2.06 1.16 3.9 0 0 398.5411 62.8173
  A 2.06 1.16 3.9 0 0 400.6752 61.8001"
/>
<path stroke="#a1a1a1" vector-effect="non-scaling-stroke" d="
  M 433.7628 65.8085
  A 2.10 1.53 -17.5 0 0 431.2999 64.9808
  A 2.10 1.53 -17.5 0 0 429.7572 67.0715
  A 2.10 1.53 -17.5 0 0 432.2201 67.8992
  A 2.10 1.53 -17.5 0 0 433.7628 65.8085"
/>
<path stroke="#a1a1a1" vector-effect="non-scaling-stroke" d="
  M 489.5036 65.7791
  A 2.05 1.52 -19.4 0 0 487.0651 65.0263
  A 2.05 1.52 -19.4 0 0 485.6364 67.1409
  A 2.05 1.52 -19.4 0 0 488.0749 67.8937
  A 2.05 1.52 -19.4 0 0 489.5036 65.7791"
/>
<path stroke="#818181" vector-effect="non-scaling-stroke" d="
  M 230.50 124.72
  A 0.36 0.36 0.0 0 0 230.85 125.18
  L 234.44 125.14
  A 0.36 0.36 0.0 0 0 234.78 124.68
  L 232.92 118.68
  A 0.36 0.36 0.0 0 0 232.23 118.69
  L 230.50 124.72"
/>
<path stroke="#818181" vector-effect="non-scaling-stroke" d="
  M 281.8856 127.9899
  A 3.66 2.30 89.6 0 0 284.1599 124.3139
  A 3.66 2.30 89.6 0 0 281.8344 120.6701
  A 3.66 2.30 89.6 0 0 279.5601 124.3461
  A 3.66 2.30 89.6 0 0 281.8856 127.9899"
/>
<path stroke="#818181" vector-effect="non-scaling-stroke" d="
  M 308.9353 128.0197
  A 3.71 2.24 89.3 0 0 311.1298 124.2826
  A 3.71 2.24 89.3 0 0 308.8447 120.6003
  A 3.71 2.24 89.3 0 0 306.6502 124.3374
  A 3.71 2.24 89.3 0 0 308.9353 128.0197"
/>
<path stroke="#818181" vector-effect="non-scaling-stroke" d="
  M 387.88 119.05
  A 2.84 2.84 0.0 0 0 385.04 116.21
  L 384.70 116.21
  A 2.84 2.84 0.0 0 0 381.86 119.05
  L 381.86 125.07
  A 2.84 2.84 0.0 0 0 384.70 127.91
  L 385.04 127.91
  A 2.84 2.84 0.0 0 0 387.88 125.07
  L 387.88 119.05"
/>
<path stroke="#818181" vector-effect="non-scaling-stroke" d="
  M 420.48 124.62
  A 0.36 0.36 0.0 0 0 420.82 125.09
  L 424.40 125.16
  A 0.36 0.36 0.0 0 0 424.76 124.70
  L 423.08 118.53
  A 0.36 0.36 0.0 0 0 422.39 118.52
  L 420.48 124.62"
/>
<path stroke="#818181" vector-effect="non-scaling-stroke" d="
  M 529.98 117.06
  L 530.00 120.22
  A 0.88 0.88 0.0 0 0 530.88 121.10
  L 532.02 121.09
  A 3.80 2.22 -0.2 0 0 535.81 118.86
  L 535.81 118.38
  A 3.80 2.22 -0.2 0 0 532.00 116.17
  L 530.86 116.18
  A 0.88 0.88 0.0 0 0 529.98 117.06"
/>
<path stroke="#818181" vector-effect="non-scaling-stroke" d="
  M 321.16 123.22
  L 324.48 123.18
  A 0.42 0.42 0.0 0 0 324.89 122.75
  L 324.89 122.63
  A 1.94 1.91 89.3 0 0 322.95 120.72
  L 322.61 120.72
  A 1.94 1.91 89.3 0 0 320.73 122.69
  L 320.73 122.81
  A 0.42 0.42 0.0 0 0 321.16 123.22"
/>
<path stroke="#818181" vector-effect="non-scaling-stroke" d="
  M 297.4788 126.2455
  A 2.28 1.41 -13.3 0 0 294.9356 125.3978
  A 2.28 1.41 -13.3 0 0 293.0412 127.2945
  A 2.28 1.41 -13.3 0 0 295.5844 128.1422
  A 2.28 1.41 -13.3 0 0 297.4788 126.2455"
/>
<path stroke="#818181" vector-effect="non-scaling-stroke" d="
  M 450.2589 126.2574
  A 2.18 1.44 -13.6 0 0 447.8014 125.3704
  A 2.18 1.44 -13.6 0 0 446.0211 127.2826
  A 2.18 1.44 -13.6 0 0 448.4786 128.1696
  A 2.18 1.44 -13.6 0 0 450.2589 126.2574"
/>
<path stroke="#818181" vector-effect="non-scaling-stroke" d="
  M 475.6346 126.1203
  A 2.29 1.40 -15.7 0 0 473.0512 125.3922
  A 2.29 1.40 -15.7 0 0 471.2254 127.3597
  A 2.29 1.40 -15.7 0 0 473.8088 128.0878
  A 2.29 1.40 -15.7 0 0 475.6346 126.1203"
/>
<path stroke="#818181" vector-effect="non-scaling-stroke" d="
  M 501.9513 126.1721
  A 2.31 1.40 -15.0 0 0 499.3577 125.4177
  A 2.31 1.40 -15.0 0 0 497.4887 127.3679
  A 2.31 1.40 -15.0 0 0 500.0823 128.1223
  A 2.31 1.40 -15.0 0 0 501.9513 126.1721"
/>
<path stroke="#818181" vector-effect="non-scaling-stroke" d="
  M 513.2636 127.9500
  A 3.67 2.46 90.1 0 0 515.7300 124.2843
  A 3.67 2.46 90.1 0 0 513.2764 120.6100
  A 3.67 2.46 90.1 0 0 510.8100 124.2757
  A 3.67 2.46 90.1 0 0 513.2636 127.9500"
/>
<path stroke="#818181" vector-effect="non-scaling-stroke" d="
  M 554.25 123.32
  L 557.33 123.13
  A 0.46 0.46 0.0 0 0 557.76 122.65
  L 557.75 122.50
  A 1.99 1.88 86.5 0 0 555.75 120.63
  L 555.51 120.64
  A 1.99 1.88 86.5 0 0 553.76 122.74
  L 553.77 122.89
  A 0.46 0.46 0.0 0 0 554.25 123.32"
/>
<path stroke="#818181" vector-effect="non-scaling-stroke" d="
  M 579.91 123.25
  L 583.01 123.17
  A 0.45 0.45 0.0 0 0 583.45 122.71
  L 583.45 122.58
  A 1.94 1.88 88.6 0 0 581.52 120.69
  L 581.28 120.69
  A 1.94 1.88 88.6 0 0 579.45 122.68
  L 579.45 122.81
  A 0.45 0.45 0.0 0 0 579.91 123.25"
/>
<path stroke="#818181" vector-effect="non-scaling-stroke" d="
  M 629.5887 126.1919
  A 2.30 1.44 -14.3 0 0 627.0043 125.3646
  A 2.30 1.44 -14.3 0 0 625.1313 127.3281
  A 2.30 1.44 -14.3 0 0 627.7157 128.1554
  A 2.30 1.44 -14.3 0 0 629.5887 126.1919"
/>
</g>
<path fill="#ffffff" d="
  M 0.00 0.00
  L 844.00 0.00
  L 844.00 186.00
  L 0.00 186.00
  L 0.00 0.00
  Z
  M 274.62 33.26
  A 0.49 0.49 0.0 0 0 274.13 33.75
  L 274.09 91.00
  A 0.49 0.49 0.0 0 0 274.58 91.49
  L 546.01 91.49
  A 0.49 0.49 0.0 0 0 546.50 91.00
  L 546.50 33.74
  A 0.49 0.49 0.0 0 0 546.01 33.25
  L 274.62 33.26
  Z
  M 254.62 114.44
  A 1.89 1.89 0.0 0 0 252.73 112.55
  A 1.89 1.89 0.0 0 0 250.84 114.44
  A 1.89 1.89 0.0 0 0 252.73 116.33
  A 1.89 1.89 0.0 0 0 254.62 114.44
  Z
  M 273.8534 114.1895
  A 2.05 1.78 -7.3 0 0 271.5938 112.6844
  A 2.05 1.78 -7.3 0 0 269.7866 114.7105
  A 2.05 1.78 -7.3 0 0 272.0462 116.2156
  A 2.05 1.78 -7.3 0 0 273.8534 114.1895
  Z
  M 466.0580 114.1505
  A 2.05 1.77 -8.4 0 0 463.7714 112.6990
  A 2.05 1.77 -8.4 0 0 462.0020 114.7495
  A 2.05 1.77 -8.4 0 0 464.2886 116.2010
  A 2.05 1.77 -8.4 0 0 466.0580 114.1505
  Z
  M 619.84 114.44
  A 1.90 1.90 0.0 0 0 617.94 112.54
  A 1.90 1.90 0.0 0 0 616.04 114.44
  A 1.90 1.90 0.0 0 0 617.94 116.34
  A 1.90 1.90 0.0 0 0 619.84 114.44
  Z
  M 230.18 128.04
  L 234.87 127.98
  Q 235.49 127.98 235.85 128.49
  C 236.70 129.69 237.11 131.71 239.21 130.86
  A 1.18 1.18 0.0 0 0 239.89 129.42
  Q 237.67 122.23 235.34 114.79
  Q 234.77 112.97 232.99 113.00
  Q 230.59 113.05 230.01 114.84
  Q 227.81 121.67 225.76 128.17
  Q 225.43 129.21 225.59 130.21
  A 1.18 1.18 0.0 0 0 227.56 130.88
  Q 228.69 129.82 229.34 128.57
  A 0.96 0.96 0.0 0 1 230.18 128.04
  Z
  M 283.59 118.29
  C 274.29 114.06 272.56 132.96 283.14 130.44
  C 284.28 130.17 285.10 130.46 286.16 130.82
  A 1.16 1.16 0.0 0 0 287.70 129.72
  L 287.58 114.21
  Q 287.57 112.84 286.21 113.06
  L 285.40 113.18
  Q 284.19 113.37 284.21 114.60
  L 284.28 117.83
  Q 284.30 118.62 283.59 118.29
  Z
  M 638.8064 114.4560
  A 1.38 1.38 0.0 0 0 637.4312 113.0712
  L 636.7712 113.0689
  A 1.38 1.38 0.0 0 0 635.3864 114.4441
  L 635.3336 129.5640
  A 1.38 1.38 0.0 0 0 636.7088 130.9488
  L 637.3688 130.9511
  A 1.38 1.38 0.0 0 0 638.7536 129.5759
  L 638.8064 114.4560
  Z
  M 310.49 118.29
  C 300.85 114.01 300.19 133.72 310.11 130.44
  Q 311.74 129.90 313.05 130.77
  A 0.97 0.97 0.0 0 0 314.55 129.96
  L 314.59 114.25
  Q 314.59 113.15 313.50 113.18
  L 311.98 113.23
  Q 311.20 113.25 311.20 114.02
  L 311.23 117.81
  Q 311.23 118.62 310.49 118.29
  Z
  M 357.70 123.31
  Q 354.93 119.59 352.55 115.00
  C 351.87 113.69 350.70 112.93 349.18 113.17
  Q 348.06 113.34 348.06 114.48
  L 348.06 129.40
  A 1.60 1.59 -2.0 0 0 349.77 130.99
  L 350.07 130.97
  A 1.54 1.53 -2.2 0 0 351.50 129.43
  L 351.48 121.45
  Q 351.47 119.39 352.50 121.18
  Q 354.93 125.38 357.35 129.30
  Q 358.78 131.62 361.08 130.45
  Q 361.51 130.23 361.51 129.75
  L 361.50 113.97
  Q 361.50 113.19 360.72 113.21
  L 358.83 113.26
  Q 358.07 113.27 358.04 114.03
  Q 357.78 118.85 358.23 123.10
  Q 358.34 124.17 357.70 123.31
  Z
  M 368.46 120.27
  A 0.63 0.63 0.0 0 1 367.85 119.63
  L 367.89 116.85
  A 0.63 0.63 0.0 0 1 368.53 116.23
  L 375.73 116.35
  A 0.63 0.63 0.0 0 0 376.37 115.75
  L 376.46 113.95
  A 0.63 0.63 0.0 0 0 375.83 113.29
  L 365.01 113.23
  A 0.63 0.63 0.0 0 0 364.38 113.86
  L 364.37 130.10
  A 0.63 0.63 0.0 0 0 365.01 130.74
  L 375.81 130.65
  A 0.63 0.63 0.0 0 0 376.43 130.05
  L 376.50 128.18
  A 0.63 0.63 0.0 0 0 375.84 127.52
  L 368.55 127.78
  A 0.63 0.63 0.0 0 1 367.90 127.18
  L 367.77 124.04
  A 0.63 0.63 0.0 0 1 368.37 123.39
  L 373.23 123.20
  A 0.63 0.63 0.0 0 0 373.84 122.53
  L 373.73 120.98
  A 0.63 0.63 0.0 0 0 373.12 120.39
  L 368.46 120.27
  Z
  M 391.3949 119.1913
  A 5.99 5.99 0.0 0 0 385.4154 113.1909
  L 384.4154 113.1891
  A 5.99 5.99 0.0 0 0 378.4150 119.1687
  L 378.4051 124.8487
  A 5.99 5.99 0.0 0 0 384.3846 130.8491
  L 385.3846 130.8509
  A 5.99 5.99 0.0 0 0 391.3850 124.8713
  L 391.3949 119.1913
  Z
  M 420.28 127.99
  L 424.89 128.02
  A 1.28 1.25 -13.5 0 1 425.99 128.68
  Q 426.69 130.01 427.83 130.89
  A 1.26 1.25 -46.9 0 0 429.43 130.83
  Q 430.19 130.16 429.92 129.30
  Q 427.43 121.35 425.09 113.79
  Q 424.92 113.26 424.36 113.25
  L 421.36 113.24
  Q 420.56 113.24 420.32 113.99
  L 415.46 129.41
  A 1.25 1.25 0.0 0 0 416.94 131.01
  Q 418.90 130.55 419.44 128.62
  Q 419.61 127.99 420.28 127.99
  Z
  M 459.6933 114.3232
  A 1.14 1.14 0.0 0 0 458.5553 113.1812
  L 457.2353 113.1789
  A 1.14 1.14 0.0 0 0 456.0933 114.3169
  L 456.0667 129.5968
  A 1.14 1.14 0.0 0 0 457.2047 130.7388
  L 458.5247 130.7411
  A 1.14 1.14 0.0 0 0 459.6667 129.6031
  L 459.6933 114.3232
  Z
  M 503.8851 114.6468
  A 0.72 0.72 0.0 0 0 503.2416 113.8577
  L 497.1131 113.2352
  A 0.72 0.72 0.0 0 0 496.3240 113.8788
  L 496.2149 114.9532
  A 0.72 0.72 0.0 0 0 496.8584 115.7423
  L 502.9869 116.3648
  A 0.72 0.72 0.0 0 0 503.7760 115.7212
  L 503.8851 114.6468
  Z
  M 530.86 123.76
  C 535.47 124.42 540.39 122.77 538.86 116.90
  C 537.62 112.15 530.73 113.17 527.00 113.28
  A 0.50 0.49 -0.6 0 0 526.51 113.77
  L 526.51 129.05
  Q 526.51 130.82 528.25 131.11
  Q 529.13 131.25 529.95 129.04
  A 0.35 0.31 -41.4 0 0 529.96 128.96
  L 530.01 124.49
  Q 530.02 123.64 530.86 123.76
  Z
  M 245.76 116.71
  Q 245.81 116.49 245.91 116.28
  Q 246.19 115.69 245.89 115.20
  Q 245.24 114.15 243.74 114.49
  Q 242.65 114.73 242.70 115.84
  Q 242.75 117.24 241.58 117.83
  Q 241.21 118.02 241.03 118.39
  Q 240.22 120.02 241.99 120.76
  Q 242.48 120.96 242.49 121.48
  L 242.68 128.67
  A 1.24 1.20 20.4 0 0 243.11 129.57
  Q 245.00 131.17 247.44 130.84
  A 1.39 1.38 -31.2 0 0 248.06 128.34
  L 246.67 127.35
  A 1.49 1.48 16.7 0 1 246.03 126.17
  L 245.93 121.60
  Q 245.92 121.05 246.45 120.88
  L 248.47 120.24
  A 1.02 1.02 0.0 0 0 248.69 118.39
  Q 247.58 117.71 246.31 117.51
  Q 245.60 117.40 245.76 116.71
  Z
  M 254.5052 119.2122
  A 1.66 1.66 0.0 0 0 252.8568 117.5407
  L 252.7168 117.5397
  A 1.66 1.66 0.0 0 0 251.0453 119.1880
  L 250.9748 129.2878
  A 1.66 1.66 0.0 0 0 252.6232 130.9593
  L 252.7632 130.9603
  A 1.66 1.66 0.0 0 0 254.4347 129.3120
  L 254.5052 119.2122
  Z
  M 273.6568 119.0695
  A 1.48 1.48 0.0 0 0 272.1846 117.5818
  L 271.5446 117.5784
  A 1.48 1.48 0.0 0 0 270.0569 119.0506
  L 270.0032 129.3105
  A 1.48 1.48 0.0 0 0 271.4754 130.7982
  L 272.1154 130.8016
  A 1.48 1.48 0.0 0 0 273.6031 129.3294
  L 273.6568 119.0695
  Z
  M 322.00 125.31
  L 327.35 125.35
  A 1.29 1.29 0.0 0 0 328.65 124.00
  C 328.54 121.53 327.48 119.19 325.14 118.13
  C 321.99 116.71 318.09 118.40 317.26 121.84
  Q 316.46 125.15 317.76 127.78
  C 319.55 131.43 324.44 131.74 327.58 129.36
  Q 328.08 128.98 327.77 128.44
  L 327.00 127.05
  Q 326.61 126.34 325.98 126.85
  Q 323.36 128.98 321.31 127.02
  Q 319.49 125.29 322.00 125.31
  Z
  M 405.88 121.68
  A 1.05 1.05 0.0 0 1 405.09 120.88
  L 404.56 118.45
  A 1.05 1.05 0.0 0 0 402.51 118.44
  L 401.96 120.86
  A 1.05 1.05 0.0 0 1 401.16 121.65
  L 398.73 122.18
  A 1.05 1.05 0.0 0 0 398.72 124.23
  L 401.14 124.78
  A 1.05 1.05 0.0 0 1 401.93 125.58
  L 402.46 128.01
  A 1.05 1.05 0.0 0 0 404.51 128.02
  L 405.06 125.60
  A 1.05 1.05 0.0 0 1 405.86 124.81
  L 408.29 124.28
  A 1.05 1.05 0.0 0 0 408.30 122.23
  L 405.88 121.68
  Z
  M 465.8470 119.0494
  A 1.38 1.38 0.0 0 0 464.4743 117.6622
  L 463.6543 117.6579
  A 1.38 1.38 0.0 0 0 462.2671 119.0307
  L 462.2130 129.3706
  A 1.38 1.38 0.0 0 0 463.5857 130.7578
  L 464.4057 130.7621
  A 1.38 1.38 0.0 0 0 465.7929 129.3893
  L 465.8470 119.0494
  Z
  M 619.6811 119.1670
  A 1.68 1.68 0.0 0 0 617.9982 117.4899
  L 617.8582 117.4901
  A 1.68 1.68 0.0 0 0 616.1812 119.1731
  L 616.1989 129.3130
  A 1.68 1.68 0.0 0 0 617.8818 130.9901
  L 618.0218 130.9899
  A 1.68 1.68 0.0 0 0 619.6988 129.3069
  L 619.6811 119.1670
  Z
  M 262.22 124.40
  Q 260.88 121.79 260.35 118.66
  A 1.13 1.12 84.9 0 0 259.23 117.72
  L 257.47 117.75
  Q 256.37 117.76 256.68 118.81
  Q 258.12 123.65 259.93 129.17
  C 260.68 131.46 264.05 131.41 264.71 129.17
  Q 266.29 123.83 267.85 119.45
  Q 268.55 117.48 266.47 117.67
  L 265.98 117.71
  A 2.53 2.52 2.4 0 0 263.73 119.77
  L 262.91 124.30
  Q 262.72 125.37 262.22 124.40
  Z
  M 296.59 123.11
  Q 295.22 123.25 293.76 123.28
  C 287.48 123.37 288.56 132.81 295.82 130.52
  Q 297.57 129.97 299.16 130.66
  A 1.31 1.30 -80.8 0 0 300.97 129.35
  Q 300.73 126.51 300.87 123.26
  C 301.13 117.08 293.54 116.04 290.27 119.99
  A 1.13 1.13 0.0 0 0 290.23 121.40
  Q 291.00 122.44 292.19 121.97
  Q 293.65 121.40 294.98 120.79
  A 1.45 1.44 -33.4 0 1 296.66 121.13
  Q 297.02 121.52 297.23 122.04
  Q 297.63 123.01 296.59 123.11
  Z
  M 334.43 120.56
  Q 335.32 120.27 336.15 120.72
  L 338.90 122.23
  A 1.21 1.21 0.0 0 0 340.67 120.95
  Q 340.49 119.92 339.63 119.24
  Q 336.12 116.49 332.20 118.57
  C 329.40 120.06 329.68 123.53 332.45 124.74
  Q 334.74 125.74 337.08 126.62
  A 0.72 0.72 0.0 0 1 337.09 127.97
  C 334.24 129.10 333.52 126.05 330.91 126.62
  A 1.20 1.20 0.0 0 0 330.34 128.66
  Q 333.55 131.70 337.68 130.61
  Q 341.58 129.59 340.73 125.96
  C 340.21 123.74 335.65 122.79 333.79 122.02
  Q 332.95 121.67 333.61 121.04
  Q 333.96 120.71 334.43 120.56
  Z
  M 435.67 123.85
  Q 434.81 121.56 434.28 119.01
  Q 434.03 117.75 432.74 117.74
  L 431.51 117.72
  Q 430.12 117.71 430.53 119.04
  Q 431.95 123.64 433.59 128.83
  C 434.38 131.31 437.82 131.70 438.59 129.08
  Q 440.14 123.81 441.65 119.22
  Q 442.18 117.62 440.50 117.71
  L 439.63 117.75
  Q 438.06 117.83 437.73 119.37
  L 436.78 123.77
  Q 436.36 125.71 435.67 123.85
  Z
  M 449.50 123.06
  C 446.57 123.06 442.63 123.24 442.46 127.10
  C 442.31 130.39 445.84 131.32 448.39 130.64
  Q 450.44 130.10 452.37 130.71
  A 1.17 1.16 6.3 0 0 453.89 129.50
  C 453.61 126.53 454.61 121.67 452.54 119.43
  C 450.15 116.87 445.11 117.03 443.15 120.25
  A 1.10 1.10 0.0 0 0 444.02 121.92
  Q 445.82 122.03 447.37 121.02
  C 448.52 120.26 449.83 120.86 450.17 122.19
  Q 450.38 123.06 449.50 123.06
  Z
  M 474.66 123.14
  C 471.60 123.22 467.21 123.37 467.79 127.83
  C 468.17 130.72 471.89 131.30 474.09 130.46
  Q 475.47 129.94 476.79 130.66
  A 1.55 1.55 0.0 0 0 479.08 129.24
  Q 479.00 126.51 479.07 123.79
  C 479.17 120.28 477.82 118.01 474.16 117.69
  Q 470.43 117.37 468.48 120.23
  A 1.14 1.14 0.0 0 0 469.37 122.01
  Q 471.14 122.09 472.72 121.06
  C 473.90 120.29 475.29 120.66 475.45 122.24
  Q 475.55 123.12 474.66 123.14
  Z
  M 486.74 132.28
  Q 486.41 132.53 486.01 132.51
  C 477.16 132.19 468.72 132.43 460.30 132.42
  Q 342.80 132.33 225.54 132.43
  Q 224.69 132.43 224.50 133.26
  L 224.39 133.72
  A 0.63 0.63 0.0 0 0 225.00 134.49
  Q 353.90 134.48 483.03 134.49
  C 484.90 134.49 486.38 135.73 488.17 135.06
  Q 489.69 134.48 491.28 134.48
  Q 563.50 134.50 639.32 134.47
  Q 640.16 134.47 640.25 133.64
  Q 640.27 133.48 640.23 133.33
  Q 639.97 132.42 639.02 132.42
  Q 560.67 132.41 490.18 132.38
  Q 489.17 132.38 488.96 131.45
  A 1.10 1.09 -15.8 0 1 489.67 130.18
  Q 491.75 129.47 492.35 127.69
  Q 492.56 127.06 492.09 126.59
  Q 491.50 125.99 490.69 125.83
  Q 490.08 125.71 489.62 126.13
  L 487.98 127.62
  A 1.52 1.52 0.0 0 1 485.73 127.40
  Q 484.16 125.26 484.96 122.36
  C 485.30 121.09 486.65 119.97 487.91 120.85
  C 489.15 121.73 490.10 123.93 492.03 122.39
  Q 492.87 121.72 492.33 120.79
  C 489.65 116.13 482.45 116.77 481.38 122.26
  C 480.35 127.55 482.44 129.27 486.67 131.50
  A 0.47 0.47 0.0 0 1 486.74 132.28
  Z
  M 501.15 122.99
  Q 499.74 123.25 498.09 123.30
  C 491.90 123.49 493.33 132.71 500.06 130.59
  Q 502.03 129.97 503.84 130.71
  A 1.14 1.13 11.1 0 0 505.41 129.66
  Q 505.39 126.50 505.42 123.23
  C 505.48 118.07 500.44 116.52 496.45 118.57
  Q 495.08 119.27 494.64 120.63
  A 1.15 1.15 0.0 0 0 496.14 122.07
  L 499.60 120.77
  A 1.47 1.44 -44.0 0 1 500.63 120.78
  Q 501.45 121.10 501.77 121.81
  Q 502.21 122.80 501.15 122.99
  Z
  M 513.3067 130.9498
  A 6.69 5.99 89.6 0 0 519.2499 124.2182
  A 6.69 5.99 89.6 0 0 513.2133 117.5702
  A 6.69 5.99 89.6 0 0 507.2701 124.3018
  A 6.69 5.99 89.6 0 0 513.3067 130.9498
  Z
  M 545.47 121.89
  L 547.58 121.30
  A 1.57 1.57 0.0 0 0 548.72 119.93
  L 548.83 118.76
  Q 548.97 117.22 547.52 117.75
  Q 546.00 118.30 544.59 118.28
  A 2.57 2.48 -29.6 0 1 543.45 117.99
  Q 542.54 117.50 541.68 117.86
  Q 541.14 118.08 541.13 118.67
  L 541.09 129.40
  A 1.46 1.46 0.0 0 0 542.52 130.87
  L 542.84 130.88
  Q 544.59 130.92 544.62 129.16
  L 544.73 122.85
  A 1.02 1.01 -7.8 0 1 545.47 121.89
  Z
  M 554.28 125.38
  L 560.03 125.26
  Q 561.99 125.22 561.60 123.30
  Q 561.28 121.69 560.53 120.36
  Q 559.23 118.05 556.59 117.73
  C 551.16 117.09 548.96 122.18 550.38 126.77
  C 551.73 131.18 556.97 132.00 560.38 129.49
  Q 561.07 128.98 560.73 128.20
  L 560.31 127.24
  Q 559.88 126.24 559.00 126.87
  C 557.19 128.18 554.99 128.81 553.73 126.28
  A 0.63 0.62 -13.8 0 1 554.28 125.38
  Z
  M 569.58 128.14
  Q 568.42 128.52 567.39 127.86
  L 565.39 126.58
  A 1.39 1.39 0.0 0 0 563.26 127.89
  Q 563.36 128.86 564.24 129.47
  Q 567.90 132.03 572.09 130.06
  C 575.11 128.64 574.09 124.29 571.03 123.58
  Q 568.74 123.06 566.86 121.93
  Q 566.20 121.54 566.72 120.97
  Q 567.11 120.55 567.79 120.50
  Q 568.68 120.42 569.46 120.86
  L 571.93 122.24
  A 1.17 1.17 0.0 0 0 573.66 121.05
  C 572.88 115.66 560.87 117.23 563.64 123.02
  C 564.65 125.13 568.08 125.68 570.07 126.67
  Q 570.94 127.11 570.22 127.77
  Q 569.94 128.02 569.58 128.14
  Z
  M 580.19 125.32
  L 586.30 125.26
  A 1.10 1.09 87.1 0 0 587.37 124.07
  C 586.53 114.36 574.03 116.29 575.77 125.61
  C 576.73 130.80 582.01 132.38 586.09 129.51
  Q 586.81 129.00 586.42 128.22
  L 585.96 127.28
  A 0.87 0.87 0.0 0 0 584.72 126.92
  C 582.98 127.96 580.85 128.81 579.50 126.57
  A 0.82 0.82 0.0 0 1 580.19 125.32
  Z
  M 596.29 121.37
  C 597.33 122.89 597.03 127.31 596.96 129.21
  Q 596.90 130.85 598.54 130.80
  L 598.98 130.79
  Q 600.25 130.75 600.32 129.48
  Q 600.50 126.03 600.41 122.38
  C 600.30 118.21 597.13 117.03 593.66 118.13
  Q 592.72 118.42 591.81 118.06
  Q 591.08 117.77 590.32 117.73
  A 0.93 0.93 0.0 0 0 589.34 118.66
  L 589.39 129.39
  A 1.42 1.42 0.0 0 0 590.77 130.80
  L 591.22 130.81
  Q 592.94 130.86 592.90 129.13
  Q 592.82 126.00 592.95 122.91
  Q 593.01 121.60 594.05 120.92
  A 1.63 1.63 0.0 0 1 596.29 121.37
  Z
  M 606.51 121.88
  C 607.14 120.46 608.98 120.30 609.92 121.41
  Q 610.86 122.51 612.30 122.72
  Q 612.89 122.80 613.31 122.54
  Q 614.42 121.83 613.72 120.72
  Q 611.58 117.31 607.57 117.76
  C 599.08 118.72 601.68 134.11 610.90 130.33
  Q 612.87 129.52 613.60 128.07
  Q 614.32 126.66 612.76 126.02
  A 2.08 2.06 -54.9 0 0 610.56 126.41
  L 609.31 127.55
  A 1.65 1.65 0.0 0 1 606.77 127.15
  Q 605.31 124.58 606.51 121.88
  Z
  M 628.52 123.15
  C 626.45 123.33 623.94 123.00 622.53 124.73
  Q 621.40 126.11 621.81 127.89
  C 622.61 131.33 626.30 131.24 629.03 130.17
  A 1.30 1.28 55.8 0 1 630.39 130.44
  Q 631.25 131.27 632.23 130.78
  Q 632.76 130.52 632.79 129.92
  Q 632.99 126.52 632.96 123.04
  Q 632.92 118.32 628.37 117.80
  Q 623.91 117.29 622.38 120.37
  Q 621.60 121.94 623.35 122.02
  Q 624.89 122.08 626.22 121.14
  C 627.29 120.38 628.90 120.52 629.32 121.99
  Q 629.61 123.05 628.52 123.15
  Z"
/>
<path fill="#434343" d="
  M 274.62 33.26
  L 546.01 33.25
  A 0.49 0.49 0.0 0 1 546.50 33.74
  L 546.50 91.00
  A 0.49 0.49 0.0 0 1 546.01 91.49
  L 274.58 91.49
  A 0.49 0.49 0.0 0 1 274.09 91.00
  L 274.13 33.75
  A 0.49 0.49 0.0 0 1 274.62 33.26
  Z
  M 424.22 54.17
  A 1.90 1.90 0.0 0 0 422.32 52.27
  A 1.90 1.90 0.0 0 0 420.42 54.17
  A 1.90 1.90 0.0 0 0 422.32 56.07
  A 1.90 1.90 0.0 0 0 424.22 54.17
  Z
  M 449.38 67.04
  A 2.00 1.98 11.2 0 1 448.33 65.49
  Q 448.00 62.36 448.17 58.59
  C 448.30 55.77 451.74 54.95 453.29 57.13
  Q 454.09 58.26 455.25 59.01
  A 1.31 1.30 -71.5 0 0 457.26 58.00
  C 457.68 52.01 446.22 50.79 444.96 57.07
  Q 444.16 61.06 444.89 65.90
  C 445.79 71.90 455.18 72.14 456.97 66.73
  Q 457.75 64.34 457.48 61.60
  Q 457.39 60.75 456.54 60.75
  L 451.93 60.75
  A 1.18 1.16 12.0 0 0 450.86 61.43
  Q 450.57 62.08 450.77 62.84
  A 1.02 1.01 -1.4 0 0 451.54 63.57
  L 453.07 63.89
  A 1.36 1.36 0.0 0 1 453.78 66.15
  Q 451.75 68.30 449.38 67.04
  Z
  M 327.01 67.46
  L 331.26 67.52
  Q 332.06 67.53 332.39 68.26
  C 333.05 69.70 333.81 71.04 335.66 70.42
  A 1.09 1.08 72.4 0 0 336.36 69.06
  L 331.70 54.18
  Q 331.44 53.33 330.58 53.09
  Q 329.41 52.76 327.81 53.01
  A 1.47 1.45 4.1 0 0 326.64 54.01
  L 321.77 69.49
  Q 321.51 70.29 322.34 70.45
  C 324.68 70.90 325.10 70.09 325.91 68.18
  A 1.18 1.18 0.0 0 1 327.01 67.46
  Z
  M 344.65 64.39
  A 0.42 0.41 -21.4 0 1 344.03 64.12
  Q 343.06 59.57 341.78 54.62
  A 2.15 2.11 81.7 0 0 339.65 53.00
  Q 339.50 53.00 339.35 52.98
  Q 337.43 52.74 338.01 54.58
  Q 340.33 62.06 342.46 69.29
  Q 342.64 69.92 343.24 70.18
  Q 344.50 70.75 345.90 70.29
  Q 346.50 70.10 346.69 69.49
  L 351.31 54.26
  Q 351.75 52.82 350.25 52.90
  L 349.39 52.95
  A 1.88 1.87 -84.7 0 0 347.68 54.38
  Q 346.61 58.81 345.05 63.87
  Q 344.95 64.21 344.65 64.39
  Z
  M 386.92 61.26
  Q 386.65 65.22 386.81 69.28
  A 1.19 1.19 0.0 0 0 387.98 70.42
  L 389.04 70.44
  Q 390.29 70.46 390.29 69.21
  L 390.32 53.77
  Q 390.32 53.20 389.77 53.06
  C 386.44 52.24 385.02 55.63 383.77 57.96
  A 0.91 0.91 0.0 0 1 382.15 57.94
  C 380.94 55.58 379.59 52.14 376.24 53.09
  A 0.99 0.99 0.0 0 0 375.53 54.05
  L 375.60 69.21
  A 1.31 1.31 0.0 0 0 376.96 70.52
  L 377.77 70.49
  Q 379.22 70.43 379.19 68.98
  L 379.04 60.95
  Q 379.00 58.94 380.19 60.55
  Q 381.08 61.75 381.92 63.11
  A 1.22 1.21 -44.7 0 0 383.98 63.12
  Q 384.72 61.95 385.61 60.77
  Q 387.09 58.78 386.92 61.26
  Z
  M 400.7485 53.2280
  A 2.17 1.22 -37.2 0 0 398.2824 53.5682
  A 2.17 1.22 -37.2 0 0 397.2915 55.8520
  A 2.17 1.22 -37.2 0 0 399.7576 55.5118
  A 2.17 1.22 -37.2 0 0 400.7485 53.2280
  Z
  M 413.94 57.96
  C 403.72 54.55 403.96 72.21 412.43 70.35
  Q 414.46 69.90 416.46 70.39
  Q 417.88 70.73 417.88 69.27
  L 417.80 54.24
  Q 417.80 52.94 416.49 52.97
  L 415.72 52.99
  Q 414.22 53.03 414.33 54.53
  L 414.55 57.49
  A 0.46 0.46 0.0 0 1 413.94 57.96
  Z
  M 499.1734 54.0432
  A 0.99 0.99 0.0 0 0 498.1851 53.0514
  L 496.5651 53.0486
  A 0.99 0.99 0.0 0 0 495.5734 54.0369
  L 495.5466 69.3768
  A 0.99 0.99 0.0 0 0 496.5349 70.3686
  L 498.1549 70.3714
  A 0.99 0.99 0.0 0 0 499.1466 69.3831
  L 499.1734 54.0432
  Z
  M 464.24 65.12
  L 469.05 65.26
  Q 471.27 65.33 471.02 63.11
  Q 470.86 61.76 470.39 60.57
  A 4.88 4.87 -6.0 0 0 466.64 57.54
  C 460.86 56.60 458.54 61.65 459.94 66.34
  Q 461.69 72.16 469.13 69.93
  A 1.56 1.54 -84.6 0 0 470.05 69.16
  Q 470.34 68.58 470.29 67.99
  Q 470.12 66.13 468.42 66.89
  Q 465.18 68.35 463.56 66.67
  A 0.91 0.91 0.0 0 1 464.24 65.12
  Z
  M 397.52 65.08
  L 402.51 65.26
  Q 405.31 65.36 404.39 62.71
  Q 404.10 61.88 403.75 60.88
  Q 402.83 58.21 400.06 57.63
  C 396.31 56.83 393.13 58.91 392.91 62.77
  C 392.68 66.98 394.06 70.56 399.06 70.57
  C 400.63 70.58 404.10 69.94 403.54 67.60
  A 1.04 1.04 0.0 0 0 402.33 66.82
  L 398.41 67.58
  A 1.01 1.00 -34.0 0 1 397.67 67.44
  Q 396.72 66.83 396.66 65.98
  Q 396.59 65.05 397.52 65.08
  Z
  M 424.0284 58.7561
  A 1.22 1.22 0.0 0 0 422.8126 57.5318
  L 421.7926 57.5283
  A 1.22 1.22 0.0 0 0 420.5684 58.7440
  L 420.5316 69.2639
  A 1.22 1.22 0.0 0 0 421.7474 70.4882
  L 422.7674 70.4917
  A 1.22 1.22 0.0 0 0 423.9916 69.2760
  L 424.0284 58.7561
  Z
  M 432.61 62.98
  C 429.27 63.03 425.54 62.90 426.34 67.82
  C 426.84 70.95 430.49 70.90 432.81 70.12
  Q 433.30 69.96 433.80 70.04
  L 436.52 70.49
  Q 437.26 70.61 437.29 69.86
  Q 437.47 66.33 437.38 62.23
  C 437.23 54.85 425.21 57.35 426.86 61.04
  A 1.09 1.08 -20.5 0 0 428.17 61.63
  L 431.28 60.67
  Q 432.48 60.30 433.45 61.10
  Q 433.74 61.34 433.77 61.67
  Q 433.90 62.96 432.61 62.98
  Z
  M 477.58 61.50
  L 480.05 60.74
  A 1.66 1.66 0.0 0 0 481.22 59.21
  L 481.24 58.78
  Q 481.29 57.41 479.95 57.66
  Q 477.27 58.15 474.69 57.54
  A 1.23 1.23 0.0 0 0 473.18 58.75
  L 473.27 68.86
  Q 473.29 70.44 474.87 70.49
  L 475.19 70.50
  Q 476.68 70.54 476.71 69.06
  L 476.87 62.44
  Q 476.89 61.71 477.58 61.50
  Z
  M 488.56 60.55
  Q 489.89 61.21 489.36 62.47
  A 0.94 0.94 0.0 0 1 488.33 63.03
  C 479.39 61.41 480.49 72.52 487.50 70.43
  Q 489.69 69.77 492.16 70.40
  A 0.87 0.87 0.0 0 0 493.25 69.53
  Q 493.14 66.52 493.29 63.08
  C 493.51 58.26 489.35 56.69 485.30 57.78
  Q 483.35 58.31 482.60 60.25
  A 1.08 1.07 3.8 0 0 483.86 61.68
  Q 485.60 61.27 487.24 60.52
  A 1.54 1.53 -43.4 0 1 488.56 60.55
  Z
  M 368.6751 60.1530
  A 1.09 1.09 0.0 0 0 367.5737 59.0744
  L 358.8542 59.1657
  A 1.09 1.09 0.0 0 0 357.7757 60.2671
  L 357.7849 61.1470
  A 1.09 1.09 0.0 0 0 358.8863 62.2256
  L 367.6058 62.1343
  A 1.09 1.09 0.0 0 0 368.6843 61.0329
  L 368.6751 60.1530
  Z
  M 368.7129 65.2075
  A 1.19 1.19 0.0 0 0 367.5355 64.0051
  L 358.9359 63.9151
  A 1.19 1.19 0.0 0 0 357.7335 65.0925
  L 357.7271 65.7125
  A 1.19 1.19 0.0 0 0 358.9045 66.9149
  L 367.5041 67.0049
  A 1.19 1.19 0.0 0 0 368.7065 65.8275
  L 368.7129 65.2075
  Z"
/>
<circle fill="#ffffff" cx="422.32" cy="54.17" r="1.90"/>
<path fill="#ffffff" d="
  M 449.38 67.04
  Q 451.75 68.30 453.78 66.15
  A 1.36 1.36 0.0 0 0 453.07 63.89
  L 451.54 63.57
  A 1.02 1.01 -1.4 0 1 450.77 62.84
  Q 450.57 62.08 450.86 61.43
  A 1.18 1.16 12.0 0 1 451.93 60.75
  L 456.54 60.75
  Q 457.39 60.75 457.48 61.60
  Q 457.75 64.34 456.97 66.73
  C 455.18 72.14 445.79 71.90 444.89 65.90
  Q 444.16 61.06 444.96 57.07
  C 446.22 50.79 457.68 52.01 457.26 58.00
  A 1.31 1.30 -71.5 0 1 455.25 59.01
  Q 454.09 58.26 453.29 57.13
  C 451.74 54.95 448.30 55.77 448.17 58.59
  Q 448.00 62.36 448.33 65.49
  A 2.00 1.98 11.2 0 0 449.38 67.04
  Z"
/>
<path fill="#ffffff" d="
  M 325.91 68.18
  C 325.10 70.09 324.68 70.90 322.34 70.45
  Q 321.51 70.29 321.77 69.49
  L 326.64 54.01
  A 1.47 1.45 4.1 0 1 327.81 53.01
  Q 329.41 52.76 330.58 53.09
  Q 331.44 53.33 331.70 54.18
  L 336.36 69.06
  A 1.09 1.08 72.4 0 1 335.66 70.42
  C 333.81 71.04 333.05 69.70 332.39 68.26
  Q 332.06 67.53 331.26 67.52
  L 327.01 67.46
  A 1.18 1.18 0.0 0 0 325.91 68.18
  Z
  M 326.94 64.26
  A 0.49 0.49 0.0 0 0 327.39 64.90
  L 330.72 64.97
  A 0.49 0.49 0.0 0 0 331.20 64.35
  L 329.66 58.71
  A 0.49 0.49 0.0 0 0 328.72 58.69
  L 326.94 64.26
  Z"
/>
<path fill="#ffffff" d="
  M 344.65 64.39
  Q 344.95 64.21 345.05 63.87
  Q 346.61 58.81 347.68 54.38
  A 1.88 1.87 -84.7 0 1 349.39 52.95
  L 350.25 52.90
  Q 351.75 52.82 351.31 54.26
  L 346.69 69.49
  Q 346.50 70.10 345.90 70.29
  Q 344.50 70.75 343.24 70.18
  Q 342.64 69.92 342.46 69.29
  Q 340.33 62.06 338.01 54.58
  Q 337.43 52.74 339.35 52.98
  Q 339.50 53.00 339.65 53.00
  A 2.15 2.11 81.7 0 1 341.78 54.62
  Q 343.06 59.57 344.03 64.12
  A 0.42 0.41 -21.4 0 0 344.65 64.39
  Z"
/>
<path fill="#ffffff" d="
  M 386.92 61.26
  Q 387.09 58.78 385.61 60.77
  Q 384.72 61.95 383.98 63.12
  A 1.22 1.21 -44.7 0 1 381.92 63.11
  Q 381.08 61.75 380.19 60.55
  Q 379.00 58.94 379.04 60.95
  L 379.19 68.98
  Q 379.22 70.43 377.77 70.49
  L 376.96 70.52
  A 1.31 1.31 0.0 0 1 375.60 69.21
  L 375.53 54.05
  A 0.99 0.99 0.0 0 1 376.24 53.09
  C 379.59 52.14 380.94 55.58 382.15 57.94
  A 0.91 0.91 0.0 0 0 383.77 57.96
  C 385.02 55.63 386.44 52.24 389.77 53.06
  Q 390.32 53.20 390.32 53.77
  L 390.29 69.21
  Q 390.29 70.46 389.04 70.44
  L 387.98 70.42
  A 1.19 1.19 0.0 0 1 386.81 69.28
  Q 386.65 65.22 386.92 61.26
  Z"
/>
<ellipse fill="#ffffff" cx="0.00" cy="0.00" transform="translate(399.02,54.54) rotate(-37.2)" rx="2.17" ry="1.22"/>
<path fill="#ffffff" d="
  M 414.55 57.49
  L 414.33 54.53
  Q 414.22 53.03 415.72 52.99
  L 416.49 52.97
  Q 417.80 52.94 417.80 54.24
  L 417.88 69.27
  Q 417.88 70.73 416.46 70.39
  Q 414.46 69.90 412.43 70.35
  C 403.96 72.21 403.72 54.55 413.94 57.96
  A 0.46 0.46 0.0 0 0 414.55 57.49
  Z
  M 412.1394 67.6799
  A 3.70 2.24 89.7 0 0 414.3600 63.9683
  A 3.70 2.24 89.7 0 0 412.1006 60.2801
  A 3.70 2.24 89.7 0 0 409.8800 63.9917
  A 3.70 2.24 89.7 0 0 412.1394 67.6799
  Z"
/>
<rect fill="#ffffff" x="-1.80" y="-8.66" transform="translate(497.36,61.71) rotate(0.1)" width="3.60" height="17.32" rx="0.99"/>
<path fill="#ffffff" d="
  M 464.24 65.12
  A 0.91 0.91 0.0 0 0 463.56 66.67
  Q 465.18 68.35 468.42 66.89
  Q 470.12 66.13 470.29 67.99
  Q 470.34 68.58 470.05 69.16
  A 1.56 1.54 -84.6 0 1 469.13 69.93
  Q 461.69 72.16 459.94 66.34
  C 458.54 61.65 460.86 56.60 466.64 57.54
  A 4.88 4.87 -6.0 0 1 470.39 60.57
  Q 470.86 61.76 471.02 63.11
  Q 471.27 65.33 469.05 65.26
  L 464.24 65.12
  Z
  M 467.2405 61.5666
  A 1.02 1.02 0.0 0 0 466.2240 60.5430
  L 464.5041 60.5370
  A 1.02 1.02 0.0 0 0 463.4805 61.5534
  L 463.4795 61.8334
  A 1.02 1.02 0.0 0 0 464.4960 62.8570
  L 466.2159 62.8630
  A 1.02 1.02 0.0 0 0 467.2395 61.8466
  L 467.2405 61.5666
  Z"
/>
<path fill="#ffffff" d="
  M 397.52 65.08
  Q 396.59 65.05 396.66 65.98
  Q 396.72 66.83 397.67 67.44
  A 1.01 1.00 -34.0 0 0 398.41 67.58
  L 402.33 66.82
  A 1.04 1.04 0.0 0 1 403.54 67.60
  C 404.10 69.94 400.63 70.58 399.06 70.57
  C 394.06 70.56 392.68 66.98 392.91 62.77
  C 393.13 58.91 396.31 56.83 400.06 57.63
  Q 402.83 58.21 403.75 60.88
  Q 404.10 61.88 404.39 62.71
  Q 405.31 65.36 402.51 65.26
  L 397.52 65.08
  Z
  M 400.6752 61.8001
  A 2.06 1.16 3.9 0 0 398.6989 60.5027
  A 2.06 1.16 3.9 0 0 396.5648 61.5199
  A 2.06 1.16 3.9 0 0 398.5411 62.8173
  A 2.06 1.16 3.9 0 0 400.6752 61.8001
  Z"
/>
<rect fill="#ffffff" x="-1.73" y="-6.48" transform="translate(422.28,64.01) rotate(0.2)" width="3.46" height="12.96" rx="1.22"/>
<path fill="#ffffff" d="
  M 432.61 62.98
  Q 433.90 62.96 433.77 61.67
  Q 433.74 61.34 433.45 61.10
  Q 432.48 60.30 431.28 60.67
  L 428.17 61.63
  A 1.09 1.08 -20.5 0 1 426.86 61.04
  C 425.21 57.35 437.23 54.85 437.38 62.23
  Q 437.47 66.33 437.29 69.86
  Q 437.26 70.61 436.52 70.49
  L 433.80 70.04
  Q 433.30 69.96 432.81 70.12
  C 430.49 70.90 426.84 70.95 426.34 67.82
  C 425.54 62.90 429.27 63.03 432.61 62.98
  Z
  M 433.7628 65.8085
  A 2.10 1.53 -17.5 0 0 431.2999 64.9808
  A 2.10 1.53 -17.5 0 0 429.7572 67.0715
  A 2.10 1.53 -17.5 0 0 432.2201 67.8992
  A 2.10 1.53 -17.5 0 0 433.7628 65.8085
  Z"
/>
<path fill="#ffffff" d="
  M 476.87 62.44
  L 476.71 69.06
  Q 476.68 70.54 475.19 70.50
  L 474.87 70.49
  Q 473.29 70.44 473.27 68.86
  L 473.18 58.75
  A 1.23 1.23 0.0 0 1 474.69 57.54
  Q 477.27 58.15 479.95 57.66
  Q 481.29 57.41 481.24 58.78
  L 481.22 59.21
  A 1.66 1.66 0.0 0 1 480.05 60.74
  L 477.58 61.50
  Q 476.89 61.71 476.87 62.44
  Z"
/>
<path fill="#ffffff" d="
  M 488.56 60.55
  A 1.54 1.53 -43.4 0 0 487.24 60.52
  Q 485.60 61.27 483.86 61.68
  A 1.08 1.07 3.8 0 1 482.60 60.25
  Q 483.35 58.31 485.30 57.78
  C 489.35 56.69 493.51 58.26 493.29 63.08
  Q 493.14 66.52 493.25 69.53
  A 0.87 0.87 0.0 0 1 492.16 70.40
  Q 489.69 69.77 487.50 70.43
  C 480.49 72.52 479.39 61.41 488.33 63.03
  A 0.94 0.94 0.0 0 0 489.36 62.47
  Q 489.89 61.21 488.56 60.55
  Z
  M 489.5036 65.7791
  A 2.05 1.52 -19.4 0 0 487.0651 65.0263
  A 2.05 1.52 -19.4 0 0 485.6364 67.1409
  A 2.05 1.52 -19.4 0 0 488.0749 67.8937
  A 2.05 1.52 -19.4 0 0 489.5036 65.7791
  Z"
/>
<path fill="#434343" d="
  M 326.94 64.26
  L 328.72 58.69
  A 0.49 0.49 0.0 0 1 329.66 58.71
  L 331.20 64.35
  A 0.49 0.49 0.0 0 1 330.72 64.97
  L 327.39 64.90
  A 0.49 0.49 0.0 0 1 326.94 64.26
  Z"
/>
<rect fill="#ffffff" x="-5.45" y="-1.53" transform="translate(363.23,60.65) rotate(-0.6)" width="10.90" height="3.06" rx="1.09"/>
<ellipse fill="#434343" cx="0.00" cy="0.00" transform="translate(398.62,61.66) rotate(3.9)" rx="2.06" ry="1.16"/>
<ellipse fill="#434343" cx="0.00" cy="0.00" transform="translate(412.12,63.98) rotate(89.7)" rx="3.70" ry="2.24"/>
<rect fill="#434343" x="-1.88" y="-1.16" transform="translate(465.36,61.70) rotate(0.2)" width="3.76" height="2.32" rx="1.02"/>
<rect fill="#ffffff" x="-5.49" y="-1.50" transform="translate(363.22,65.46) rotate(0.6)" width="10.98" height="3.00" rx="1.19"/>
<ellipse fill="#434343" cx="0.00" cy="0.00" transform="translate(431.76,66.44) rotate(-17.5)" rx="2.10" ry="1.53"/>
<ellipse fill="#434343" cx="0.00" cy="0.00" transform="translate(487.57,66.46) rotate(-19.4)" rx="2.05" ry="1.52"/>
<circle fill="#020303" cx="252.73" cy="114.44" r="1.89"/>
<ellipse fill="#020303" cx="0.00" cy="0.00" transform="translate(271.82,114.45) rotate(-7.3)" rx="2.05" ry="1.78"/>
<ellipse fill="#020303" cx="0.00" cy="0.00" transform="translate(464.03,114.45) rotate(-8.4)" rx="2.05" ry="1.77"/>
<circle fill="#020303" cx="617.94" cy="114.44" r="1.90"/>
<path fill="#020303" d="
  M 229.34 128.57
  Q 228.69 129.82 227.56 130.88
  A 1.18 1.18 0.0 0 1 225.59 130.21
  Q 225.43 129.21 225.76 128.17
  Q 227.81 121.67 230.01 114.84
  Q 230.59 113.05 232.99 113.00
  Q 234.77 112.97 235.34 114.79
  Q 237.67 122.23 239.89 129.42
  A 1.18 1.18 0.0 0 1 239.21 130.86
  C 237.11 131.71 236.70 129.69 235.85 128.49
  Q 235.49 127.98 234.87 127.98
  L 230.18 128.04
  A 0.96 0.96 0.0 0 0 229.34 128.57
  Z
  M 230.50 124.72
  A 0.36 0.36 0.0 0 0 230.85 125.18
  L 234.44 125.14
  A 0.36 0.36 0.0 0 0 234.78 124.68
  L 232.92 118.68
  A 0.36 0.36 0.0 0 0 232.23 118.69
  L 230.50 124.72
  Z"
/>
<path fill="#020303" d="
  M 284.28 117.83
  L 284.21 114.60
  Q 284.19 113.37 285.40 113.18
  L 286.21 113.06
  Q 287.57 112.84 287.58 114.21
  L 287.70 129.72
  A 1.16 1.16 0.0 0 1 286.16 130.82
  C 285.10 130.46 284.28 130.17 283.14 130.44
  C 272.56 132.96 274.29 114.06 283.59 118.29
  Q 284.30 118.62 284.28 117.83
  Z
  M 281.8856 127.9899
  A 3.66 2.30 89.6 0 0 284.1599 124.3139
  A 3.66 2.30 89.6 0 0 281.8344 120.6701
  A 3.66 2.30 89.6 0 0 279.5601 124.3461
  A 3.66 2.30 89.6 0 0 281.8856 127.9899
  Z"
/>
<rect fill="#020303" x="-1.71" y="-8.94" transform="translate(637.07,122.01) rotate(0.2)" width="3.42" height="17.88" rx="1.38"/>
<path fill="#020303" d="
  M 311.23 117.81
  L 311.20 114.02
  Q 311.20 113.25 311.98 113.23
  L 313.50 113.18
  Q 314.59 113.15 314.59 114.25
  L 314.55 129.96
  A 0.97 0.97 0.0 0 1 313.05 130.77
  Q 311.74 129.90 310.11 130.44
  C 300.19 133.72 300.85 114.01 310.49 118.29
  Q 311.23 118.62 311.23 117.81
  Z
  M 308.9353 128.0197
  A 3.71 2.24 89.3 0 0 311.1298 124.2826
  A 3.71 2.24 89.3 0 0 308.8447 120.6003
  A 3.71 2.24 89.3 0 0 306.6502 124.3374
  A 3.71 2.24 89.3 0 0 308.9353 128.0197
  Z"
/>
<path fill="#020303" d="
  M 358.23 123.10
  Q 357.78 118.85 358.04 114.03
  Q 358.07 113.27 358.83 113.26
  L 360.72 113.21
  Q 361.50 113.19 361.50 113.97
  L 361.51 129.75
  Q 361.51 130.23 361.08 130.45
  Q 358.78 131.62 357.35 129.30
  Q 354.93 125.38 352.50 121.18
  Q 351.47 119.39 351.48 121.45
  L 351.50 129.43
  A 1.54 1.53 -2.2 0 1 350.07 130.97
  L 349.77 130.99
  A 1.60 1.59 -2.0 0 1 348.06 129.40
  L 348.06 114.48
  Q 348.06 113.34 349.18 113.17
  C 350.70 112.93 351.87 113.69 352.55 115.00
  Q 354.93 119.59 357.70 123.31
  Q 358.34 124.17 358.23 123.10
  Z"
/>
<path fill="#020303" d="
  M 368.46 120.27
  L 373.12 120.39
  A 0.63 0.63 0.0 0 1 373.73 120.98
  L 373.84 122.53
  A 0.63 0.63 0.0 0 1 373.23 123.20
  L 368.37 123.39
  A 0.63 0.63 0.0 0 0 367.77 124.04
  L 367.90 127.18
  A 0.63 0.63 0.0 0 0 368.55 127.78
  L 375.84 127.52
  A 0.63 0.63 0.0 0 1 376.50 128.18
  L 376.43 130.05
  A 0.63 0.63 0.0 0 1 375.81 130.65
  L 365.01 130.74
  A 0.63 0.63 0.0 0 1 364.37 130.10
  L 364.38 113.86
  A 0.63 0.63 0.0 0 1 365.01 113.23
  L 375.83 113.29
  A 0.63 0.63 0.0 0 1 376.46 113.95
  L 376.37 115.75
  A 0.63 0.63 0.0 0 1 375.73 116.35
  L 368.53 116.23
  A 0.63 0.63 0.0 0 0 367.89 116.85
  L 367.85 119.63
  A 0.63 0.63 0.0 0 0 368.46 120.27
  Z"
/>
<path fill="#020303" d="
  M 391.3850 124.8713
  A 5.99 5.99 0.0 0 1 385.3846 130.8509
  L 384.3846 130.8491
  A 5.99 5.99 0.0 0 1 378.4051 124.8487
  L 378.4150 119.1687
  A 5.99 5.99 0.0 0 1 384.4154 113.1891
  L 385.4154 113.1909
  A 5.99 5.99 0.0 0 1 391.3949 119.1913
  L 391.3850 124.8713
  Z
  M 387.88 119.05
  A 2.84 2.84 0.0 0 0 385.04 116.21
  L 384.70 116.21
  A 2.84 2.84 0.0 0 0 381.86 119.05
  L 381.86 125.07
  A 2.84 2.84 0.0 0 0 384.70 127.91
  L 385.04 127.91
  A 2.84 2.84 0.0 0 0 387.88 125.07
  L 387.88 119.05
  Z"
/>
<path fill="#020303" d="
  M 419.44 128.62
  Q 418.90 130.55 416.94 131.01
  A 1.25 1.25 0.0 0 1 415.46 129.41
  L 420.32 113.99
  Q 420.56 113.24 421.36 113.24
  L 424.36 113.25
  Q 424.92 113.26 425.09 113.79
  Q 427.43 121.35 429.92 129.30
  Q 430.19 130.16 429.43 130.83
  A 1.26 1.25 -46.9 0 1 427.83 130.89
  Q 426.69 130.01 425.99 128.68
  A 1.28 1.25 -13.5 0 0 424.89 128.02
  L 420.28 127.99
  Q 419.61 127.99 419.44 128.62
  Z
  M 420.48 124.62
  A 0.36 0.36 0.0 0 0 420.82 125.09
  L 424.40 125.16
  A 0.36 0.36 0.0 0 0 424.76 124.70
  L 423.08 118.53
  A 0.36 0.36 0.0 0 0 422.39 118.52
  L 420.48 124.62
  Z"
/>
<rect fill="#020303" x="-1.80" y="-8.78" transform="translate(457.88,121.96) rotate(0.1)" width="3.60" height="17.56" rx="1.14"/>
<rect fill="#020303" x="-3.80" y="-1.26" transform="translate(500.05,114.80) rotate(5.8)" width="7.60" height="2.52" rx="0.72"/>
<path fill="#020303" d="
  M 530.01 124.49
  L 529.96 128.96
  A 0.35 0.31 -41.4 0 1 529.95 129.04
  Q 529.13 131.25 528.25 131.11
  Q 526.51 130.82 526.51 129.05
  L 526.51 113.77
  A 0.50 0.49 -0.6 0 1 527.00 113.28
  C 530.73 113.17 537.62 112.15 538.86 116.90
  C 540.39 122.77 535.47 124.42 530.86 123.76
  Q 530.02 123.64 530.01 124.49
  Z
  M 529.98 117.06
  L 530.00 120.22
  A 0.88 0.88 0.0 0 0 530.88 121.10
  L 532.02 121.09
  A 3.80 2.22 -0.2 0 0 535.81 118.86
  L 535.81 118.38
  A 3.80 2.22 -0.2 0 0 532.00 116.17
  L 530.86 116.18
  A 0.88 0.88 0.0 0 0 529.98 117.06
  Z"
/>
<path fill="#020303" d="
  M 246.31 117.51
  Q 247.58 117.71 248.69 118.39
  A 1.02 1.02 0.0 0 1 248.47 120.24
  L 246.45 120.88
  Q 245.92 121.05 245.93 121.60
  L 246.03 126.17
  A 1.49 1.48 16.7 0 0 246.67 127.35
  L 248.06 128.34
  A 1.39 1.38 -31.2 0 1 247.44 130.84
  Q 245.00 131.17 243.11 129.57
  A 1.24 1.20 20.4 0 1 242.68 128.67
  L 242.49 121.48
  Q 242.48 120.96 241.99 120.76
  Q 240.22 120.02 241.03 118.39
  Q 241.21 118.02 241.58 117.83
  Q 242.75 117.24 242.70 115.84
  Q 242.65 114.73 243.74 114.49
  Q 245.24 114.15 245.89 115.20
  Q 246.19 115.69 245.91 116.28
  Q 245.81 116.49 245.76 116.71
  Q 245.60 117.40 246.31 117.51
  Z"
/>
<rect fill="#ffffff" x="381.86" y="116.21" width="6.02" height="11.70" rx="2.84"/>
<path fill="#ffffff" d="
  M 529.98 117.06
  A 0.88 0.88 0.0 0 1 530.86 116.18
  L 532.00 116.17
  A 3.80 2.22 -0.2 0 1 535.81 118.38
  L 535.81 118.86
  A 3.80 2.22 -0.2 0 1 532.02 121.09
  L 530.88 121.10
  A 0.88 0.88 0.0 0 1 530.00 120.22
  L 529.98 117.06
  Z"
/>
<rect fill="#020303" x="-1.73" y="-6.71" transform="translate(252.74,124.25) rotate(0.4)" width="3.46" height="13.42" rx="1.66"/>
<rect fill="#020303" x="-1.80" y="-6.61" transform="translate(271.83,124.19) rotate(0.3)" width="3.60" height="13.22" rx="1.48"/>
<path fill="#020303" d="
  M 322.00 125.31
  Q 319.49 125.29 321.31 127.02
  Q 323.36 128.98 325.98 126.85
  Q 326.61 126.34 327.00 127.05
  L 327.77 128.44
  Q 328.08 128.98 327.58 129.36
  C 324.44 131.74 319.55 131.43 317.76 127.78
  Q 316.46 125.15 317.26 121.84
  C 318.09 118.40 321.99 116.71 325.14 118.13
  C 327.48 119.19 328.54 121.53 328.65 124.00
  A 1.29 1.29 0.0 0 1 327.35 125.35
  L 322.00 125.31
  Z
  M 321.16 123.22
  L 324.48 123.18
  A 0.42 0.42 0.0 0 0 324.89 122.75
  L 324.89 122.63
  A 1.94 1.91 89.3 0 0 322.95 120.72
  L 322.61 120.72
  A 1.94 1.91 89.3 0 0 320.73 122.69
  L 320.73 122.81
  A 0.42 0.42 0.0 0 0 321.16 123.22
  Z"
/>
<path fill="#020303" d="
  M 405.88 121.68
  L 408.30 122.23
  A 1.05 1.05 0.0 0 1 408.29 124.28
  L 405.86 124.81
  A 1.05 1.05 0.0 0 0 405.06 125.60
  L 404.51 128.02
  A 1.05 1.05 0.0 0 1 402.46 128.01
  L 401.93 125.58
  A 1.05 1.05 0.0 0 0 401.14 124.78
  L 398.72 124.23
  A 1.05 1.05 0.0 0 1 398.73 122.18
  L 401.16 121.65
  A 1.05 1.05 0.0 0 0 401.96 120.86
  L 402.51 118.44
  A 1.05 1.05 0.0 0 1 404.56 118.45
  L 405.09 120.88
  A 1.05 1.05 0.0 0 0 405.88 121.68
  Z"
/>
<rect fill="#020303" x="-1.79" y="-6.55" transform="translate(464.03,124.21) rotate(0.3)" width="3.58" height="13.10" rx="1.38"/>
<rect fill="#020303" x="-1.75" y="-6.75" transform="translate(617.94,124.24) rotate(-0.1)" width="3.50" height="13.50" rx="1.68"/>
<path fill="#020303" d="
  M 262.22 124.40
  Q 262.72 125.37 262.91 124.30
  L 263.73 119.77
  A 2.53 2.52 2.4 0 1 265.98 117.71
  L 266.47 117.67
  Q 268.55 117.48 267.85 119.45
  Q 266.29 123.83 264.71 129.17
  C 264.05 131.41 260.68 131.46 259.93 129.17
  Q 258.12 123.65 256.68 118.81
  Q 256.37 117.76 257.47 117.75
  L 259.23 117.72
  A 1.13 1.12 84.9 0 1 260.35 118.66
  Q 260.88 121.79 262.22 124.40
  Z"
/>
<path fill="#020303" d="
  M 296.59 123.11
  Q 297.63 123.01 297.23 122.04
  Q 297.02 121.52 296.66 121.13
  A 1.45 1.44 -33.4 0 0 294.98 120.79
  Q 293.65 121.40 292.19 121.97
  Q 291.00 122.44 290.23 121.40
  A 1.13 1.13 0.0 0 1 290.27 119.99
  C 293.54 116.04 301.13 117.08 300.87 123.26
  Q 300.73 126.51 300.97 129.35
  A 1.31 1.30 -80.8 0 1 299.16 130.66
  Q 297.57 129.97 295.82 130.52
  C 288.56 132.81 287.48 123.37 293.76 123.28
  Q 295.22 123.25 296.59 123.11
  Z
  M 297.4788 126.2455
  A 2.28 1.41 -13.3 0 0 294.9356 125.3978
  A 2.28 1.41 -13.3 0 0 293.0412 127.2945
  A 2.28 1.41 -13.3 0 0 295.5844 128.1422
  A 2.28 1.41 -13.3 0 0 297.4788 126.2455
  Z"
/>
<path fill="#020303" d="
  M 334.43 120.56
  Q 333.96 120.71 333.61 121.04
  Q 332.95 121.67 333.79 122.02
  C 335.65 122.79 340.21 123.74 340.73 125.96
  Q 341.58 129.59 337.68 130.61
  Q 333.55 131.70 330.34 128.66
  A 1.20 1.20 0.0 0 1 330.91 126.62
  C 333.52 126.05 334.24 129.10 337.09 127.97
  A 0.72 0.72 0.0 0 0 337.08 126.62
  Q 334.74 125.74 332.45 124.74
  C 329.68 123.53 329.40 120.06 332.20 118.57
  Q 336.12 116.49 339.63 119.24
  Q 340.49 119.92 340.67 120.95
  A 1.21 1.21 0.0 0 1 338.90 122.23
  L 336.15 120.72
  Q 335.32 120.27 334.43 120.56
  Z"
/>
<path fill="#020303" d="
  M 435.67 123.85
  Q 436.36 125.71 436.78 123.77
  L 437.73 119.37
  Q 438.06 117.83 439.63 117.75
  L 440.50 117.71
  Q 442.18 117.62 441.65 119.22
  Q 440.14 123.81 438.59 129.08
  C 437.82 131.70 434.38 131.31 433.59 128.83
  Q 431.95 123.64 430.53 119.04
  Q 430.12 117.71 431.51 117.72
  L 432.74 117.74
  Q 434.03 117.75 434.28 119.01
  Q 434.81 121.56 435.67 123.85
  Z"
/>
<path fill="#020303" d="
  M 449.50 123.06
  Q 450.38 123.06 450.17 122.19
  C 449.83 120.86 448.52 120.26 447.37 121.02
  Q 445.82 122.03 444.02 121.92
  A 1.10 1.10 0.0 0 1 443.15 120.25
  C 445.11 117.03 450.15 116.87 452.54 119.43
  C 454.61 121.67 453.61 126.53 453.89 129.50
  A 1.17 1.16 6.3 0 1 452.37 130.71
  Q 450.44 130.10 448.39 130.64
  C 445.84 131.32 442.31 130.39 442.46 127.10
  C 442.63 123.24 446.57 123.06 449.50 123.06
  Z
  M 450.2589 126.2574
  A 2.18 1.44 -13.6 0 0 447.8014 125.3704
  A 2.18 1.44 -13.6 0 0 446.0211 127.2826
  A 2.18 1.44 -13.6 0 0 448.4786 128.1696
  A 2.18 1.44 -13.6 0 0 450.2589 126.2574
  Z"
/>
<path fill="#020303" d="
  M 474.66 123.14
  Q 475.55 123.12 475.45 122.24
  C 475.29 120.66 473.90 120.29 472.72 121.06
  Q 471.14 122.09 469.37 122.01
  A 1.14 1.14 0.0 0 1 468.48 120.23
  Q 470.43 117.37 474.16 117.69
  C 477.82 118.01 479.17 120.28 479.07 123.79
  Q 479.00 126.51 479.08 129.24
  A 1.55 1.55 0.0 0 1 476.79 130.66
  Q 475.47 129.94 474.09 130.46
  C 471.89 131.30 468.17 130.72 467.79 127.83
  C 467.21 123.37 471.60 123.22 474.66 123.14
  Z
  M 475.6346 126.1203
  A 2.29 1.40 -15.7 0 0 473.0512 125.3922
  A 2.29 1.40 -15.7 0 0 471.2254 127.3597
  A 2.29 1.40 -15.7 0 0 473.8088 128.0878
  A 2.29 1.40 -15.7 0 0 475.6346 126.1203
  Z"
/>
<path fill="#020303" d="
  M 486.74 132.28
  A 0.47 0.47 0.0 0 0 486.67 131.50
  C 482.44 129.27 480.35 127.55 481.38 122.26
  C 482.45 116.77 489.65 116.13 492.33 120.79
  Q 492.87 121.72 492.03 122.39
  C 490.10 123.93 489.15 121.73 487.91 120.85
  C 486.65 119.97 485.30 121.09 484.96 122.36
  Q 484.16 125.26 485.73 127.40
  A 1.52 1.52 0.0 0 0 487.98 127.62
  L 489.62 126.13
  Q 490.08 125.71 490.69 125.83
  Q 491.50 125.99 492.09 126.59
  Q 492.56 127.06 492.35 127.69
  Q 491.75 129.47 489.67 130.18
  A 1.10 1.09 -15.8 0 0 488.96 131.45
  Q 489.17 132.38 490.18 132.38
  Q 560.67 132.41 639.02 132.42
  Q 639.97 132.42 640.23 133.33
  Q 640.27 133.48 640.25 133.64
  Q 640.16 134.47 639.32 134.47
  Q 563.50 134.50 491.28 134.48
  Q 489.69 134.48 488.17 135.06
  C 486.38 135.73 484.90 134.49 483.03 134.49
  Q 353.90 134.48 225.00 134.49
  A 0.63 0.63 0.0 0 1 224.39 133.72
  L 224.50 133.26
  Q 224.69 132.43 225.54 132.43
  Q 342.80 132.33 460.30 132.42
  C 468.72 132.43 477.16 132.19 486.01 132.51
  Q 486.41 132.53 486.74 132.28
  Z"
/>
<path fill="#020303" d="
  M 501.15 122.99
  Q 502.21 122.80 501.77 121.81
  Q 501.45 121.10 500.63 120.78
  A 1.47 1.44 -44.0 0 0 499.60 120.77
  L 496.14 122.07
  A 1.15 1.15 0.0 0 1 494.64 120.63
  Q 495.08 119.27 496.45 118.57
  C 500.44 116.52 505.48 118.07 505.42 123.23
  Q 505.39 126.50 505.41 129.66
  A 1.14 1.13 11.1 0 1 503.84 130.71
  Q 502.03 129.97 500.06 130.59
  C 493.33 132.71 491.90 123.49 498.09 123.30
  Q 499.74 123.25 501.15 122.99
  Z
  M 501.9513 126.1721
  A 2.31 1.40 -15.0 0 0 499.3577 125.4177
  A 2.31 1.40 -15.0 0 0 497.4887 127.3679
  A 2.31 1.40 -15.0 0 0 500.0823 128.1223
  A 2.31 1.40 -15.0 0 0 501.9513 126.1721
  Z"
/>
<path fill="#020303" d="
  M 513.3067 130.9498
  A 6.69 5.99 89.6 0 1 507.2701 124.3018
  A 6.69 5.99 89.6 0 1 513.2133 117.5702
  A 6.69 5.99 89.6 0 1 519.2499 124.2182
  A 6.69 5.99 89.6 0 1 513.3067 130.9498
  Z
  M 513.2636 127.9500
  A 3.67 2.46 90.1 0 0 515.7300 124.2843
  A 3.67 2.46 90.1 0 0 513.2764 120.6100
  A 3.67 2.46 90.1 0 0 510.8100 124.2757
  A 3.67 2.46 90.1 0 0 513.2636 127.9500
  Z"
/>
<path fill="#020303" d="
  M 544.73 122.85
  L 544.62 129.16
  Q 544.59 130.92 542.84 130.88
  L 542.52 130.87
  A 1.46 1.46 0.0 0 1 541.09 129.40
  L 541.13 118.67
  Q 541.14 118.08 541.68 117.86
  Q 542.54 117.50 543.45 117.99
  A 2.57 2.48 -29.6 0 0 544.59 118.28
  Q 546.00 118.30 547.52 117.75
  Q 548.97 117.22 548.83 118.76
  L 548.72 119.93
  A 1.57 1.57 0.0 0 1 547.58 121.30
  L 545.47 121.89
  A 1.02 1.01 -7.8 0 0 544.73 122.85
  Z"
/>
<path fill="#020303" d="
  M 554.28 125.38
  A 0.63 0.62 -13.8 0 0 553.73 126.28
  C 554.99 128.81 557.19 128.18 559.00 126.87
  Q 559.88 126.24 560.31 127.24
  L 560.73 128.20
  Q 561.07 128.98 560.38 129.49
  C 556.97 132.00 551.73 131.18 550.38 126.77
  C 548.96 122.18 551.16 117.09 556.59 117.73
  Q 559.23 118.05 560.53 120.36
  Q 561.28 121.69 561.60 123.30
  Q 561.99 125.22 560.03 125.26
  L 554.28 125.38
  Z
  M 554.25 123.32
  L 557.33 123.13
  A 0.46 0.46 0.0 0 0 557.76 122.65
  L 557.75 122.50
  A 1.99 1.88 86.5 0 0 555.75 120.63
  L 555.51 120.64
  A 1.99 1.88 86.5 0 0 553.76 122.74
  L 553.77 122.89
  A 0.46 0.46 0.0 0 0 554.25 123.32
  Z"
/>
<path fill="#020303" d="
  M 569.58 128.14
  Q 569.94 128.02 570.22 127.77
  Q 570.94 127.11 570.07 126.67
  C 568.08 125.68 564.65 125.13 563.64 123.02
  C 560.87 117.23 572.88 115.66 573.66 121.05
  A 1.17 1.17 0.0 0 1 571.93 122.24
  L 569.46 120.86
  Q 568.68 120.42 567.79 120.50
  Q 567.11 120.55 566.72 120.97
  Q 566.20 121.54 566.86 121.93
  Q 568.74 123.06 571.03 123.58
  C 574.09 124.29 575.11 128.64 572.09 130.06
  Q 567.90 132.03 564.24 129.47
  Q 563.36 128.86 563.26 127.89
  A 1.39 1.39 0.0 0 1 565.39 126.58
  L 567.39 127.86
  Q 568.42 128.52 569.58 128.14
  Z"
/>
<path fill="#020303" d="
  M 580.19 125.32
  A 0.82 0.82 0.0 0 0 579.50 126.57
  C 580.85 128.81 582.98 127.96 584.72 126.92
  A 0.87 0.87 0.0 0 1 585.96 127.28
  L 586.42 128.22
  Q 586.81 129.00 586.09 129.51
  C 582.01 132.38 576.73 130.80 575.77 125.61
  C 574.03 116.29 586.53 114.36 587.37 124.07
  A 1.10 1.09 87.1 0 1 586.30 125.26
  L 580.19 125.32
  Z
  M 579.91 123.25
  L 583.01 123.17
  A 0.45 0.45 0.0 0 0 583.45 122.71
  L 583.45 122.58
  A 1.94 1.88 88.6 0 0 581.52 120.69
  L 581.28 120.69
  A 1.94 1.88 88.6 0 0 579.45 122.68
  L 579.45 122.81
  A 0.45 0.45 0.0 0 0 579.91 123.25
  Z"
/>
<path fill="#020303" d="
  M 596.29 121.37
  A 1.63 1.63 0.0 0 0 594.05 120.92
  Q 593.01 121.60 592.95 122.91
  Q 592.82 126.00 592.90 129.13
  Q 592.94 130.86 591.22 130.81
  L 590.77 130.80
  A 1.42 1.42 0.0 0 1 589.39 129.39
  L 589.34 118.66
  A 0.93 0.93 0.0 0 1 590.32 117.73
  Q 591.08 117.77 591.81 118.06
  Q 592.72 118.42 593.66 118.13
  C 597.13 117.03 600.30 118.21 600.41 122.38
  Q 600.50 126.03 600.32 129.48
  Q 600.25 130.75 598.98 130.79
  L 598.54 130.80
  Q 596.90 130.85 596.96 129.21
  C 597.03 127.31 597.33 122.89 596.29 121.37
  Z"
/>
<path fill="#020303" d="
  M 606.51 121.88
  Q 605.31 124.58 606.77 127.15
  A 1.65 1.65 0.0 0 0 609.31 127.55
  L 610.56 126.41
  A 2.08 2.06 -54.9 0 1 612.76 126.02
  Q 614.32 126.66 613.60 128.07
  Q 612.87 129.52 610.90 130.33
  C 601.68 134.11 599.08 118.72 607.57 117.76
  Q 611.58 117.31 613.72 120.72
  Q 614.42 121.83 613.31 122.54
  Q 612.89 122.80 612.30 122.72
  Q 610.86 122.51 609.92 121.41
  C 608.98 120.30 607.14 120.46 606.51 121.88
  Z"
/>
<path fill="#020303" d="
  M 628.52 123.15
  Q 629.61 123.05 629.32 121.99
  C 628.90 120.52 627.29 120.38 626.22 121.14
  Q 624.89 122.08 623.35 122.02
  Q 621.60 121.94 622.38 120.37
  Q 623.91 117.29 628.37 117.80
  Q 632.92 118.32 632.96 123.04
  Q 632.99 126.52 632.79 129.92
  Q 632.76 130.52 632.23 130.78
  Q 631.25 131.27 630.39 130.44
  A 1.30 1.28 55.8 0 0 629.03 130.17
  C 626.30 131.24 622.61 131.33 621.81 127.89
  Q 621.40 126.11 622.53 124.73
  C 623.94 123.00 626.45 123.33 628.52 123.15
  Z
  M 629.5887 126.1919
  A 2.30 1.44 -14.3 0 0 627.0043 125.3646
  A 2.30 1.44 -14.3 0 0 625.1313 127.3281
  A 2.30 1.44 -14.3 0 0 627.7157 128.1554
  A 2.30 1.44 -14.3 0 0 629.5887 126.1919
  Z"
/>
<path fill="#ffffff" d="
  M 230.50 124.72
  L 232.23 118.69
  A 0.36 0.36 0.0 0 1 232.92 118.68
  L 234.78 124.68
  A 0.36 0.36 0.0 0 1 234.44 125.14
  L 230.85 125.18
  A 0.36 0.36 0.0 0 1 230.50 124.72
  Z"
/>
<path fill="#ffffff" d="
  M 420.48 124.62
  L 422.39 118.52
  A 0.36 0.36 0.0 0 1 423.08 118.53
  L 424.76 124.70
  A 0.36 0.36 0.0 0 1 424.40 125.16
  L 420.82 125.09
  A 0.36 0.36 0.0 0 1 420.48 124.62
  Z"
/>
<ellipse fill="#ffffff" cx="0.00" cy="0.00" transform="translate(308.89,124.31) rotate(89.3)" rx="3.71" ry="2.24"/>
<ellipse fill="#ffffff" cx="0.00" cy="0.00" transform="translate(513.27,124.28) rotate(90.1)" rx="3.67" ry="2.46"/>
<path fill="#ffffff" d="
  M 554.25 123.32
  A 0.46 0.46 0.0 0 1 553.77 122.89
  L 553.76 122.74
  A 1.99 1.88 86.5 0 1 555.51 120.64
  L 555.75 120.63
  A 1.99 1.88 86.5 0 1 557.75 122.50
  L 557.76 122.65
  A 0.46 0.46 0.0 0 1 557.33 123.13
  L 554.25 123.32
  Z"
/>
<ellipse fill="#ffffff" cx="0.00" cy="0.00" transform="translate(281.86,124.33) rotate(89.6)" rx="3.66" ry="2.30"/>
<path fill="#ffffff" d="
  M 321.16 123.22
  A 0.42 0.42 0.0 0 1 320.73 122.81
  L 320.73 122.69
  A 1.94 1.91 89.3 0 1 322.61 120.72
  L 322.95 120.72
  A 1.94 1.91 89.3 0 1 324.89 122.63
  L 324.89 122.75
  A 0.42 0.42 0.0 0 1 324.48 123.18
  L 321.16 123.22
  Z"
/>
<path fill="#ffffff" d="
  M 579.91 123.25
  A 0.45 0.45 0.0 0 1 579.45 122.81
  L 579.45 122.68
  A 1.94 1.88 88.6 0 1 581.28 120.69
  L 581.52 120.69
  A 1.94 1.88 88.6 0 1 583.45 122.58
  L 583.45 122.71
  A 0.45 0.45 0.0 0 1 583.01 123.17
  L 579.91 123.25
  Z"
/>
<ellipse fill="#ffffff" cx="0.00" cy="0.00" transform="translate(448.14,126.77) rotate(-13.6)" rx="2.18" ry="1.44"/>
<ellipse fill="#ffffff" cx="0.00" cy="0.00" transform="translate(473.43,126.74) rotate(-15.7)" rx="2.29" ry="1.40"/>
<ellipse fill="#ffffff" cx="0.00" cy="0.00" transform="translate(627.36,126.76) rotate(-14.3)" rx="2.30" ry="1.44"/>
<ellipse fill="#ffffff" cx="0.00" cy="0.00" transform="translate(295.26,126.77) rotate(-13.3)" rx="2.28" ry="1.41"/>
<ellipse fill="#ffffff" cx="0.00" cy="0.00" transform="translate(499.72,126.77) rotate(-15.0)" rx="2.31" ry="1.40"/>
</svg>
