<svg xmlns="http://www.w3.org/2000/svg" viewBox="0 0 915.9 915.9"><defs><style>.cls-1{fill:#eb651c;}.cls-2{fill:#fff;}</style></defs><g id="Camada_2" data-name="Camada 2"><g id="Camada_1-2" data-name="Camada 1"><path class="cls-1" d="M705.9,0H210C94.5,0,0,94.5,0,210V705.9c0,115.5,94.5,210,210,210H705.9c115.5,0,210-94.5,210-210V210C915.9,94.5,821.4,0,705.9,0ZM827.1,568.1C770.65,637.3,710,683.05,635,683.05c-52,0-87.5-31.1-87.5-87.5,0-41.85,15.85-78,37.45-129.35L436.6,658A39.29,39.29,0,0,1,400,672.85l-4.65-.65a39.25,39.25,0,0,1-33.2-45.45l34.45-203.7L311,567c-53.25,86.85-90.65,116.65-146.45,116.65-17.8,0-36.3-3-51.6-12.65-14.35-9-24.7-24.25-29.15-40.5-.55-2-1-4-1.4-6.1-3.05-16.7-1-38,11.25-50.9,17.4-18.25,50.4-12.5,58.4,12.1,1.55,4.75,2,9.85,3.75,14.55,5.55,15.15,24.25,14.3,36.1,7.45,9.15-5.3,16.6-13.4,23.2-21.65a303.13,303.13,0,0,0,22.25-32.1L421.9,251.05a39.28,39.28,0,0,1,33.55-18.8H460A39.24,39.24,0,0,1,498.55,279L449.9,530.85l215.2-283.1a39.18,39.18,0,0,1,40.95-14.3c23.75,6,35.25,31.2,26.2,53.95L628.05,549.25c-5.1,12-7,21.55-7,29.8,0,20.9,14,33.6,36.15,33.6,28.1,0,70-29.65,117.5-87.65a33.92,33.92,0,0,1,52.4,43.1Z"/><path class="cls-2" d="M827.1,568.1C770.65,637.3,710,683.05,635,683.05c-52,0-87.5-31.1-87.5-87.5,0-41.85,15.85-78,37.45-129.35L436.6,658A39.29,39.29,0,0,1,400,672.85l-4.65-.65a39.25,39.25,0,0,1-33.2-45.45l34.45-203.7L311,567c-53.25,86.85-90.65,116.65-146.45,116.65-17.8,0-36.3-3-51.6-12.65-14.35-9-24.7-24.25-29.15-40.5-.55-2-1-4-1.4-6.1-3.05-16.7-1-38,11.25-50.9,17.4-18.25,50.4-12.5,58.4,12.1,1.55,4.75,2,9.85,3.75,14.55,5.55,15.15,24.25,14.3,36.1,7.45,9.15-5.3,16.6-13.4,23.2-21.65a303.13,303.13,0,0,0,22.25-32.1L421.9,251.05a39.28,39.28,0,0,1,33.55-18.8H460A39.24,39.24,0,0,1,498.55,279L449.9,530.85l215.2-283.1a39.18,39.18,0,0,1,40.95-14.3c23.75,6,35.25,31.2,26.2,53.95L628.05,549.25c-5.1,12-7,21.55-7,29.8,0,20.9,14,33.6,36.15,33.6,28.1,0,70-29.65,117.5-87.65a33.92,33.92,0,0,1,52.4,43.1Z"/></g></g></svg>