<svg xmlns="http://www.w3.org/2000/svg" viewBox="0 0 2579.42 485.67"><defs><style>.cls-1{fill:#eb651c;}</style></defs><g id="Camada_2" data-name="Camada 2"><g id="Camada_1-2" data-name="Camada 1"><path class="cls-1" d="M2473.61,393c-17.22,14.23-37.24,21.66-54.6,21.66-37.4,0-53.89-21.56-53.89-50.09,0-8.25,4.44-23.46,6.34-28.54,138.85-93.83,208-187,208-257.41,0-50.72-25.36-78.62-69.11-78.62-64.67,0-105.25,51.36-152.8,169.28l-34.87,90c-5.72,15-11.17,29.86-15.75,44.39-54.18,73.35-100.34,111-131.95,111-17.75,0-29.17-10.78-29.17-30.44,0-8.93,3.94-23.54,9.36-38.44a35.54,35.54,0,0,0-18.45-44.47l-5.88-2.71a35.48,35.48,0,0,0-44.46,12.59c-38,57.42-90.1,103.18-117.83,103.47a17.35,17.35,0,0,1-9.22-2.55c-40.39-24.6,68.12-147.72,125.62-147.72a43.18,43.18,0,0,1,18.07,3.49c9.78,4.42,20.92,4.65,30.41-.37l2.74-1.46c26-13.77,25.14-51.74-1.73-63.69C2121.55,196.65,2107,194,2090,194c-60.87,0-134.3,51-177.48,114.24a370.54,370.54,0,0,1-23.68,31.64C1846.63,389.4,1811,414.66,1785,414.66c-17.12,0-28.54-10.78-28.54-30.44,0-8.88,1.91-19.65,7-33l40.61-101.73a35.87,35.87,0,0,0-33.32-49.17h-1.86a35.74,35.74,0,0,0-32.7,21.18c-47,106.06-123.36,193.13-157.87,193.13-10.78,0-17.75-7-17.75-19,0-6.34,2.53-13.31,5.7-22.19l49.48-123.91a35.87,35.87,0,0,0-33.31-49.18h0a35.87,35.87,0,0,0-33.37,22.7l-9.89,25.06c-19,48.19-47.56,92.2-84.71,128.31-26.87,26.12-48.14,38.24-64.43,38.24-20.92,0-26.62-17.12-26.62-45.66,0-31.7,6.34-72.27,6.34-103.34,0-47.55-24.73-72.92-61.51-72.92-40.57,0-78,27.9-111,66.58l3.32-8.59c9-23.32-3.62-46.7-28.4-50a36.22,36.22,0,0,0-38.55,22.44L1121,254.86c-17.86,44.7-44.52,85.54-79.29,118.84-28.36,27.17-52.84,41-72,41-17.75,0-29.17-10.78-29.17-30.44,0-8.93,3.94-23.54,9.36-38.44a35.55,35.55,0,0,0-18.46-44.48l-5.86-2.7a35.49,35.49,0,0,0-44.47,12.59c-38,57.42-90.09,103.17-117.82,103.47a17.36,17.36,0,0,1-9.23-2.55C713.69,387.52,822.2,264.39,879.7,264.39a43.18,43.18,0,0,1,18.07,3.49c9.78,4.42,20.92,4.65,30.4-.37l2.75-1.46c26-13.77,25.14-51.74-1.73-63.69-12.86-5.71-27.43-8.35-44.42-8.35C825,194,753,243.21,709.58,304.87a439.57,439.57,0,0,1-28.22,36.52c-42.45,48.52-79.67,73.27-105.32,73.27-22.19,0-36.14-12.68-36.14-33.61,0-8.24,1.9-17.75,7-29.8l104.29-262c9.18-23.07-2.68-48.2-26.84-53.91a39.29,39.29,0,0,0-40.42,14.43L368.72,332.87,417.39,81a39.26,39.26,0,0,0-38.55-46.71h-4.56a39.25,39.25,0,0,0-33.53,18.83l-175.56,288c-9.39,15.42-18.72,30.93-29.9,45.15-6.93,8.81-14.74,17.7-24.56,23.37-11.83,6.82-30.54,7.69-36.1-7.47-1.73-4.71-2.19-9.8-3.74-14.57-8-24.6-41-30.31-58.38-12.1C.24,388.34-1.79,409.73,1.25,426.41q.57,3.09,1.39,6.12C7.07,448.75,17.44,464,31.79,473c15.29,9.58,33.81,12.65,51.61,12.65,55.79,0,93.2-29.8,146.46-116.67l85.59-143.92L281,428.78a39.26,39.26,0,0,0,33.21,45.42l4.67.66A39.24,39.24,0,0,0,355.41,460L503.76,268.2c-21.55,51.35-37.4,87.49-37.4,129.34,0,56.43,35.5,87.5,87.49,87.5,44.83,0,84.56-16.39,121.35-44.36,10.15,28.4,36.09,43.09,70.72,43.09,46.28,0,87.49-26,124.9-62.77,9.51,41.21,31.07,64,76.08,64,38.73,0,72.63-12.07,104.06-33.13a36.67,36.67,0,0,0,35.15,26.15h0a36.7,36.7,0,0,0,32.47-19.54c26.83-50.91,53.21-89.76,87.61-132.63,40.58-50.08,60.24-61.5,71.65-61.5,8.87,0,14,7,14,21.56,0,26-6.34,57.06-6.34,92.56,0,69.12,29.8,106.53,85,106.53,44.21,0,81.89-17.34,118-48.05,8.13,31.24,31.51,46.78,69.61,46.78,44.39,0,90-27.27,127.45-67.21,5.7,38.68,29.8,68.48,77.34,68.48,44.28,0,82.52-16,117.92-43.32,10.41,27.73,36.16,42,70.37,42,46.28,0,87.5-26,124.9-62.77,9.51,41.21,31.07,64,76.08,64,57.34,0,104.12-26.41,147.93-69.41,13.1,42.58,48.16,68.77,107.56,68.77,48.37,0,84.68-15.61,112.38-40.19a34.54,34.54,0,0,0-1.82-53.08C2505,380.86,2486.45,382.38,2473.61,393Zm-41.92-212.94c31.07-78.61,48.82-109.68,66.57-109.68,7,0,12,3.8,12,14,0,30.43-42.48,86.22-95.1,137Z"/></g></g></svg>