<?xml version="1.0" encoding="UTF-8" standalone="no"?>
<!DOCTYPE svg PUBLIC "-//W3C//DTD SVG 1.1//EN" "http://www.w3.org/Graphics/SVG/1.1/DTD/svg11.dtd">
<svg xmlns="http://www.w3.org/2000/svg" version="1.1" viewBox="0.00 0.00 844.00 186.00">
<g stroke-width="2.00" fill="none" stroke-linecap="butt">
<path stroke="#de80b3" vector-effect="non-scaling-stroke" d="
  M 829.98 27.86
  A 0.60 0.60 0.0 0 0 829.38 27.26
  L 13.12 27.26
  A 0.60 0.60 0.0 0 0 12.52 27.86
  L 12.52 88.42
  A 0.60 0.60 0.0 0 0 13.12 89.02
  L 829.38 89.02
  A 0.60 0.60 0.0 0 0 829.98 88.42
  L 829.98 27.86"
/>
<path stroke="#818081" vector-effect="non-scaling-stroke" d="
  M 461.48 131.28
  L 434.52 131.26
  Q 433.77 131.26 434.13 130.60
  C 437.50 124.50 437.37 117.18 434.12 111.14
  Q 433.33 109.66 431.66 109.55
  L 431.26 109.52
  Q 429.58 109.41 430.27 110.95
  Q 434.62 120.61 430.57 130.34
  A 1.48 1.47 -78.6 0 1 429.21 131.25
  L 186.44 131.24
  A 1.41 1.40 -11.3 0 1 185.14 130.38
  Q 180.94 120.06 185.69 110.36
  A 0.57 0.57 0.0 0 0 185.25 109.54
  C 184.15 109.41 182.71 109.54 182.02 110.54
  C 177.92 116.45 178.28 124.89 181.67 130.78
  Q 182.08 131.49 181.26 131.48
  L 179.89 131.45
  Q 178.98 131.44 178.96 132.36
  L 178.95 132.87
  Q 178.93 133.55 179.62 133.55
  L 662.74 133.55
  A 0.76 0.76 0.0 0 0 663.48 132.97
  Q 663.75 131.85 662.76 131.43
  Q 662.01 131.11 661.15 131.37
  A 0.30 0.30 0.0 0 1 660.80 130.95
  Q 666.03 120.96 661.04 111.18
  A 3.02 3.02 0.0 0 0 658.58 109.54
  L 657.99 109.50
  Q 656.37 109.37 657.06 110.85
  Q 661.49 120.35 657.36 130.52
  Q 657.17 130.98 656.67 131.01
  Q 652.50 131.26 648.21 131.26
  Q 556.84 131.23 466.68 131.27
  A 1.24 1.24 0.0 0 1 465.55 130.54
  Q 461.29 120.87 465.66 110.92
  Q 466.30 109.48 464.72 109.38
  Q 464.46 109.37 464.21 109.44
  Q 462.53 109.93 461.68 111.51
  C 458.50 117.42 458.66 124.65 461.85 130.67
  Q 462.17 131.28 461.48 131.28"
/>
<path stroke="#818081" vector-effect="non-scaling-stroke" d="
  M 587.9963 112.4149
  A 2.11 1.95 -3.4 0 0 585.7744 110.5934
  A 2.11 1.95 -3.4 0 0 583.7837 112.6651
  A 2.11 1.95 -3.4 0 0 586.0056 114.4866
  A 2.11 1.95 -3.4 0 0 587.9963 112.4149"
/>
<path stroke="#818081" vector-effect="non-scaling-stroke" d="
  M 193.09 119.74
  Q 193.06 118.22 193.90 119.48
  Q 196.56 123.44 198.90 127.77
  C 199.72 129.30 201.39 130.13 203.01 129.20
  Q 203.55 128.89 203.54 128.28
  L 203.47 112.72
  Q 203.46 110.96 201.70 111.05
  Q 201.57 111.05 201.45 111.05
  Q 199.98 111.00 199.96 112.47
  L 199.85 121.47
  Q 199.84 122.82 199.15 121.66
  Q 196.40 117.01 193.84 112.63
  Q 192.59 110.49 190.08 111.28
  Q 189.54 111.45 189.54 112.02
  L 189.52 128.20
  Q 189.52 129.64 190.95 129.55
  L 191.95 129.48
  Q 193.30 129.40 193.27 128.05
  L 193.09 119.74"
/>
<path stroke="#818081" vector-effect="non-scaling-stroke" d="
  M 256.59 116.78
  C 249.63 113.00 247.46 121.92 249.33 126.70
  C 251.17 131.40 255.60 128.39 258.81 129.59
  A 1.42 1.41 -79.6 0 0 260.72 128.27
  L 260.73 112.77
  Q 260.73 111.06 259.02 111.00
  L 258.53 110.98
  Q 257.25 110.94 257.24 112.22
  L 257.18 116.43
  A 0.40 0.40 0.0 0 1 256.59 116.78"
/>
<path stroke="#818081" vector-effect="non-scaling-stroke" d="
  M 473.61 119.36
  Q 473.69 118.00 474.34 119.20
  Q 476.58 123.28 479.14 127.57
  C 480.09 129.16 481.05 129.99 482.92 129.51
  A 1.30 1.28 -7.4 0 0 483.90 128.25
  L 483.75 112.09
  A 1.06 1.05 86.6 0 0 482.58 111.05
  L 481.26 111.20
  Q 480.34 111.30 480.30 112.23
  Q 480.06 117.17 480.39 121.14
  Q 480.56 123.05 479.52 121.44
  Q 476.86 117.32 474.03 112.50
  Q 472.83 110.47 470.57 111.23
  Q 469.93 111.45 469.92 112.12
  L 469.82 127.89
  Q 469.81 129.55 471.46 129.67
  L 471.87 129.70
  Q 473.54 129.82 473.49 128.15
  Q 473.38 123.46 473.61 119.36"
/>
<path stroke="#818081" vector-effect="non-scaling-stroke" d="
  M 546.6229 114.5803
  A 2.46 1.26 133.3 0 0 549.2270 113.6541
  A 2.46 1.26 133.3 0 0 549.9971 110.9997
  A 2.46 1.26 133.3 0 0 547.3930 111.9259
  A 2.46 1.26 133.3 0 0 546.6229 114.5803"
/>
<path stroke="#818081" vector-effect="non-scaling-stroke" d="
  M 645.24 117.09
  Q 645.43 115.74 646.30 114.66
  A 1.37 1.36 50.6 0 1 648.58 114.89
  Q 649.70 117.08 652.32 116.85
  A 1.16 1.16 0.0 0 0 653.34 115.37
  Q 652.13 111.14 647.61 111.13
  C 643.04 111.12 641.54 113.85 641.71 117.93
  C 641.89 122.27 640.57 128.38 646.37 129.54
  C 650.87 130.43 654.16 127.35 653.52 122.66
  Q 652.80 117.31 646.42 118.26
  Q 645.04 118.47 645.24 117.09"
/>
<path stroke="#818081" vector-effect="non-scaling-stroke" d="
  M 286.93 122.45
  C 291.11 122.74 296.30 122.27 295.87 116.55
  C 295.37 109.94 288.07 111.16 283.47 111.22
  A 0.72 0.72 0.0 0 0 282.76 111.94
  L 282.75 128.05
  A 1.53 1.51 -69.3 0 0 283.25 129.18
  Q 284.04 129.90 284.80 129.70
  Q 286.54 129.26 286.47 127.46
  L 286.28 123.08
  Q 286.25 122.40 286.93 122.45"
/>
<path stroke="#818081" vector-effect="non-scaling-stroke" d="
  M 421.22 121.37
  Q 419.49 121.89 417.94 121.66
  A 0.63 0.62 -73.8 0 1 417.47 120.79
  L 421.27 112.19
  Q 421.68 111.26 420.67 111.22
  L 418.85 111.14
  Q 418.04 111.10 417.67 111.83
  Q 414.84 117.38 412.85 123.06
  A 1.43 1.43 0.0 0 0 414.23 124.96
  L 420.70 124.83
  A 0.62 0.62 0.0 0 1 421.33 125.48
  L 421.21 128.20
  Q 421.19 128.78 421.68 129.08
  Q 422.98 129.88 424.33 129.32
  Q 424.78 129.13 424.82 128.65
  L 425.06 126.03
  Q 425.10 125.49 425.43 125.06
  L 426.35 123.85
  A 1.19 1.18 50.9 0 0 426.47 122.63
  Q 426.14 121.95 425.51 121.45
  Q 425.10 121.11 425.04 120.59
  L 424.80 118.58
  Q 424.74 118.06 424.23 117.95
  Q 422.99 117.69 421.77 118.20
  A 0.96 0.96 0.0 0 0 421.21 119.32
  L 421.56 120.77
  Q 421.67 121.23 421.22 121.37"
/>
<path stroke="#818081" vector-effect="non-scaling-stroke" d="
  M 537.05 115.23
  A 0.76 0.76 0.0 0 1 537.84 114.46
  L 541.51 114.57
  A 0.76 0.76 0.0 0 0 542.29 113.85
  L 542.38 112.05
  A 0.76 0.76 0.0 0 0 541.62 111.25
  L 529.27 111.25
  A 0.76 0.76 0.0 0 0 528.51 112.01
  L 528.53 113.79
  A 0.76 0.76 0.0 0 0 529.30 114.54
  L 532.73 114.46
  A 0.76 0.76 0.0 0 1 533.51 115.22
  L 533.51 128.89
  A 0.76 0.76 0.0 0 0 534.26 129.65
  L 536.34 129.66
  A 0.76 0.76 0.0 0 0 537.11 128.90
  L 537.05 115.23"
/>
<path stroke="#818081" vector-effect="non-scaling-stroke" d="
  M 505.47 115.52
  L 505.21 113.41
  Q 505.10 112.48 504.16 112.40
  L 503.32 112.33
  Q 501.95 112.21 502.06 113.58
  Q 502.24 115.74 500.43 116.71
  A 1.08 1.08 0.0 0 0 500.38 118.58
  C 502.62 119.94 501.92 124.40 501.90 126.60
  C 501.87 129.57 504.36 129.54 506.51 129.61
  C 507.99 129.65 508.66 128.10 507.65 127.03
  Q 506.95 126.28 505.97 125.97
  A 0.82 0.81 -82.5 0 1 505.40 125.22
  L 505.28 120.20
  Q 505.27 119.63 505.79 119.39
  Q 506.27 119.17 506.80 119.22
  A 1.32 1.31 23.8 0 0 507.89 118.80
  Q 508.61 118.02 508.10 116.88
  Q 507.84 116.28 507.18 116.26
  L 506.27 116.24
  Q 505.56 116.23 505.47 115.52"
/>
<path stroke="#818081" vector-effect="non-scaling-stroke" d="
  M 225.82 119.26
  L 227.50 118.83
  Q 228.07 118.68 228.23 118.11
  Q 228.41 117.41 227.93 116.93
  Q 227.49 116.48 226.85 116.48
  Q 226.18 116.47 225.67 116.07
  Q 225.28 115.76 225.23 115.27
  L 225.03 113.18
  Q 224.97 112.57 224.36 112.55
  L 222.32 112.49
  A 0.73 0.72 85.7 0 0 221.59 113.34
  Q 221.96 115.56 220.36 116.42
  A 1.42 1.42 0.0 0 0 220.30 118.89
  C 221.05 119.34 221.51 119.87 221.52 120.78
  Q 221.57 123.49 221.50 126.28
  C 221.42 129.34 224.69 130.14 227.02 129.31
  A 1.31 1.30 -39.5 0 0 227.25 126.96
  L 225.75 126.07
  A 1.35 1.34 -74.8 0 1 225.09 124.91
  L 225.11 120.18
  Q 225.11 119.45 225.82 119.26"
/>
<path stroke="#818081" vector-effect="non-scaling-stroke" d="
  M 450.44 120.03
  A 1.10 1.10 0.0 0 1 449.60 119.20
  L 449.01 116.57
  A 1.10 1.10 0.0 0 0 446.86 116.57
  L 446.28 119.21
  A 1.10 1.10 0.0 0 1 445.45 120.05
  L 442.82 120.64
  A 1.10 1.10 0.0 0 0 442.82 122.79
  L 445.46 123.37
  A 1.10 1.10 0.0 0 1 446.30 124.20
  L 446.89 126.83
  A 1.10 1.10 0.0 0 0 449.04 126.83
  L 449.62 124.19
  A 1.10 1.10 0.0 0 1 450.45 123.35
  L 453.08 122.76
  A 1.10 1.10 0.0 0 0 453.08 120.61
  L 450.44 120.03"
/>
<path stroke="#818081" vector-effect="non-scaling-stroke" d="
  M 546.56 123.93
  L 552.56 124.12
  A 1.14 1.14 0.0 0 0 553.72 123.15
  C 554.69 116.34 546.03 113.04 542.76 118.79
  C 541.00 121.89 541.54 127.76 545.50 129.18
  Q 548.79 130.35 552.28 128.71
  A 1.25 1.25 0.0 0 0 552.88 128.14
  Q 553.39 127.21 553.03 126.58
  Q 552.33 125.34 551.02 125.88
  Q 549.65 126.44 548.24 126.51
  A 2.11 1.56 39.4 0 1 547.85 126.49
  Q 546.02 126.18 545.74 124.92
  Q 545.52 123.90 546.56 123.93"
/>
<path stroke="#818081" vector-effect="non-scaling-stroke" d="
  M 218.2753 121.4837
  A 5.58 5.58 0.0 0 0 212.5892 116.0118
  L 211.6094 116.0307
  A 5.58 5.58 0.0 0 0 206.1375 121.7168
  L 206.1847 124.1763
  A 5.58 5.58 0.0 0 0 211.8708 129.6482
  L 212.8506 129.6293
  A 5.58 5.58 0.0 0 0 218.3225 123.9432
  L 218.2753 121.4837"
/>
<path stroke="#818081" vector-effect="non-scaling-stroke" d="
  M 236.92 121.43
  C 235.14 121.68 233.14 121.47 231.54 122.38
  C 227.27 124.79 230.17 131.16 235.07 129.48
  Q 237.11 128.78 238.99 129.54
  A 1.67 1.67 0.0 0 0 241.28 127.92
  C 241.16 125.19 241.91 120.44 240.36 118.14
  C 238.10 114.80 232.69 115.61 230.22 118.26
  A 1.06 1.06 0.0 0 0 229.99 119.32
  Q 230.40 120.60 231.76 120.28
  Q 233.49 119.88 235.25 119.31
  Q 236.25 118.98 237.06 119.66
  Q 237.37 119.92 237.54 120.31
  A 0.80 0.80 0.0 0 1 236.92 121.43"
/>
<path stroke="#818081" vector-effect="non-scaling-stroke" d="
  M 267.94 123.96
  Q 270.54 123.85 273.12 124.14
  Q 275.98 124.45 275.23 121.68
  L 274.77 119.93
  Q 274.03 117.19 271.34 116.29
  C 262.27 113.24 259.93 128.04 268.21 129.54
  Q 271.20 130.09 273.92 128.53
  A 1.29 1.29 0.0 0 0 274.53 127.12
  L 274.37 126.50
  A 1.15 1.14 72.5 0 0 272.84 125.70
  Q 271.26 126.33 269.61 126.47
  Q 268.47 126.56 267.63 125.83
  Q 267.24 125.50 267.15 124.92
  Q 266.99 123.99 267.94 123.96"
/>
<path stroke="#818081" vector-effect="non-scaling-stroke" d="
  M 302.61 120.24
  L 304.97 119.62
  Q 305.39 119.51 305.62 119.15
  Q 306.32 118.06 306.01 116.83
  A 1.23 1.23 0.0 0 0 304.24 116.05
  Q 302.02 117.23 299.73 116.14
  A 1.22 1.22 0.0 0 0 297.98 117.25
  L 298.01 128.07
  Q 298.01 129.90 299.82 129.62
  L 300.19 129.56
  Q 301.91 129.29 301.71 127.56
  Q 301.31 124.21 301.82 121.11
  Q 301.93 120.42 302.61 120.24"
/>
<path stroke="#818081" vector-effect="non-scaling-stroke" d="
  M 319.3655 121.5390
  A 5.52 5.52 0.0 0 0 313.8263 116.0383
  L 312.8063 116.0418
  A 5.52 5.52 0.0 0 0 307.3056 121.5811
  L 307.3145 124.1410
  A 5.52 5.52 0.0 0 0 312.8537 129.6417
  L 313.8737 129.6382
  A 5.52 5.52 0.0 0 0 319.3744 124.0989
  L 319.3655 121.5390"
/>
<path stroke="#818081" vector-effect="non-scaling-stroke" d="
  M 325.56 125.40
  Q 325.01 123.52 325.27 121.35
  C 325.52 119.27 327.69 118.39 329.16 119.88
  Q 329.95 120.69 330.93 121.27
  A 1.56 1.56 0.0 0 0 333.29 119.92
  Q 333.29 118.89 332.43 118.04
  Q 328.80 114.45 324.25 116.87
  C 321.39 118.39 321.28 122.30 321.80 125.07
  Q 322.69 129.76 327.88 129.65
  Q 332.16 129.55 333.30 125.92
  A 0.88 0.88 0.0 0 0 333.03 124.98
  Q 332.47 124.50 331.67 124.52
  C 329.31 124.61 329.08 127.23 326.40 126.28
  Q 325.76 126.06 325.56 125.40"
/>
<path stroke="#818081" vector-effect="non-scaling-stroke" d="
  M 340.01 123.94
  L 346.07 124.03
  A 1.31 1.31 0.0 0 0 347.38 122.49
  Q 347.11 120.92 346.59 119.38
  C 345.48 116.11 341.33 115.18 338.52 116.54
  C 334.81 118.34 334.58 123.28 336.07 126.65
  C 337.43 129.73 341.62 130.17 344.46 129.23
  Q 345.53 128.88 346.19 127.98
  Q 346.87 127.06 346.47 126.48
  Q 345.66 125.31 344.36 125.88
  Q 342.15 126.85 339.96 126.17
  A 1.06 1.06 0.0 0 1 339.22 125.17
  L 339.21 124.74
  A 0.79 0.78 -0.3 0 1 340.01 123.94"
/>
<path stroke="#818081" vector-effect="non-scaling-stroke" d="
  M 355.01 127.01
  A 1.73 1.72 -35.3 0 1 353.74 126.80
  L 351.80 125.62
  Q 350.81 125.01 349.76 125.49
  Q 349.24 125.73 349.21 126.12
  Q 349.07 127.74 350.39 128.56
  C 352.80 130.06 359.21 130.65 359.98 126.62
  Q 360.64 123.20 357.52 122.15
  Q 355.57 121.49 353.35 120.87
  Q 352.63 120.67 352.71 119.93
  Q 352.76 119.47 353.12 119.18
  Q 353.86 118.59 354.72 118.97
  Q 355.89 119.48 357.15 120.13
  Q 360.67 121.93 359.37 118.29
  C 358.14 114.85 348.70 114.91 349.16 120.60
  C 349.40 123.55 353.71 124.34 355.89 125.09
  Q 357.07 125.50 356.18 126.38
  Q 355.70 126.85 355.01 127.01"
/>
<path stroke="#818081" vector-effect="non-scaling-stroke" d="
  M 369.02 125.63
  Q 369.07 126.64 367.92 127.01
  A 1.45 1.44 -39.8 0 1 366.75 126.91
  L 363.67 125.22
  Q 362.16 124.39 361.92 126.09
  Q 361.77 127.20 362.97 128.39
  A 2.81 2.67 -9.6 0 0 363.83 128.97
  C 372.40 132.64 377.78 122.76 366.32 121.10
  A 1.03 1.03 0.0 0 1 365.69 119.41
  C 366.27 118.73 367.35 118.57 368.08 119.11
  Q 369.32 120.01 370.68 120.60
  Q 372.17 121.24 372.42 119.64
  Q 372.63 118.25 369.77 116.59
  Q 368.82 116.05 367.74 115.98
  C 365.60 115.83 363.15 116.49 362.13 118.66
  C 360.35 122.47 365.58 124.52 368.32 124.87
  Q 368.99 124.95 369.02 125.63"
/>
<path stroke="#818081" vector-effect="non-scaling-stroke" d="
  M 386.8933 121.6860
  A 5.52 5.52 0.0 0 0 381.4803 116.0610
  L 380.4604 116.0415
  A 5.52 5.52 0.0 0 0 374.8355 121.4545
  L 374.7867 123.9940
  A 5.52 5.52 0.0 0 0 380.1997 129.6190
  L 381.2196 129.6385
  A 5.52 5.52 0.0 0 0 386.8445 124.2255
  L 386.8933 121.6860"
/>
<path stroke="#818081" vector-effect="non-scaling-stroke" d="
  M 498.5877 121.5395
  A 5.52 5.52 0.0 0 0 493.0581 116.0291
  L 492.0581 116.0309
  A 5.52 5.52 0.0 0 0 486.5477 121.5605
  L 486.5523 124.1605
  A 5.52 5.52 0.0 0 0 492.0819 129.6709
  L 493.0819 129.6691
  A 5.52 5.52 0.0 0 0 498.5923 124.1395
  L 498.5877 121.5395"
/>
<path stroke="#818081" vector-effect="non-scaling-stroke" d="
  M 517.90 120.46
  A 0.70 0.69 -10.8 0 1 517.25 121.41
  C 513.77 121.40 508.63 122.32 510.05 127.17
  C 510.68 129.35 513.23 129.99 515.25 129.53
  Q 517.77 128.95 520.23 129.54
  A 1.04 1.03 7.0 0 0 521.50 128.55
  Q 521.55 124.82 521.50 120.69
  C 521.48 119.00 520.60 117.38 518.99 116.70
  Q 513.94 114.56 510.37 118.45
  A 1.03 1.03 0.0 0 0 511.00 120.16
  Q 512.92 120.42 514.66 119.52
  C 515.84 118.91 517.36 119.12 517.90 120.46"
/>
<path stroke="#818081" vector-effect="non-scaling-stroke" d="
  M 563.10 129.59
  Q 566.91 129.06 567.56 125.70
  A 0.81 0.81 0.0 0 0 567.18 124.86
  C 564.17 123.01 563.42 128.10 560.31 126.05
  Q 559.91 125.79 559.79 125.34
  Q 559.23 123.29 559.54 121.09
  C 559.77 119.48 561.46 118.71 562.88 119.41
  Q 563.38 119.65 563.69 120.10
  Q 564.85 121.79 566.79 121.19
  Q 567.51 120.96 567.50 120.21
  C 567.36 113.65 553.17 114.29 555.98 125.01
  Q 557.39 130.38 563.10 129.59"
/>
<path stroke="#818081" vector-effect="non-scaling-stroke" d="
  M 574.99 119.29
  Q 575.33 119.19 575.68 119.20
  Q 577.61 119.23 577.64 121.16
  L 577.73 128.36
  A 1.27 1.26 -3.0 0 0 579.11 129.60
  L 580.06 129.52
  Q 581.47 129.40 581.45 127.99
  Q 581.40 124.06 581.26 120.40
  C 581.12 116.31 577.72 115.20 574.39 116.51
  Q 573.61 116.82 572.80 116.55
  L 571.22 116.04
  A 1.04 1.04 0.0 0 0 569.86 117.03
  L 569.92 128.29
  Q 569.92 129.66 571.29 129.72
  L 571.60 129.73
  Q 573.51 129.81 573.51 127.90
  L 573.51 121.24
  Q 573.51 119.70 574.99 119.29"
/>
<path stroke="#818081" vector-effect="non-scaling-stroke" d="
  M 587.7496 117.2833
  A 1.20 1.20 0.0 0 0 586.5517 116.0812
  L 585.1717 116.0788
  A 1.20 1.20 0.0 0 0 583.9696 117.2767
  L 583.9504 128.2767
  A 1.20 1.20 0.0 0 0 585.1483 129.4788
  L 586.5283 129.4812
  A 1.20 1.20 0.0 0 0 587.7304 128.2833
  L 587.7496 117.2833"
/>
<path stroke="#818081" vector-effect="non-scaling-stroke" d="
  M 594.29 125.25
  Q 593.45 123.19 594.18 120.63
  A 2.04 2.04 0.0 0 1 597.46 119.64
  Q 598.46 120.49 599.61 121.20
  A 1.52 1.52 0.0 0 0 601.89 119.57
  C 601.40 117.40 598.94 116.07 596.97 115.99
  Q 591.32 115.74 590.33 121.08
  C 588.28 132.16 602.40 131.26 601.75 125.63
  A 1.43 1.42 69.3 0 0 599.52 124.62
  L 597.31 126.14
  A 2.02 2.01 -28.5 0 1 594.29 125.25"
/>
<path stroke="#818081" vector-effect="non-scaling-stroke" d="
  M 611.21 121.35
  C 608.79 121.68 606.06 121.35 604.38 123.49
  Q 603.31 124.84 603.69 126.64
  C 604.34 129.72 607.39 130.12 609.98 129.39
  Q 611.97 128.84 613.79 129.65
  A 1.07 1.07 0.0 0 0 615.29 128.74
  Q 615.55 124.54 615.31 120.27
  C 615.23 118.88 614.42 117.59 613.22 116.94
  Q 608.84 114.56 604.65 117.83
  A 1.38 1.38 0.0 0 0 604.56 119.93
  Q 605.30 120.61 606.43 120.23
  Q 607.97 119.71 609.41 119.30
  Q 610.61 118.95 611.40 119.93
  L 611.65 120.24
  A 0.69 0.69 0.0 0 1 611.21 121.35"
/>
<path stroke="#818081" vector-effect="non-scaling-stroke" d="
  M 628.87 119.36
  A 0.63 0.63 0.0 0 1 627.76 119.20
  Q 626.51 115.60 623.34 116.17
  A 0.78 0.78 0.0 0 0 622.84 117.38
  L 626.05 122.09
  A 1.37 1.36 -44.8 0 1 626.04 123.63
  L 623.10 127.92
  A 1.08 1.08 0.0 0 0 623.96 129.62
  Q 626.98 129.69 627.91 126.73
  A 0.75 0.74 -53.8 0 1 629.23 126.52
  L 630.64 128.52
  Q 631.48 129.73 632.94 129.63
  L 633.46 129.60
  Q 635.23 129.49 634.22 128.03
  L 631.14 123.59
  A 1.23 1.23 0.0 0 1 631.13 122.20
  L 634.39 117.36
  Q 635.20 116.15 633.74 116.18
  L 632.23 116.22
  A 2.35 2.34 16.8 0 0 630.41 117.19
  L 628.87 119.36"
/>
<path stroke="#818081" vector-effect="non-scaling-stroke" d="
  M 400.58 126.43
  Q 401.21 127.30 401.82 128.20
  A 3.17 3.00 71.1 0 0 404.47 129.59
  Q 404.73 129.59 404.96 129.49
  Q 406.26 128.97 405.47 127.82
  L 402.56 123.59
  A 1.26 1.25 44.8 0 1 402.55 122.17
  L 405.73 117.46
  Q 406.47 116.37 405.16 116.18
  Q 404.12 116.02 403.10 116.33
  A 3.01 3.00 -83.7 0 0 401.37 117.72
  L 400.39 119.44
  Q 399.96 120.20 399.49 119.46
  L 398.13 117.31
  A 2.44 2.42 72.3 0 0 395.96 116.18
  L 394.96 116.23
  Q 393.47 116.30 394.32 117.53
  L 397.59 122.22
  A 1.15 1.15 0.0 0 1 397.58 123.53
  L 394.58 127.79
  Q 393.60 129.17 395.25 129.57
  L 395.70 129.68
  A 2.37 2.36 22.1 0 0 398.29 128.59
  L 399.55 126.48
  Q 400.03 125.67 400.58 126.43"
/>
<path stroke="#818081" vector-effect="non-scaling-stroke" d="
  M 431.9133 148.0093
  A 5.50 5.50 0.0 0 0 426.4037 142.5189
  L 425.1237 142.5211
  A 5.50 5.50 0.0 0 0 419.6333 148.0307
  L 419.6467 155.6707
  A 5.50 5.50 0.0 0 0 425.1563 161.1611
  L 426.4363 161.1589
  A 5.50 5.50 0.0 0 0 431.9267 155.6493
  L 431.9133 148.0093"
/>
<path stroke="#818081" vector-effect="non-scaling-stroke" d="
  M 413.45 147.00
  L 413.41 160.00
  A 0.84 0.84 0.0 0 0 414.25 160.84
  L 416.23 160.82
  A 0.81 0.81 0.0 0 0 417.03 160.02
  L 417.10 143.66
  A 0.91 0.90 -86.8 0 0 416.30 142.76
  C 414.27 142.53 410.02 142.80 410.07 145.71
  A 0.82 0.82 0.0 0 0 410.96 146.51
  L 412.75 146.36
  Q 413.45 146.30 413.45 147.00"
/>
<path stroke="#de80b3" vector-effect="non-scaling-stroke" d="
  M 360.6957 47.5637
  A 1.35 1.35 0.0 0 0 359.3410 46.2184
  L 358.4010 46.2217
  A 1.35 1.35 0.0 0 0 357.0558 47.5764
  L 357.1243 67.1963
  A 1.35 1.35 0.0 0 0 358.4790 68.5416
  L 359.4190 68.5383
  A 1.35 1.35 0.0 0 0 360.7642 67.1836
  L 360.6957 47.5637"
/>
<path stroke="#de80b3" vector-effect="non-scaling-stroke" d="
  M 324.10 59.53
  A 1.16 1.16 0.0 0 1 324.89 61.27
  C 323.28 63.92 319.10 64.12 318.73 60.70
  C 318.45 58.06 317.92 52.91 320.22 51.44
  C 323.07 49.62 324.20 52.89 325.81 54.29
  A 1.45 1.45 0.0 0 0 328.12 53.71
  Q 328.52 52.67 327.68 51.25
  Q 325.51 47.59 321.23 47.92
  C 314.15 48.46 314.68 55.28 315.08 60.42
  C 315.52 66.16 322.14 68.43 326.36 64.88
  C 328.55 63.03 328.53 59.51 328.20 56.91
  A 0.76 0.75 85.7 0 0 327.44 56.25
  L 322.43 56.25
  Q 321.36 56.25 321.31 57.32
  L 321.27 58.12
  A 1.03 1.02 6.4 0 0 322.12 59.17
  L 324.10 59.53"
/>
<path stroke="#de80b3" vector-effect="non-scaling-stroke" d="
  M 334.42 51.17
  Q 334.93 51.16 334.93 51.67
  L 334.97 65.10
  Q 334.98 66.23 336.10 66.24
  L 337.58 66.26
  Q 338.67 66.27 338.67 65.17
  L 338.69 52.25
  A 1.29 1.28 8.9 0 1 340.37 51.03
  Q 341.43 51.37 342.50 51.29
  A 1.17 1.17 0.0 0 0 343.56 50.29
  L 343.78 48.76
  Q 343.90 47.87 343.00 47.87
  L 331.08 47.94
  Q 329.85 47.94 329.93 49.17
  L 329.98 49.94
  Q 330.07 51.30 331.44 51.26
  L 334.42 51.17"
/>
<path stroke="#de80b3" vector-effect="non-scaling-stroke" d="
  M 349.5040 49.0630
  A 1.35 1.35 0.0 0 0 348.1563 47.7107
  L 347.3763 47.7093
  A 1.35 1.35 0.0 0 0 346.0240 49.0570
  L 345.9960 65.0770
  A 1.35 1.35 0.0 0 0 347.3437 66.4293
  L 348.1237 66.4307
  A 1.35 1.35 0.0 0 0 349.4760 65.0830
  L 349.5040 49.0630"
/>
<path stroke="#de80b3" vector-effect="non-scaling-stroke" d="
  M 372.24 55.92
  Q 372.72 56.05 372.97 56.48
  Q 375.42 60.77 378.03 65.17
  C 378.74 66.35 380.13 66.47 381.36 66.16
  Q 382.24 65.94 382.24 65.03
  L 382.24 49.48
  Q 382.24 47.72 380.48 47.76
  L 380.09 47.78
  Q 378.50 47.82 378.50 49.41
  L 378.53 57.54
  Q 378.54 59.86 377.41 57.84
  Q 374.97 53.50 372.28 49.14
  Q 371.12 47.25 369.13 47.81
  A 1.22 1.22 0.0 0 0 368.24 48.97
  L 368.24 65.52
  A 0.76 0.76 0.0 0 0 369.02 66.28
  L 371.22 66.23
  Q 371.90 66.22 371.90 65.53
  L 371.82 56.25
  A 0.33 0.33 0.0 0 1 372.24 55.92"
/>
<path stroke="#de80b3" vector-effect="non-scaling-stroke" d="
  M 434.97 53.41
  C 434.13 53.18 433.29 52.68 432.40 52.74
  C 425.17 53.21 425.60 67.20 433.05 66.24
  Q 435.99 65.86 438.67 66.15
  A 0.66 0.65 3.1 0 0 439.40 65.50
  L 439.32 49.29
  A 1.53 1.53 0.0 0 0 437.79 47.76
  L 437.12 47.76
  Q 435.84 47.75 435.81 49.03
  L 435.72 52.86
  Q 435.71 53.62 434.97 53.41"
/>
<path stroke="#de80b3" vector-effect="non-scaling-stroke" d="
  M 470.32 59.51
  A 1.26 1.26 0.0 0 1 471.12 61.50
  C 468.93 64.45 465.31 63.61 465.10 60.05
  Q 464.89 56.68 465.18 53.83
  C 465.43 51.40 468.57 49.53 470.30 52.01
  Q 471.11 53.18 471.92 54.12
  Q 472.65 54.96 473.70 54.59
  Q 473.95 54.50 474.19 54.28
  A 1.81 1.81 0.0 0 0 474.60 52.13
  Q 471.81 46.51 465.70 48.30
  Q 461.84 49.44 461.51 54.25
  C 461.16 59.57 460.79 66.39 468.18 66.44
  C 473.99 66.48 475.46 61.68 474.65 56.81
  Q 474.56 56.21 473.95 56.22
  L 468.75 56.26
  Q 467.77 56.27 467.77 57.25
  L 467.76 58.15
  Q 467.76 59.07 468.66 59.22
  L 470.32 59.51"
/>
<path stroke="#de80b3" vector-effect="non-scaling-stroke" d="
  M 403.75 61.94
  L 403.75 56.83
  Q 403.75 56.14 404.42 56.00
  L 405.69 55.72
  Q 406.28 55.59 406.54 55.04
  Q 406.81 54.46 406.64 53.87
  Q 406.51 53.42 406.05 53.31
  L 404.70 52.99
  Q 404.06 52.84 403.93 52.19
  L 403.53 50.01
  A 1.11 1.10 6.0 0 0 402.86 49.19
  Q 402.03 48.85 401.20 49.14
  Q 400.48 49.38 400.50 50.14
  Q 400.56 52.56 398.49 53.65
  Q 397.61 54.11 398.31 54.82
  L 399.66 56.19
  A 1.89 1.88 -69.8 0 1 400.19 57.34
  C 400.42 59.82 400.05 62.23 400.59 64.72
  Q 400.72 65.35 401.30 65.63
  Q 403.50 66.67 405.71 66.25
  Q 406.57 66.08 406.56 65.21
  Q 406.54 63.32 404.57 62.94
  Q 403.75 62.78 403.75 61.94"
/>
<path stroke="#de80b3" vector-effect="non-scaling-stroke" d="
  M 391.0076 66.5893
  A 6.99 6.27 89.2 0 0 397.1794 59.5125
  A 6.99 6.27 89.2 0 0 390.8124 52.6107
  A 6.99 6.27 89.2 0 0 384.6406 59.6875
  A 6.99 6.27 89.2 0 0 391.0076 66.5893"
/>
<path stroke="#de80b3" vector-effect="non-scaling-stroke" d="
  M 415.02 58.27
  C 405.88 57.41 406.43 67.95 413.75 66.31
  Q 416.22 65.75 418.85 66.27
  A 0.92 0.92 0.0 0 0 419.95 65.36
  Q 419.90 60.90 419.72 56.99
  Q 419.61 54.59 417.54 53.60
  Q 412.69 51.26 408.91 54.97
  A 1.09 1.09 0.0 0 0 409.00 56.61
  Q 409.70 57.16 410.59 56.96
  Q 412.28 56.58 413.91 55.91
  C 414.86 55.53 415.85 56.05 416.08 57.05
  A 1.00 0.99 -4.2 0 1 415.02 58.27"
/>
<path stroke="#de80b3" vector-effect="non-scaling-stroke" d="
  M 448.2153 66.5933
  A 7.00 6.23 87.5 0 0 454.1341 59.3283
  A 7.00 6.23 87.5 0 0 447.6047 52.6067
  A 7.00 6.23 87.5 0 0 441.6859 59.8717
  A 7.00 6.23 87.5 0 0 448.2153 66.5933"
/>
<path stroke="#de80b3" vector-effect="non-scaling-stroke" d="
  M 482.05 56.92
  C 483.73 56.20 486.12 56.50 485.41 53.59
  A 1.23 1.23 0.0 0 0 483.61 52.82
  Q 481.54 54.02 479.45 52.84
  A 1.38 1.37 -75.0 0 0 477.40 54.03
  L 477.28 64.80
  Q 477.26 66.10 478.55 66.24
  L 479.48 66.35
  Q 480.90 66.50 480.92 65.07
  L 481.01 58.49
  A 1.73 1.73 0.0 0 1 482.05 56.92"
/>
<path stroke="#de80b3" vector-effect="non-scaling-stroke" d="
  M 492.05 63.30
  Q 490.79 62.59 490.74 61.16
  Q 490.64 57.78 490.67 54.31
  A 1.49 1.49 0.0 0 0 489.29 52.81
  L 488.73 52.76
  Q 487.35 52.65 487.21 54.03
  Q 486.88 57.23 487.01 61.64
  C 487.22 68.63 493.25 65.42 497.14 66.22
  A 1.22 1.22 0.0 0 0 498.60 65.01
  L 498.46 54.46
  Q 498.44 52.97 496.95 52.95
  L 496.01 52.94
  A 1.23 1.23 0.0 0 0 494.77 54.27
  Q 495.11 58.27 494.68 61.75
  Q 494.50 63.25 493.06 63.48
  A 1.62 1.58 -34.1 0 1 492.05 63.30"
/>
<path stroke="#de80b3" vector-effect="non-scaling-stroke" d="
  M 504.83 66.52
  A 0.58 0.57 -85.0 0 1 505.59 65.88
  Q 510.97 67.80 512.81 62.93
  C 514.26 59.14 513.16 51.64 507.02 53.03
  Q 504.80 53.54 502.63 52.80
  A 1.04 1.04 0.0 0 0 501.26 53.79
  L 501.25 70.13
  A 0.98 0.98 0.0 0 0 502.12 71.10
  L 503.43 71.24
  Q 504.62 71.37 504.82 70.18
  Q 505.13 68.31 504.83 66.52"
/>
<path stroke="#de80b3" vector-effect="non-scaling-stroke" d="
  M 521.6781 66.5582
  A 6.97 6.25 88.7 0 0 527.7684 59.4482
  A 6.97 6.25 88.7 0 0 521.3619 52.6218
  A 6.97 6.25 88.7 0 0 515.2716 59.7318
  A 6.97 6.25 88.7 0 0 521.6781 66.5582"
/>
<path stroke="#de80b3" vector-effect="non-scaling-stroke" d="
  M 435.6903 58.1885
  A 2.14 2.14 0.0 0 0 433.5956 56.0041
  L 433.2756 55.9974
  A 2.14 2.14 0.0 0 0 431.0913 58.0922
  L 431.0297 61.0315
  A 2.14 2.14 0.0 0 0 433.1244 63.2159
  L 433.4444 63.2226
  A 2.14 2.14 0.0 0 0 435.6287 61.1278
  L 435.6903 58.1885"
/>
<path stroke="#de80b3" vector-effect="non-scaling-stroke" d="
  M 390.9033 63.3900
  A 3.82 2.54 90.1 0 0 393.4500 59.5744
  A 3.82 2.54 90.1 0 0 390.9167 55.7500
  A 3.82 2.54 90.1 0 0 388.3700 59.5656
  A 3.82 2.54 90.1 0 0 390.9033 63.3900"
/>
<path stroke="#de80b3" vector-effect="non-scaling-stroke" d="
  M 416.1745 61.2448
  A 2.32 1.58 -21.1 0 0 413.4412 60.6059
  A 2.32 1.58 -21.1 0 0 411.8455 62.9152
  A 2.32 1.58 -21.1 0 0 414.5788 63.5541
  A 2.32 1.58 -21.1 0 0 416.1745 61.2448"
/>
<path stroke="#de80b3" vector-effect="non-scaling-stroke" d="
  M 447.9932 63.4199
  A 3.80 2.60 89.5 0 0 450.5599 59.5973
  A 3.80 2.60 89.5 0 0 447.9268 55.8201
  A 3.80 2.60 89.5 0 0 445.3601 59.6427
  A 3.80 2.60 89.5 0 0 447.9932 63.4199"
/>
<path stroke="#de80b3" vector-effect="non-scaling-stroke" d="
  M 509.6428 58.1463
  A 2.14 2.14 0.0 0 0 507.5367 55.9730
  L 507.2167 55.9679
  A 2.14 2.14 0.0 0 0 505.0434 58.0741
  L 504.9972 61.0137
  A 2.14 2.14 0.0 0 0 507.1033 63.1870
  L 507.4233 63.1921
  A 2.14 2.14 0.0 0 0 509.5966 61.0859
  L 509.6428 58.1463"
/>
<path stroke="#de80b3" vector-effect="non-scaling-stroke" d="
  M 521.5400 63.3800
  A 3.78 2.66 90.0 0 0 524.2000 59.6000
  A 3.78 2.66 90.0 0 0 521.5400 55.8200
  A 3.78 2.66 90.0 0 0 518.8800 59.6000
  A 3.78 2.66 90.0 0 0 521.5400 63.3800"
/>
<path stroke="#818081" vector-effect="non-scaling-stroke" d="
  M 257.0095 121.3433
  A 2.09 2.09 0.0 0 0 254.9600 119.2136
  L 254.6601 119.2078
  A 2.09 2.09 0.0 0 0 252.5304 121.2573
  L 252.4705 124.3767
  A 2.09 2.09 0.0 0 0 254.5200 126.5064
  L 254.8199 126.5122
  A 2.09 2.09 0.0 0 0 256.9496 124.4627
  L 257.0095 121.3433"
/>
<path stroke="#818081" vector-effect="non-scaling-stroke" d="
  M 649.9873 122.9912
  A 1.89 1.89 0.0 0 0 648.0167 121.1855
  L 647.2374 121.2195
  A 1.89 1.89 0.0 0 0 645.4316 123.1901
  L 645.4927 124.5888
  A 1.89 1.89 0.0 0 0 647.4633 126.3945
  L 648.2426 126.3605
  A 1.89 1.89 0.0 0 0 650.0484 124.3899
  L 649.9873 122.9912"
/>
<path stroke="#818081" vector-effect="non-scaling-stroke" d="
  M 286.40 115.24
  L 286.35 118.80
  A 0.80 0.80 0.0 0 0 287.13 119.61
  L 289.15 119.64
  A 3.08 2.21 0.8 0 0 292.26 117.47
  L 292.27 116.73
  A 3.08 2.21 0.8 0 0 289.23 114.48
  L 287.21 114.45
  A 0.80 0.80 0.0 0 0 286.40 115.24"
/>
<path stroke="#818081" vector-effect="non-scaling-stroke" d="
  M 545.92 121.65
  L 549.94 121.51
  A 0.27 0.27 0.0 0 0 550.20 121.23
  L 550.19 121.07
  A 2.13 1.93 -2.0 0 0 548.00 119.22
  L 547.70 119.23
  A 2.13 1.93 -2.0 0 0 545.64 121.23
  L 545.64 121.39
  A 0.27 0.27 0.0 0 0 545.92 121.65"
/>
<path stroke="#818081" vector-effect="non-scaling-stroke" d="
  M 212.2534 126.6100
  A 3.76 2.61 90.1 0 0 214.8700 122.8546
  A 3.76 2.61 90.1 0 0 212.2666 119.0900
  A 3.76 2.61 90.1 0 0 209.6500 122.8454
  A 3.76 2.61 90.1 0 0 212.2534 126.6100"
/>
<path stroke="#818081" vector-effect="non-scaling-stroke" d="
  M 237.6306 124.6666
  A 2.33 1.59 -16.8 0 0 234.9404 123.8179
  A 2.33 1.59 -16.8 0 0 233.1694 126.0134
  A 2.33 1.59 -16.8 0 0 235.8596 126.8621
  A 2.33 1.59 -16.8 0 0 237.6306 124.6666"
/>
<path stroke="#818081" vector-effect="non-scaling-stroke" d="
  M 271.35 120.30
  Q 270.93 119.72 270.25 119.37
  Q 269.58 119.02 268.84 119.12
  Q 267.64 119.29 266.96 120.44
  Q 266.45 121.30 267.43 121.49
  Q 269.31 121.86 270.94 121.44
  Q 271.99 121.18 271.35 120.30"
/>
<path stroke="#818081" vector-effect="non-scaling-stroke" d="
  M 313.3363 126.5999
  A 3.77 2.61 89.6 0 0 315.9199 122.8118
  A 3.77 2.61 89.6 0 0 313.2837 119.0601
  A 3.77 2.61 89.6 0 0 310.7001 122.8482
  A 3.77 2.61 89.6 0 0 313.3363 126.5999"
/>
<path stroke="#818081" vector-effect="non-scaling-stroke" d="
  M 339.29 121.55
  L 343.13 121.63
  A 0.40 0.40 0.0 0 0 343.53 121.23
  L 343.54 121.12
  A 2.11 1.85 1.1 0 0 341.46 119.23
  L 341.04 119.23
  A 2.11 1.85 1.1 0 0 338.90 121.04
  L 338.90 121.15
  A 0.40 0.40 0.0 0 0 339.29 121.55"
/>
<path stroke="#818081" vector-effect="non-scaling-stroke" d="
  M 380.8229 126.6299
  A 3.77 2.57 89.5 0 0 383.3599 122.8376
  A 3.77 2.57 89.5 0 0 380.7571 119.0901
  A 3.77 2.57 89.5 0 0 378.2201 122.8824
  A 3.77 2.57 89.5 0 0 380.8229 126.6299"
/>
<path stroke="#818081" vector-effect="non-scaling-stroke" d="
  M 492.6222 126.6093
  A 3.76 2.60 88.9 0 0 495.1495 122.8001
  A 3.76 2.60 88.9 0 0 492.4778 119.0907
  A 3.76 2.60 88.9 0 0 489.9505 122.8999
  A 3.76 2.60 88.9 0 0 492.6222 126.6093"
/>
<path stroke="#818081" vector-effect="non-scaling-stroke" d="
  M 517.8950 124.6701
  A 2.32 1.56 -17.3 0 0 515.2161 123.8706
  A 2.32 1.56 -17.3 0 0 513.4650 126.0499
  A 2.32 1.56 -17.3 0 0 516.1439 126.8494
  A 2.32 1.56 -17.3 0 0 517.8950 124.6701"
/>
<path stroke="#818081" vector-effect="non-scaling-stroke" d="
  M 611.7404 124.6400
  A 2.29 1.54 -17.8 0 0 609.0892 123.8737
  A 2.29 1.54 -17.8 0 0 607.3796 126.0400
  A 2.29 1.54 -17.8 0 0 610.0308 126.8063
  A 2.29 1.54 -17.8 0 0 611.7404 124.6400"
/>
<path stroke="#818081" vector-effect="non-scaling-stroke" d="
  M 428.2368 148.0414
  A 2.33 2.33 0.0 0 0 425.8986 145.7195
  L 425.5986 145.7206
  A 2.33 2.33 0.0 0 0 423.2768 148.0587
  L 423.3032 155.6386
  A 2.33 2.33 0.0 0 0 425.6414 157.9605
  L 425.9414 157.9594
  A 2.33 2.33 0.0 0 0 428.2632 155.6213
  L 428.2368 148.0414"
/>
</g>
<path fill="#ffffff" d="
  M 0.00 0.00
  L 844.00 0.00
  L 844.00 186.00
  L 0.00 186.00
  L 0.00 0.00
  Z
  M 829.98 27.86
  A 0.60 0.60 0.0 0 0 829.38 27.26
  L 13.12 27.26
  A 0.60 0.60 0.0 0 0 12.52 27.86
  L 12.52 88.42
  A 0.60 0.60 0.0 0 0 13.12 89.02
  L 829.38 89.02
  A 0.60 0.60 0.0 0 0 829.98 88.42
  L 829.98 27.86
  Z
  M 461.48 131.28
  L 434.52 131.26
  Q 433.77 131.26 434.13 130.60
  C 437.50 124.50 437.37 117.18 434.12 111.14
  Q 433.33 109.66 431.66 109.55
  L 431.26 109.52
  Q 429.58 109.41 430.27 110.95
  Q 434.62 120.61 430.57 130.34
  A 1.48 1.47 -78.6 0 1 429.21 131.25
  L 186.44 131.24
  A 1.41 1.40 -11.3 0 1 185.14 130.38
  Q 180.94 120.06 185.69 110.36
  A 0.57 0.57 0.0 0 0 185.25 109.54
  C 184.15 109.41 182.71 109.54 182.02 110.54
  C 177.92 116.45 178.28 124.89 181.67 130.78
  Q 182.08 131.49 181.26 131.48
  L 179.89 131.45
  Q 178.98 131.44 178.96 132.36
  L 178.95 132.87
  Q 178.93 133.55 179.62 133.55
  L 662.74 133.55
  A 0.76 0.76 0.0 0 0 663.48 132.97
  Q 663.75 131.85 662.76 131.43
  Q 662.01 131.11 661.15 131.37
  A 0.30 0.30 0.0 0 1 660.80 130.95
  Q 666.03 120.96 661.04 111.18
  A 3.02 3.02 0.0 0 0 658.58 109.54
  L 657.99 109.50
  Q 656.37 109.37 657.06 110.85
  Q 661.49 120.35 657.36 130.52
  Q 657.17 130.98 656.67 131.01
  Q 652.50 131.26 648.21 131.26
  Q 556.84 131.23 466.68 131.27
  A 1.24 1.24 0.0 0 1 465.55 130.54
  Q 461.29 120.87 465.66 110.92
  Q 466.30 109.48 464.72 109.38
  Q 464.46 109.37 464.21 109.44
  Q 462.53 109.93 461.68 111.51
  C 458.50 117.42 458.66 124.65 461.85 130.67
  Q 462.17 131.28 461.48 131.28
  Z
  M 587.9963 112.4149
  A 2.11 1.95 -3.4 0 0 585.7744 110.5934
  A 2.11 1.95 -3.4 0 0 583.7837 112.6651
  A 2.11 1.95 -3.4 0 0 586.0056 114.4866
  A 2.11 1.95 -3.4 0 0 587.9963 112.4149
  Z
  M 193.09 119.74
  Q 193.06 118.22 193.90 119.48
  Q 196.56 123.44 198.90 127.77
  C 199.72 129.30 201.39 130.13 203.01 129.20
  Q 203.55 128.89 203.54 128.28
  L 203.47 112.72
  Q 203.46 110.96 201.70 111.05
  Q 201.57 111.05 201.45 111.05
  Q 199.98 111.00 199.96 112.47
  L 199.85 121.47
  Q 199.84 122.82 199.15 121.66
  Q 196.40 117.01 193.84 112.63
  Q 192.59 110.49 190.08 111.28
  Q 189.54 111.45 189.54 112.02
  L 189.52 128.20
  Q 189.52 129.64 190.95 129.55
  L 191.95 129.48
  Q 193.30 129.40 193.27 128.05
  L 193.09 119.74
  Z
  M 256.59 116.78
  C 249.63 113.00 247.46 121.92 249.33 126.70
  C 251.17 131.40 255.60 128.39 258.81 129.59
  A 1.42 1.41 -79.6 0 0 260.72 128.27
  L 260.73 112.77
  Q 260.73 111.06 259.02 111.00
  L 258.53 110.98
  Q 257.25 110.94 257.24 112.22
  L 257.18 116.43
  A 0.40 0.40 0.0 0 1 256.59 116.78
  Z
  M 473.61 119.36
  Q 473.69 118.00 474.34 119.20
  Q 476.58 123.28 479.14 127.57
  C 480.09 129.16 481.05 129.99 482.92 129.51
  A 1.30 1.28 -7.4 0 0 483.90 128.25
  L 483.75 112.09
  A 1.06 1.05 86.6 0 0 482.58 111.05
  L 481.26 111.20
  Q 480.34 111.30 480.30 112.23
  Q 480.06 117.17 480.39 121.14
  Q 480.56 123.05 479.52 121.44
  Q 476.86 117.32 474.03 112.50
  Q 472.83 110.47 470.57 111.23
  Q 469.93 111.45 469.92 112.12
  L 469.82 127.89
  Q 469.81 129.55 471.46 129.67
  L 471.87 129.70
  Q 473.54 129.82 473.49 128.15
  Q 473.38 123.46 473.61 119.36
  Z
  M 546.6229 114.5803
  A 2.46 1.26 133.3 0 0 549.2270 113.6541
  A 2.46 1.26 133.3 0 0 549.9971 110.9997
  A 2.46 1.26 133.3 0 0 547.3930 111.9259
  A 2.46 1.26 133.3 0 0 546.6229 114.5803
  Z
  M 645.24 117.09
  Q 645.43 115.74 646.30 114.66
  A 1.37 1.36 50.6 0 1 648.58 114.89
  Q 649.70 117.08 652.32 116.85
  A 1.16 1.16 0.0 0 0 653.34 115.37
  Q 652.13 111.14 647.61 111.13
  C 643.04 111.12 641.54 113.85 641.71 117.93
  C 641.89 122.27 640.57 128.38 646.37 129.54
  C 650.87 130.43 654.16 127.35 653.52 122.66
  Q 652.80 117.31 646.42 118.26
  Q 645.04 118.47 645.24 117.09
  Z
  M 286.93 122.45
  C 291.11 122.74 296.30 122.27 295.87 116.55
  C 295.37 109.94 288.07 111.16 283.47 111.22
  A 0.72 0.72 0.0 0 0 282.76 111.94
  L 282.75 128.05
  A 1.53 1.51 -69.3 0 0 283.25 129.18
  Q 284.04 129.90 284.80 129.70
  Q 286.54 129.26 286.47 127.46
  L 286.28 123.08
  Q 286.25 122.40 286.93 122.45
  Z
  M 421.22 121.37
  Q 419.49 121.89 417.94 121.66
  A 0.63 0.62 -73.8 0 1 417.47 120.79
  L 421.27 112.19
  Q 421.68 111.26 420.67 111.22
  L 418.85 111.14
  Q 418.04 111.10 417.67 111.83
  Q 414.84 117.38 412.85 123.06
  A 1.43 1.43 0.0 0 0 414.23 124.96
  L 420.70 124.83
  A 0.62 0.62 0.0 0 1 421.33 125.48
  L 421.21 128.20
  Q 421.19 128.78 421.68 129.08
  Q 422.98 129.88 424.33 129.32
  Q 424.78 129.13 424.82 128.65
  L 425.06 126.03
  Q 425.10 125.49 425.43 125.06
  L 426.35 123.85
  A 1.19 1.18 50.9 0 0 426.47 122.63
  Q 426.14 121.95 425.51 121.45
  Q 425.10 121.11 425.04 120.59
  L 424.80 118.58
  Q 424.74 118.06 424.23 117.95
  Q 422.99 117.69 421.77 118.20
  A 0.96 0.96 0.0 0 0 421.21 119.32
  L 421.56 120.77
  Q 421.67 121.23 421.22 121.37
  Z
  M 537.05 115.23
  A 0.76 0.76 0.0 0 1 537.84 114.46
  L 541.51 114.57
  A 0.76 0.76 0.0 0 0 542.29 113.85
  L 542.38 112.05
  A 0.76 0.76 0.0 0 0 541.62 111.25
  L 529.27 111.25
  A 0.76 0.76 0.0 0 0 528.51 112.01
  L 528.53 113.79
  A 0.76 0.76 0.0 0 0 529.30 114.54
  L 532.73 114.46
  A 0.76 0.76 0.0 0 1 533.51 115.22
  L 533.51 128.89
  A 0.76 0.76 0.0 0 0 534.26 129.65
  L 536.34 129.66
  A 0.76 0.76 0.0 0 0 537.11 128.90
  L 537.05 115.23
  Z
  M 505.47 115.52
  L 505.21 113.41
  Q 505.10 112.48 504.16 112.40
  L 503.32 112.33
  Q 501.95 112.21 502.06 113.58
  Q 502.24 115.74 500.43 116.71
  A 1.08 1.08 0.0 0 0 500.38 118.58
  C 502.62 119.94 501.92 124.40 501.90 126.60
  C 501.87 129.57 504.36 129.54 506.51 129.61
  C 507.99 129.65 508.66 128.10 507.65 127.03
  Q 506.95 126.28 505.97 125.97
  A 0.82 0.81 -82.5 0 1 505.40 125.22
  L 505.28 120.20
  Q 505.27 119.63 505.79 119.39
  Q 506.27 119.17 506.80 119.22
  A 1.32 1.31 23.8 0 0 507.89 118.80
  Q 508.61 118.02 508.10 116.88
  Q 507.84 116.28 507.18 116.26
  L 506.27 116.24
  Q 505.56 116.23 505.47 115.52
  Z
  M 225.82 119.26
  L 227.50 118.83
  Q 228.07 118.68 228.23 118.11
  Q 228.41 117.41 227.93 116.93
  Q 227.49 116.48 226.85 116.48
  Q 226.18 116.47 225.67 116.07
  Q 225.28 115.76 225.23 115.27
  L 225.03 113.18
  Q 224.97 112.57 224.36 112.55
  L 222.32 112.49
  A 0.73 0.72 85.7 0 0 221.59 113.34
  Q 221.96 115.56 220.36 116.42
  A 1.42 1.42 0.0 0 0 220.30 118.89
  C 221.05 119.34 221.51 119.87 221.52 120.78
  Q 221.57 123.49 221.50 126.28
  C 221.42 129.34 224.69 130.14 227.02 129.31
  A 1.31 1.30 -39.5 0 0 227.25 126.96
  L 225.75 126.07
  A 1.35 1.34 -74.8 0 1 225.09 124.91
  L 225.11 120.18
  Q 225.11 119.45 225.82 119.26
  Z
  M 450.44 120.03
  A 1.10 1.10 0.0 0 1 449.60 119.20
  L 449.01 116.57
  A 1.10 1.10 0.0 0 0 446.86 116.57
  L 446.28 119.21
  A 1.10 1.10 0.0 0 1 445.45 120.05
  L 442.82 120.64
  A 1.10 1.10 0.0 0 0 442.82 122.79
  L 445.46 123.37
  A 1.10 1.10 0.0 0 1 446.30 124.20
  L 446.89 126.83
  A 1.10 1.10 0.0 0 0 449.04 126.83
  L 449.62 124.19
  A 1.10 1.10 0.0 0 1 450.45 123.35
  L 453.08 122.76
  A 1.10 1.10 0.0 0 0 453.08 120.61
  L 450.44 120.03
  Z
  M 546.56 123.93
  L 552.56 124.12
  A 1.14 1.14 0.0 0 0 553.72 123.15
  C 554.69 116.34 546.03 113.04 542.76 118.79
  C 541.00 121.89 541.54 127.76 545.50 129.18
  Q 548.79 130.35 552.28 128.71
  A 1.25 1.25 0.0 0 0 552.88 128.14
  Q 553.39 127.21 553.03 126.58
  Q 552.33 125.34 551.02 125.88
  Q 549.65 126.44 548.24 126.51
  A 2.11 1.56 39.4 0 1 547.85 126.49
  Q 546.02 126.18 545.74 124.92
  Q 545.52 123.90 546.56 123.93
  Z
  M 218.2753 121.4837
  A 5.58 5.58 0.0 0 0 212.5892 116.0118
  L 211.6094 116.0307
  A 5.58 5.58 0.0 0 0 206.1375 121.7168
  L 206.1847 124.1763
  A 5.58 5.58 0.0 0 0 211.8708 129.6482
  L 212.8506 129.6293
  A 5.58 5.58 0.0 0 0 218.3225 123.9432
  L 218.2753 121.4837
  Z
  M 236.92 121.43
  C 235.14 121.68 233.14 121.47 231.54 122.38
  C 227.27 124.79 230.17 131.16 235.07 129.48
  Q 237.11 128.78 238.99 129.54
  A 1.67 1.67 0.0 0 0 241.28 127.92
  C 241.16 125.19 241.91 120.44 240.36 118.14
  C 238.10 114.80 232.69 115.61 230.22 118.26
  A 1.06 1.06 0.0 0 0 229.99 119.32
  Q 230.40 120.60 231.76 120.28
  Q 233.49 119.88 235.25 119.31
  Q 236.25 118.98 237.06 119.66
  Q 237.37 119.92 237.54 120.31
  A 0.80 0.80 0.0 0 1 236.92 121.43
  Z
  M 267.94 123.96
  Q 270.54 123.85 273.12 124.14
  Q 275.98 124.45 275.23 121.68
  L 274.77 119.93
  Q 274.03 117.19 271.34 116.29
  C 262.27 113.24 259.93 128.04 268.21 129.54
  Q 271.20 130.09 273.92 128.53
  A 1.29 1.29 0.0 0 0 274.53 127.12
  L 274.37 126.50
  A 1.15 1.14 72.5 0 0 272.84 125.70
  Q 271.26 126.33 269.61 126.47
  Q 268.47 126.56 267.63 125.83
  Q 267.24 125.50 267.15 124.92
  Q 266.99 123.99 267.94 123.96
  Z
  M 302.61 120.24
  L 304.97 119.62
  Q 305.39 119.51 305.62 119.15
  Q 306.32 118.06 306.01 116.83
  A 1.23 1.23 0.0 0 0 304.24 116.05
  Q 302.02 117.23 299.73 116.14
  A 1.22 1.22 0.0 0 0 297.98 117.25
  L 298.01 128.07
  Q 298.01 129.90 299.82 129.62
  L 300.19 129.56
  Q 301.91 129.29 301.71 127.56
  Q 301.31 124.21 301.82 121.11
  Q 301.93 120.42 302.61 120.24
  Z
  M 319.3655 121.5390
  A 5.52 5.52 0.0 0 0 313.8263 116.0383
  L 312.8063 116.0418
  A 5.52 5.52 0.0 0 0 307.3056 121.5811
  L 307.3145 124.1410
  A 5.52 5.52 0.0 0 0 312.8537 129.6417
  L 313.8737 129.6382
  A 5.52 5.52 0.0 0 0 319.3744 124.0989
  L 319.3655 121.5390
  Z
  M 325.56 125.40
  Q 325.01 123.52 325.27 121.35
  C 325.52 119.27 327.69 118.39 329.16 119.88
  Q 329.95 120.69 330.93 121.27
  A 1.56 1.56 0.0 0 0 333.29 119.92
  Q 333.29 118.89 332.43 118.04
  Q 328.80 114.45 324.25 116.87
  C 321.39 118.39 321.28 122.30 321.80 125.07
  Q 322.69 129.76 327.88 129.65
  Q 332.16 129.55 333.30 125.92
  A 0.88 0.88 0.0 0 0 333.03 124.98
  Q 332.47 124.50 331.67 124.52
  C 329.31 124.61 329.08 127.23 326.40 126.28
  Q 325.76 126.06 325.56 125.40
  Z
  M 340.01 123.94
  L 346.07 124.03
  A 1.31 1.31 0.0 0 0 347.38 122.49
  Q 347.11 120.92 346.59 119.38
  C 345.48 116.11 341.33 115.18 338.52 116.54
  C 334.81 118.34 334.58 123.28 336.07 126.65
  C 337.43 129.73 341.62 130.17 344.46 129.23
  Q 345.53 128.88 346.19 127.98
  Q 346.87 127.06 346.47 126.48
  Q 345.66 125.31 344.36 125.88
  Q 342.15 126.85 339.96 126.17
  A 1.06 1.06 0.0 0 1 339.22 125.17
  L 339.21 124.74
  A 0.79 0.78 -0.3 0 1 340.01 123.94
  Z
  M 355.01 127.01
  A 1.73 1.72 -35.3 0 1 353.74 126.80
  L 351.80 125.62
  Q 350.81 125.01 349.76 125.49
  Q 349.24 125.73 349.21 126.12
  Q 349.07 127.74 350.39 128.56
  C 352.80 130.06 359.21 130.65 359.98 126.62
  Q 360.64 123.20 357.52 122.15
  Q 355.57 121.49 353.35 120.87
  Q 352.63 120.67 352.71 119.93
  Q 352.76 119.47 353.12 119.18
  Q 353.86 118.59 354.72 118.97
  Q 355.89 119.48 357.15 120.13
  Q 360.67 121.93 359.37 118.29
  C 358.14 114.85 348.70 114.91 349.16 120.60
  C 349.40 123.55 353.71 124.34 355.89 125.09
  Q 357.07 125.50 356.18 126.38
  Q 355.70 126.85 355.01 127.01
  Z
  M 369.02 125.63
  Q 369.07 126.64 367.92 127.01
  A 1.45 1.44 -39.8 0 1 366.75 126.91
  L 363.67 125.22
  Q 362.16 124.39 361.92 126.09
  Q 361.77 127.20 362.97 128.39
  A 2.81 2.67 -9.6 0 0 363.83 128.97
  C 372.40 132.64 377.78 122.76 366.32 121.10
  A 1.03 1.03 0.0 0 1 365.69 119.41
  C 366.27 118.73 367.35 118.57 368.08 119.11
  Q 369.32 120.01 370.68 120.60
  Q 372.17 121.24 372.42 119.64
  Q 372.63 118.25 369.77 116.59
  Q 368.82 116.05 367.74 115.98
  C 365.60 115.83 363.15 116.49 362.13 118.66
  C 360.35 122.47 365.58 124.52 368.32 124.87
  Q 368.99 124.95 369.02 125.63
  Z
  M 386.8933 121.6860
  A 5.52 5.52 0.0 0 0 381.4803 116.0610
  L 380.4604 116.0415
  A 5.52 5.52 0.0 0 0 374.8355 121.4545
  L 374.7867 123.9940
  A 5.52 5.52 0.0 0 0 380.1997 129.6190
  L 381.2196 129.6385
  A 5.52 5.52 0.0 0 0 386.8445 124.2255
  L 386.8933 121.6860
  Z
  M 498.5877 121.5395
  A 5.52 5.52 0.0 0 0 493.0581 116.0291
  L 492.0581 116.0309
  A 5.52 5.52 0.0 0 0 486.5477 121.5605
  L 486.5523 124.1605
  A 5.52 5.52 0.0 0 0 492.0819 129.6709
  L 493.0819 129.6691
  A 5.52 5.52 0.0 0 0 498.5923 124.1395
  L 498.5877 121.5395
  Z
  M 517.90 120.46
  A 0.70 0.69 -10.8 0 1 517.25 121.41
  C 513.77 121.40 508.63 122.32 510.05 127.17
  C 510.68 129.35 513.23 129.99 515.25 129.53
  Q 517.77 128.95 520.23 129.54
  A 1.04 1.03 7.0 0 0 521.50 128.55
  Q 521.55 124.82 521.50 120.69
  C 521.48 119.00 520.60 117.38 518.99 116.70
  Q 513.94 114.56 510.37 118.45
  A 1.03 1.03 0.0 0 0 511.00 120.16
  Q 512.92 120.42 514.66 119.52
  C 515.84 118.91 517.36 119.12 517.90 120.46
  Z
  M 563.10 129.59
  Q 566.91 129.06 567.56 125.70
  A 0.81 0.81 0.0 0 0 567.18 124.86
  C 564.17 123.01 563.42 128.10 560.31 126.05
  Q 559.91 125.79 559.79 125.34
  Q 559.23 123.29 559.54 121.09
  C 559.77 119.48 561.46 118.71 562.88 119.41
  Q 563.38 119.65 563.69 120.10
  Q 564.85 121.79 566.79 121.19
  Q 567.51 120.96 567.50 120.21
  C 567.36 113.65 553.17 114.29 555.98 125.01
  Q 557.39 130.38 563.10 129.59
  Z
  M 574.99 119.29
  Q 575.33 119.19 575.68 119.20
  Q 577.61 119.23 577.64 121.16
  L 577.73 128.36
  A 1.27 1.26 -3.0 0 0 579.11 129.60
  L 580.06 129.52
  Q 581.47 129.40 581.45 127.99
  Q 581.40 124.06 581.26 120.40
  C 581.12 116.31 577.72 115.20 574.39 116.51
  Q 573.61 116.82 572.80 116.55
  L 571.22 116.04
  A 1.04 1.04 0.0 0 0 569.86 117.03
  L 569.92 128.29
  Q 569.92 129.66 571.29 129.72
  L 571.60 129.73
  Q 573.51 129.81 573.51 127.90
  L 573.51 121.24
  Q 573.51 119.70 574.99 119.29
  Z
  M 587.7496 117.2833
  A 1.20 1.20 0.0 0 0 586.5517 116.0812
  L 585.1717 116.0788
  A 1.20 1.20 0.0 0 0 583.9696 117.2767
  L 583.9504 128.2767
  A 1.20 1.20 0.0 0 0 585.1483 129.4788
  L 586.5283 129.4812
  A 1.20 1.20 0.0 0 0 587.7304 128.2833
  L 587.7496 117.2833
  Z
  M 594.29 125.25
  Q 593.45 123.19 594.18 120.63
  A 2.04 2.04 0.0 0 1 597.46 119.64
  Q 598.46 120.49 599.61 121.20
  A 1.52 1.52 0.0 0 0 601.89 119.57
  C 601.40 117.40 598.94 116.07 596.97 115.99
  Q 591.32 115.74 590.33 121.08
  C 588.28 132.16 602.40 131.26 601.75 125.63
  A 1.43 1.42 69.3 0 0 599.52 124.62
  L 597.31 126.14
  A 2.02 2.01 -28.5 0 1 594.29 125.25
  Z
  M 611.21 121.35
  C 608.79 121.68 606.06 121.35 604.38 123.49
  Q 603.31 124.84 603.69 126.64
  C 604.34 129.72 607.39 130.12 609.98 129.39
  Q 611.97 128.84 613.79 129.65
  A 1.07 1.07 0.0 0 0 615.29 128.74
  Q 615.55 124.54 615.31 120.27
  C 615.23 118.88 614.42 117.59 613.22 116.94
  Q 608.84 114.56 604.65 117.83
  A 1.38 1.38 0.0 0 0 604.56 119.93
  Q 605.30 120.61 606.43 120.23
  Q 607.97 119.71 609.41 119.30
  Q 610.61 118.95 611.40 119.93
  L 611.65 120.24
  A 0.69 0.69 0.0 0 1 611.21 121.35
  Z
  M 628.87 119.36
  A 0.63 0.63 0.0 0 1 627.76 119.20
  Q 626.51 115.60 623.34 116.17
  A 0.78 0.78 0.0 0 0 622.84 117.38
  L 626.05 122.09
  A 1.37 1.36 -44.8 0 1 626.04 123.63
  L 623.10 127.92
  A 1.08 1.08 0.0 0 0 623.96 129.62
  Q 626.98 129.69 627.91 126.73
  A 0.75 0.74 -53.8 0 1 629.23 126.52
  L 630.64 128.52
  Q 631.48 129.73 632.94 129.63
  L 633.46 129.60
  Q 635.23 129.49 634.22 128.03
  L 631.14 123.59
  A 1.23 1.23 0.0 0 1 631.13 122.20
  L 634.39 117.36
  Q 635.20 116.15 633.74 116.18
  L 632.23 116.22
  A 2.35 2.34 16.8 0 0 630.41 117.19
  L 628.87 119.36
  Z
  M 400.58 126.43
  Q 401.21 127.30 401.82 128.20
  A 3.17 3.00 71.1 0 0 404.47 129.59
  Q 404.73 129.59 404.96 129.49
  Q 406.26 128.97 405.47 127.82
  L 402.56 123.59
  A 1.26 1.25 44.8 0 1 402.55 122.17
  L 405.73 117.46
  Q 406.47 116.37 405.16 116.18
  Q 404.12 116.02 403.10 116.33
  A 3.01 3.00 -83.7 0 0 401.37 117.72
  L 400.39 119.44
  Q 399.96 120.20 399.49 119.46
  L 398.13 117.31
  A 2.44 2.42 72.3 0 0 395.96 116.18
  L 394.96 116.23
  Q 393.47 116.30 394.32 117.53
  L 397.59 122.22
  A 1.15 1.15 0.0 0 1 397.58 123.53
  L 394.58 127.79
  Q 393.60 129.17 395.25 129.57
  L 395.70 129.68
  A 2.37 2.36 22.1 0 0 398.29 128.59
  L 399.55 126.48
  Q 400.03 125.67 400.58 126.43
  Z
  M 431.9133 148.0093
  A 5.50 5.50 0.0 0 0 426.4037 142.5189
  L 425.1237 142.5211
  A 5.50 5.50 0.0 0 0 419.6333 148.0307
  L 419.6467 155.6707
  A 5.50 5.50 0.0 0 0 425.1563 161.1611
  L 426.4363 161.1589
  A 5.50 5.50 0.0 0 0 431.9267 155.6493
  L 431.9133 148.0093
  Z
  M 413.45 147.00
  L 413.41 160.00
  A 0.84 0.84 0.0 0 0 414.25 160.84
  L 416.23 160.82
  A 0.81 0.81 0.0 0 0 417.03 160.02
  L 417.10 143.66
  A 0.91 0.90 -86.8 0 0 416.30 142.76
  C 414.27 142.53 410.02 142.80 410.07 145.71
  A 0.82 0.82 0.0 0 0 410.96 146.51
  L 412.75 146.36
  Q 413.45 146.30 413.45 147.00
  Z"
/>
<path fill="#bc0067" d="
  M 829.98 88.42
  A 0.60 0.60 0.0 0 1 829.38 89.02
  L 13.12 89.02
  A 0.60 0.60 0.0 0 1 12.52 88.42
  L 12.52 27.86
  A 0.60 0.60 0.0 0 1 13.12 27.26
  L 829.38 27.26
  A 0.60 0.60 0.0 0 1 829.98 27.86
  L 829.98 88.42
  Z
  M 360.6957 47.5637
  A 1.35 1.35 0.0 0 0 359.3410 46.2184
  L 358.4010 46.2217
  A 1.35 1.35 0.0 0 0 357.0558 47.5764
  L 357.1243 67.1963
  A 1.35 1.35 0.0 0 0 358.4790 68.5416
  L 359.4190 68.5383
  A 1.35 1.35 0.0 0 0 360.7642 67.1836
  L 360.6957 47.5637
  Z
  M 324.10 59.53
  A 1.16 1.16 0.0 0 1 324.89 61.27
  C 323.28 63.92 319.10 64.12 318.73 60.70
  C 318.45 58.06 317.92 52.91 320.22 51.44
  C 323.07 49.62 324.20 52.89 325.81 54.29
  A 1.45 1.45 0.0 0 0 328.12 53.71
  Q 328.52 52.67 327.68 51.25
  Q 325.51 47.59 321.23 47.92
  C 314.15 48.46 314.68 55.28 315.08 60.42
  C 315.52 66.16 322.14 68.43 326.36 64.88
  C 328.55 63.03 328.53 59.51 328.20 56.91
  A 0.76 0.75 85.7 0 0 327.44 56.25
  L 322.43 56.25
  Q 321.36 56.25 321.31 57.32
  L 321.27 58.12
  A 1.03 1.02 6.4 0 0 322.12 59.17
  L 324.10 59.53
  Z
  M 334.42 51.17
  Q 334.93 51.16 334.93 51.67
  L 334.97 65.10
  Q 334.98 66.23 336.10 66.24
  L 337.58 66.26
  Q 338.67 66.27 338.67 65.17
  L 338.69 52.25
  A 1.29 1.28 8.9 0 1 340.37 51.03
  Q 341.43 51.37 342.50 51.29
  A 1.17 1.17 0.0 0 0 343.56 50.29
  L 343.78 48.76
  Q 343.90 47.87 343.00 47.87
  L 331.08 47.94
  Q 329.85 47.94 329.93 49.17
  L 329.98 49.94
  Q 330.07 51.30 331.44 51.26
  L 334.42 51.17
  Z
  M 349.5040 49.0630
  A 1.35 1.35 0.0 0 0 348.1563 47.7107
  L 347.3763 47.7093
  A 1.35 1.35 0.0 0 0 346.0240 49.0570
  L 345.9960 65.0770
  A 1.35 1.35 0.0 0 0 347.3437 66.4293
  L 348.1237 66.4307
  A 1.35 1.35 0.0 0 0 349.4760 65.0830
  L 349.5040 49.0630
  Z
  M 372.24 55.92
  Q 372.72 56.05 372.97 56.48
  Q 375.42 60.77 378.03 65.17
  C 378.74 66.35 380.13 66.47 381.36 66.16
  Q 382.24 65.94 382.24 65.03
  L 382.24 49.48
  Q 382.24 47.72 380.48 47.76
  L 380.09 47.78
  Q 378.50 47.82 378.50 49.41
  L 378.53 57.54
  Q 378.54 59.86 377.41 57.84
  Q 374.97 53.50 372.28 49.14
  Q 371.12 47.25 369.13 47.81
  A 1.22 1.22 0.0 0 0 368.24 48.97
  L 368.24 65.52
  A 0.76 0.76 0.0 0 0 369.02 66.28
  L 371.22 66.23
  Q 371.90 66.22 371.90 65.53
  L 371.82 56.25
  A 0.33 0.33 0.0 0 1 372.24 55.92
  Z
  M 434.97 53.41
  C 434.13 53.18 433.29 52.68 432.40 52.74
  C 425.17 53.21 425.60 67.20 433.05 66.24
  Q 435.99 65.86 438.67 66.15
  A 0.66 0.65 3.1 0 0 439.40 65.50
  L 439.32 49.29
  A 1.53 1.53 0.0 0 0 437.79 47.76
  L 437.12 47.76
  Q 435.84 47.75 435.81 49.03
  L 435.72 52.86
  Q 435.71 53.62 434.97 53.41
  Z
  M 470.32 59.51
  A 1.26 1.26 0.0 0 1 471.12 61.50
  C 468.93 64.45 465.31 63.61 465.10 60.05
  Q 464.89 56.68 465.18 53.83
  C 465.43 51.40 468.57 49.53 470.30 52.01
  Q 471.11 53.18 471.92 54.12
  Q 472.65 54.96 473.70 54.59
  Q 473.95 54.50 474.19 54.28
  A 1.81 1.81 0.0 0 0 474.60 52.13
  Q 471.81 46.51 465.70 48.30
  Q 461.84 49.44 461.51 54.25
  C 461.16 59.57 460.79 66.39 468.18 66.44
  C 473.99 66.48 475.46 61.68 474.65 56.81
  Q 474.56 56.21 473.95 56.22
  L 468.75 56.26
  Q 467.77 56.27 467.77 57.25
  L 467.76 58.15
  Q 467.76 59.07 468.66 59.22
  L 470.32 59.51
  Z
  M 403.75 61.94
  L 403.75 56.83
  Q 403.75 56.14 404.42 56.00
  L 405.69 55.72
  Q 406.28 55.59 406.54 55.04
  Q 406.81 54.46 406.64 53.87
  Q 406.51 53.42 406.05 53.31
  L 404.70 52.99
  Q 404.06 52.84 403.93 52.19
  L 403.53 50.01
  A 1.11 1.10 6.0 0 0 402.86 49.19
  Q 402.03 48.85 401.20 49.14
  Q 400.48 49.38 400.50 50.14
  Q 400.56 52.56 398.49 53.65
  Q 397.61 54.11 398.31 54.82
  L 399.66 56.19
  A 1.89 1.88 -69.8 0 1 400.19 57.34
  C 400.42 59.82 400.05 62.23 400.59 64.72
  Q 400.72 65.35 401.30 65.63
  Q 403.50 66.67 405.71 66.25
  Q 406.57 66.08 406.56 65.21
  Q 406.54 63.32 404.57 62.94
  Q 403.75 62.78 403.75 61.94
  Z
  M 391.0076 66.5893
  A 6.99 6.27 89.2 0 0 397.1794 59.5125
  A 6.99 6.27 89.2 0 0 390.8124 52.6107
  A 6.99 6.27 89.2 0 0 384.6406 59.6875
  A 6.99 6.27 89.2 0 0 391.0076 66.5893
  Z
  M 415.02 58.27
  C 405.88 57.41 406.43 67.95 413.75 66.31
  Q 416.22 65.75 418.85 66.27
  A 0.92 0.92 0.0 0 0 419.95 65.36
  Q 419.90 60.90 419.72 56.99
  Q 419.61 54.59 417.54 53.60
  Q 412.69 51.26 408.91 54.97
  A 1.09 1.09 0.0 0 0 409.00 56.61
  Q 409.70 57.16 410.59 56.96
  Q 412.28 56.58 413.91 55.91
  C 414.86 55.53 415.85 56.05 416.08 57.05
  A 1.00 0.99 -4.2 0 1 415.02 58.27
  Z
  M 448.2153 66.5933
  A 7.00 6.23 87.5 0 0 454.1341 59.3283
  A 7.00 6.23 87.5 0 0 447.6047 52.6067
  A 7.00 6.23 87.5 0 0 441.6859 59.8717
  A 7.00 6.23 87.5 0 0 448.2153 66.5933
  Z
  M 482.05 56.92
  C 483.73 56.20 486.12 56.50 485.41 53.59
  A 1.23 1.23 0.0 0 0 483.61 52.82
  Q 481.54 54.02 479.45 52.84
  A 1.38 1.37 -75.0 0 0 477.40 54.03
  L 477.28 64.80
  Q 477.26 66.10 478.55 66.24
  L 479.48 66.35
  Q 480.90 66.50 480.92 65.07
  L 481.01 58.49
  A 1.73 1.73 0.0 0 1 482.05 56.92
  Z
  M 492.05 63.30
  Q 490.79 62.59 490.74 61.16
  Q 490.64 57.78 490.67 54.31
  A 1.49 1.49 0.0 0 0 489.29 52.81
  L 488.73 52.76
  Q 487.35 52.65 487.21 54.03
  Q 486.88 57.23 487.01 61.64
  C 487.22 68.63 493.25 65.42 497.14 66.22
  A 1.22 1.22 0.0 0 0 498.60 65.01
  L 498.46 54.46
  Q 498.44 52.97 496.95 52.95
  L 496.01 52.94
  A 1.23 1.23 0.0 0 0 494.77 54.27
  Q 495.11 58.27 494.68 61.75
  Q 494.50 63.25 493.06 63.48
  A 1.62 1.58 -34.1 0 1 492.05 63.30
  Z
  M 504.83 66.52
  A 0.58 0.57 -85.0 0 1 505.59 65.88
  Q 510.97 67.80 512.81 62.93
  C 514.26 59.14 513.16 51.64 507.02 53.03
  Q 504.80 53.54 502.63 52.80
  A 1.04 1.04 0.0 0 0 501.26 53.79
  L 501.25 70.13
  A 0.98 0.98 0.0 0 0 502.12 71.10
  L 503.43 71.24
  Q 504.62 71.37 504.82 70.18
  Q 505.13 68.31 504.83 66.52
  Z
  M 521.6781 66.5582
  A 6.97 6.25 88.7 0 0 527.7684 59.4482
  A 6.97 6.25 88.7 0 0 521.3619 52.6218
  A 6.97 6.25 88.7 0 0 515.2716 59.7318
  A 6.97 6.25 88.7 0 0 521.6781 66.5582
  Z"
/>
<rect fill="#ffffff" x="-1.82" y="-11.16" transform="translate(358.91,57.38) rotate(-0.2)" width="3.64" height="22.32" rx="1.35"/>
<path fill="#ffffff" d="
  M 324.10 59.53
  L 322.12 59.17
  A 1.03 1.02 6.4 0 1 321.27 58.12
  L 321.31 57.32
  Q 321.36 56.25 322.43 56.25
  L 327.44 56.25
  A 0.76 0.75 85.7 0 1 328.20 56.91
  C 328.53 59.51 328.55 63.03 326.36 64.88
  C 322.14 68.43 315.52 66.16 315.08 60.42
  C 314.68 55.28 314.15 48.46 321.23 47.92
  Q 325.51 47.59 327.68 51.25
  Q 328.52 52.67 328.12 53.71
  A 1.45 1.45 0.0 0 1 325.81 54.29
  C 324.20 52.89 323.07 49.62 320.22 51.44
  C 317.92 52.91 318.45 58.06 318.73 60.70
  C 319.10 64.12 323.28 63.92 324.89 61.27
  A 1.16 1.16 0.0 0 0 324.10 59.53
  Z"
/>
<path fill="#ffffff" d="
  M 334.42 51.17
  L 331.44 51.26
  Q 330.07 51.30 329.98 49.94
  L 329.93 49.17
  Q 329.85 47.94 331.08 47.94
  L 343.00 47.87
  Q 343.90 47.87 343.78 48.76
  L 343.56 50.29
  A 1.17 1.17 0.0 0 1 342.50 51.29
  Q 341.43 51.37 340.37 51.03
  A 1.29 1.28 8.9 0 0 338.69 52.25
  L 338.67 65.17
  Q 338.67 66.27 337.58 66.26
  L 336.10 66.24
  Q 334.98 66.23 334.97 65.10
  L 334.93 51.67
  Q 334.93 51.16 334.42 51.17
  Z"
/>
<rect fill="#ffffff" x="-1.74" y="-9.36" transform="translate(347.75,57.07) rotate(0.1)" width="3.48" height="18.72" rx="1.35"/>
<path fill="#ffffff" d="
  M 372.24 55.92
  A 0.33 0.33 0.0 0 0 371.82 56.25
  L 371.90 65.53
  Q 371.90 66.22 371.22 66.23
  L 369.02 66.28
  A 0.76 0.76 0.0 0 1 368.24 65.52
  L 368.24 48.97
  A 1.22 1.22 0.0 0 1 369.13 47.81
  Q 371.12 47.25 372.28 49.14
  Q 374.97 53.50 377.41 57.84
  Q 378.54 59.86 378.53 57.54
  L 378.50 49.41
  Q 378.50 47.82 380.09 47.78
  L 380.48 47.76
  Q 382.24 47.72 382.24 49.48
  L 382.24 65.03
  Q 382.24 65.94 381.36 66.16
  C 380.13 66.47 378.74 66.35 378.03 65.17
  Q 375.42 60.77 372.97 56.48
  Q 372.72 56.05 372.24 55.92
  Z"
/>
<path fill="#ffffff" d="
  M 435.72 52.86
  L 435.81 49.03
  Q 435.84 47.75 437.12 47.76
  L 437.79 47.76
  A 1.53 1.53 0.0 0 1 439.32 49.29
  L 439.40 65.50
  A 0.66 0.65 3.1 0 1 438.67 66.15
  Q 435.99 65.86 433.05 66.24
  C 425.60 67.20 425.17 53.21 432.40 52.74
  C 433.29 52.68 434.13 53.18 434.97 53.41
  Q 435.71 53.62 435.72 52.86
  Z
  M 435.6903 58.1885
  A 2.14 2.14 0.0 0 0 433.5956 56.0041
  L 433.2756 55.9974
  A 2.14 2.14 0.0 0 0 431.0913 58.0922
  L 431.0297 61.0315
  A 2.14 2.14 0.0 0 0 433.1244 63.2159
  L 433.4444 63.2226
  A 2.14 2.14 0.0 0 0 435.6287 61.1278
  L 435.6903 58.1885
  Z"
/>
<path fill="#ffffff" d="
  M 470.32 59.51
  L 468.66 59.22
  Q 467.76 59.07 467.76 58.15
  L 467.77 57.25
  Q 467.77 56.27 468.75 56.26
  L 473.95 56.22
  Q 474.56 56.21 474.65 56.81
  C 475.46 61.68 473.99 66.48 468.18 66.44
  C 460.79 66.39 461.16 59.57 461.51 54.25
  Q 461.84 49.44 465.70 48.30
  Q 471.81 46.51 474.60 52.13
  A 1.81 1.81 0.0 0 1 474.19 54.28
  Q 473.95 54.50 473.70 54.59
  Q 472.65 54.96 471.92 54.12
  Q 471.11 53.18 470.30 52.01
  C 468.57 49.53 465.43 51.40 465.18 53.83
  Q 464.89 56.68 465.10 60.05
  C 465.31 63.61 468.93 64.45 471.12 61.50
  A 1.26 1.26 0.0 0 0 470.32 59.51
  Z"
/>
<path fill="#ffffff" d="
  M 404.57 62.94
  Q 406.54 63.32 406.56 65.21
  Q 406.57 66.08 405.71 66.25
  Q 403.50 66.67 401.30 65.63
  Q 400.72 65.35 400.59 64.72
  C 400.05 62.23 400.42 59.82 400.19 57.34
  A 1.89 1.88 -69.8 0 0 399.66 56.19
  L 398.31 54.82
  Q 397.61 54.11 398.49 53.65
  Q 400.56 52.56 400.50 50.14
  Q 400.48 49.38 401.20 49.14
  Q 402.03 48.85 402.86 49.19
  A 1.11 1.10 6.0 0 1 403.53 50.01
  L 403.93 52.19
  Q 404.06 52.84 404.70 52.99
  L 406.05 53.31
  Q 406.51 53.42 406.64 53.87
  Q 406.81 54.46 406.54 55.04
  Q 406.28 55.59 405.69 55.72
  L 404.42 56.00
  Q 403.75 56.14 403.75 56.83
  L 403.75 61.94
  Q 403.75 62.78 404.57 62.94
  Z"
/>
<path fill="#ffffff" d="
  M 391.0076 66.5893
  A 6.99 6.27 89.2 0 1 384.6406 59.6875
  A 6.99 6.27 89.2 0 1 390.8124 52.6107
  A 6.99 6.27 89.2 0 1 397.1794 59.5125
  A 6.99 6.27 89.2 0 1 391.0076 66.5893
  Z
  M 390.9033 63.3900
  A 3.82 2.54 90.1 0 0 393.4500 59.5744
  A 3.82 2.54 90.1 0 0 390.9167 55.7500
  A 3.82 2.54 90.1 0 0 388.3700 59.5656
  A 3.82 2.54 90.1 0 0 390.9033 63.3900
  Z"
/>
<path fill="#ffffff" d="
  M 415.02 58.27
  A 1.00 0.99 -4.2 0 0 416.08 57.05
  C 415.85 56.05 414.86 55.53 413.91 55.91
  Q 412.28 56.58 410.59 56.96
  Q 409.70 57.16 409.00 56.61
  A 1.09 1.09 0.0 0 1 408.91 54.97
  Q 412.69 51.26 417.54 53.60
  Q 419.61 54.59 419.72 56.99
  Q 419.90 60.90 419.95 65.36
  A 0.92 0.92 0.0 0 1 418.85 66.27
  Q 416.22 65.75 413.75 66.31
  C 406.43 67.95 405.88 57.41 415.02 58.27
  Z
  M 416.1745 61.2448
  A 2.32 1.58 -21.1 0 0 413.4412 60.6059
  A 2.32 1.58 -21.1 0 0 411.8455 62.9152
  A 2.32 1.58 -21.1 0 0 414.5788 63.5541
  A 2.32 1.58 -21.1 0 0 416.1745 61.2448
  Z"
/>
<path fill="#ffffff" d="
  M 448.2153 66.5933
  A 7.00 6.23 87.5 0 1 441.6859 59.8717
  A 7.00 6.23 87.5 0 1 447.6047 52.6067
  A 7.00 6.23 87.5 0 1 454.1341 59.3283
  A 7.00 6.23 87.5 0 1 448.2153 66.5933
  Z
  M 447.9932 63.4199
  A 3.80 2.60 89.5 0 0 450.5599 59.5973
  A 3.80 2.60 89.5 0 0 447.9268 55.8201
  A 3.80 2.60 89.5 0 0 445.3601 59.6427
  A 3.80 2.60 89.5 0 0 447.9932 63.4199
  Z"
/>
<path fill="#ffffff" d="
  M 482.05 56.92
  A 1.73 1.73 0.0 0 0 481.01 58.49
  L 480.92 65.07
  Q 480.90 66.50 479.48 66.35
  L 478.55 66.24
  Q 477.26 66.10 477.28 64.80
  L 477.40 54.03
  A 1.38 1.37 -75.0 0 1 479.45 52.84
  Q 481.54 54.02 483.61 52.82
  A 1.23 1.23 0.0 0 1 485.41 53.59
  C 486.12 56.50 483.73 56.20 482.05 56.92
  Z"
/>
<path fill="#ffffff" d="
  M 492.05 63.30
  A 1.62 1.58 -34.1 0 0 493.06 63.48
  Q 494.50 63.25 494.68 61.75
  Q 495.11 58.27 494.77 54.27
  A 1.23 1.23 0.0 0 1 496.01 52.94
  L 496.95 52.95
  Q 498.44 52.97 498.46 54.46
  L 498.60 65.01
  A 1.22 1.22 0.0 0 1 497.14 66.22
  C 493.25 65.42 487.22 68.63 487.01 61.64
  Q 486.88 57.23 487.21 54.03
  Q 487.35 52.65 488.73 52.76
  L 489.29 52.81
  A 1.49 1.49 0.0 0 1 490.67 54.31
  Q 490.64 57.78 490.74 61.16
  Q 490.79 62.59 492.05 63.30
  Z"
/>
<path fill="#ffffff" d="
  M 504.83 66.52
  Q 505.13 68.31 504.82 70.18
  Q 504.62 71.37 503.43 71.24
  L 502.12 71.10
  A 0.98 0.98 0.0 0 1 501.25 70.13
  L 501.26 53.79
  A 1.04 1.04 0.0 0 1 502.63 52.80
  Q 504.80 53.54 507.02 53.03
  C 513.16 51.64 514.26 59.14 512.81 62.93
  Q 510.97 67.80 505.59 65.88
  A 0.58 0.57 -85.0 0 0 504.83 66.52
  Z
  M 509.6428 58.1463
  A 2.14 2.14 0.0 0 0 507.5367 55.9730
  L 507.2167 55.9679
  A 2.14 2.14 0.0 0 0 505.0434 58.0741
  L 504.9972 61.0137
  A 2.14 2.14 0.0 0 0 507.1033 63.1870
  L 507.4233 63.1921
  A 2.14 2.14 0.0 0 0 509.5966 61.0859
  L 509.6428 58.1463
  Z"
/>
<path fill="#ffffff" d="
  M 521.6781 66.5582
  A 6.97 6.25 88.7 0 1 515.2716 59.7318
  A 6.97 6.25 88.7 0 1 521.3619 52.6218
  A 6.97 6.25 88.7 0 1 527.7684 59.4482
  A 6.97 6.25 88.7 0 1 521.6781 66.5582
  Z
  M 521.5400 63.3800
  A 3.78 2.66 90.0 0 0 524.2000 59.6000
  A 3.78 2.66 90.0 0 0 521.5400 55.8200
  A 3.78 2.66 90.0 0 0 518.8800 59.6000
  A 3.78 2.66 90.0 0 0 521.5400 63.3800
  Z"
/>
<ellipse fill="#bc0067" cx="0.00" cy="0.00" transform="translate(390.91,59.57) rotate(90.1)" rx="3.82" ry="2.54"/>
<ellipse fill="#bc0067" cx="0.00" cy="0.00" transform="translate(447.96,59.62) rotate(89.5)" rx="3.80" ry="2.60"/>
<ellipse fill="#bc0067" cx="0.00" cy="0.00" transform="translate(521.54,59.60) rotate(90.0)" rx="3.78" ry="2.66"/>
<rect fill="#bc0067" x="-2.30" y="-3.61" transform="translate(433.36,59.61) rotate(1.2)" width="4.60" height="7.22" rx="2.14"/>
<rect fill="#bc0067" x="-2.30" y="-3.61" transform="translate(507.32,59.58) rotate(0.9)" width="4.60" height="7.22" rx="2.14"/>
<ellipse fill="#bc0067" cx="0.00" cy="0.00" transform="translate(414.01,62.08) rotate(-21.1)" rx="2.32" ry="1.58"/>
<path fill="#020102" d="
  M 461.85 130.67
  C 458.66 124.65 458.50 117.42 461.68 111.51
  Q 462.53 109.93 464.21 109.44
  Q 464.46 109.37 464.72 109.38
  Q 466.30 109.48 465.66 110.92
  Q 461.29 120.87 465.55 130.54
  A 1.24 1.24 0.0 0 0 466.68 131.27
  Q 556.84 131.23 648.21 131.26
  Q 652.50 131.26 656.67 131.01
  Q 657.17 130.98 657.36 130.52
  Q 661.49 120.35 657.06 110.85
  Q 656.37 109.37 657.99 109.50
  L 658.58 109.54
  A 3.02 3.02 0.0 0 1 661.04 111.18
  Q 666.03 120.96 660.80 130.95
  A 0.30 0.30 0.0 0 0 661.15 131.37
  Q 662.01 131.11 662.76 131.43
  Q 663.75 131.85 663.48 132.97
  A 0.76 0.76 0.0 0 1 662.74 133.55
  L 179.62 133.55
  Q 178.93 133.55 178.95 132.87
  L 178.96 132.36
  Q 178.98 131.44 179.89 131.45
  L 181.26 131.48
  Q 182.08 131.49 181.67 130.78
  C 178.28 124.89 177.92 116.45 182.02 110.54
  C 182.71 109.54 184.15 109.41 185.25 109.54
  A 0.57 0.57 0.0 0 1 185.69 110.36
  Q 180.94 120.06 185.14 130.38
  A 1.41 1.40 -11.3 0 0 186.44 131.24
  L 429.21 131.25
  A 1.48 1.47 -78.6 0 0 430.57 130.34
  Q 434.62 120.61 430.27 110.95
  Q 429.58 109.41 431.26 109.52
  L 431.66 109.55
  Q 433.33 109.66 434.12 111.14
  C 437.37 117.18 437.50 124.50 434.13 130.60
  Q 433.77 131.26 434.52 131.26
  L 461.48 131.28
  Q 462.17 131.28 461.85 130.67
  Z"
/>
<ellipse fill="#020102" cx="0.00" cy="0.00" transform="translate(585.89,112.54) rotate(-3.4)" rx="2.11" ry="1.95"/>
<path fill="#020102" d="
  M 193.09 119.74
  L 193.27 128.05
  Q 193.30 129.40 191.95 129.48
  L 190.95 129.55
  Q 189.52 129.64 189.52 128.20
  L 189.54 112.02
  Q 189.54 111.45 190.08 111.28
  Q 192.59 110.49 193.84 112.63
  Q 196.40 117.01 199.15 121.66
  Q 199.84 122.82 199.85 121.47
  L 199.96 112.47
  Q 199.98 111.00 201.45 111.05
  Q 201.57 111.05 201.70 111.05
  Q 203.46 110.96 203.47 112.72
  L 203.54 128.28
  Q 203.55 128.89 203.01 129.20
  C 201.39 130.13 199.72 129.30 198.90 127.77
  Q 196.56 123.44 193.90 119.48
  Q 193.06 118.22 193.09 119.74
  Z"
/>
<path fill="#020102" d="
  M 256.59 116.78
  A 0.40 0.40 0.0 0 0 257.18 116.43
  L 257.24 112.22
  Q 257.25 110.94 258.53 110.98
  L 259.02 111.00
  Q 260.73 111.06 260.73 112.77
  L 260.72 128.27
  A 1.42 1.41 -79.6 0 1 258.81 129.59
  C 255.60 128.39 251.17 131.40 249.33 126.70
  C 247.46 121.92 249.63 113.00 256.59 116.78
  Z
  M 257.0095 121.3433
  A 2.09 2.09 0.0 0 0 254.9600 119.2136
  L 254.6601 119.2078
  A 2.09 2.09 0.0 0 0 252.5304 121.2573
  L 252.4705 124.3767
  A 2.09 2.09 0.0 0 0 254.5200 126.5064
  L 254.8199 126.5122
  A 2.09 2.09 0.0 0 0 256.9496 124.4627
  L 257.0095 121.3433
  Z"
/>
<path fill="#020102" d="
  M 473.61 119.36
  Q 473.38 123.46 473.49 128.15
  Q 473.54 129.82 471.87 129.70
  L 471.46 129.67
  Q 469.81 129.55 469.82 127.89
  L 469.92 112.12
  Q 469.93 111.45 470.57 111.23
  Q 472.83 110.47 474.03 112.50
  Q 476.86 117.32 479.52 121.44
  Q 480.56 123.05 480.39 121.14
  Q 480.06 117.17 480.30 112.23
  Q 480.34 111.30 481.26 111.20
  L 482.58 111.05
  A 1.06 1.05 86.6 0 1 483.75 112.09
  L 483.90 128.25
  A 1.30 1.28 -7.4 0 1 482.92 129.51
  C 481.05 129.99 480.09 129.16 479.14 127.57
  Q 476.58 123.28 474.34 119.20
  Q 473.69 118.00 473.61 119.36
  Z"
/>
<ellipse fill="#020102" cx="0.00" cy="0.00" transform="translate(548.31,112.79) rotate(133.3)" rx="2.46" ry="1.26"/>
<path fill="#020102" d="
  M 645.24 117.09
  Q 645.04 118.47 646.42 118.26
  Q 652.80 117.31 653.52 122.66
  C 654.16 127.35 650.87 130.43 646.37 129.54
  C 640.57 128.38 641.89 122.27 641.71 117.93
  C 641.54 113.85 643.04 111.12 647.61 111.13
  Q 652.13 111.14 653.34 115.37
  A 1.16 1.16 0.0 0 1 652.32 116.85
  Q 649.70 117.08 648.58 114.89
  A 1.37 1.36 50.6 0 0 646.30 114.66
  Q 645.43 115.74 645.24 117.09
  Z
  M 649.9873 122.9912
  A 1.89 1.89 0.0 0 0 648.0167 121.1855
  L 647.2374 121.2195
  A 1.89 1.89 0.0 0 0 645.4316 123.1901
  L 645.4927 124.5888
  A 1.89 1.89 0.0 0 0 647.4633 126.3945
  L 648.2426 126.3605
  A 1.89 1.89 0.0 0 0 650.0484 124.3899
  L 649.9873 122.9912
  Z"
/>
<path fill="#020102" d="
  M 286.28 123.08
  L 286.47 127.46
  Q 286.54 129.26 284.80 129.70
  Q 284.04 129.90 283.25 129.18
  A 1.53 1.51 -69.3 0 1 282.75 128.05
  L 282.76 111.94
  A 0.72 0.72 0.0 0 1 283.47 111.22
  C 288.07 111.16 295.37 109.94 295.87 116.55
  C 296.30 122.27 291.11 122.74 286.93 122.45
  Q 286.25 122.40 286.28 123.08
  Z
  M 286.40 115.24
  L 286.35 118.80
  A 0.80 0.80 0.0 0 0 287.13 119.61
  L 289.15 119.64
  A 3.08 2.21 0.8 0 0 292.26 117.47
  L 292.27 116.73
  A 3.08 2.21 0.8 0 0 289.23 114.48
  L 287.21 114.45
  A 0.80 0.80 0.0 0 0 286.40 115.24
  Z"
/>
<path fill="#020102" d="
  M 421.56 120.77
  L 421.21 119.32
  A 0.96 0.96 0.0 0 1 421.77 118.20
  Q 422.99 117.69 424.23 117.95
  Q 424.74 118.06 424.80 118.58
  L 425.04 120.59
  Q 425.10 121.11 425.51 121.45
  Q 426.14 121.95 426.47 122.63
  A 1.19 1.18 50.9 0 1 426.35 123.85
  L 425.43 125.06
  Q 425.10 125.49 425.06 126.03
  L 424.82 128.65
  Q 424.78 129.13 424.33 129.32
  Q 422.98 129.88 421.68 129.08
  Q 421.19 128.78 421.21 128.20
  L 421.33 125.48
  A 0.62 0.62 0.0 0 0 420.70 124.83
  L 414.23 124.96
  A 1.43 1.43 0.0 0 1 412.85 123.06
  Q 414.84 117.38 417.67 111.83
  Q 418.04 111.10 418.85 111.14
  L 420.67 111.22
  Q 421.68 111.26 421.27 112.19
  L 417.47 120.79
  A 0.63 0.62 -73.8 0 0 417.94 121.66
  Q 419.49 121.89 421.22 121.37
  Q 421.67 121.23 421.56 120.77
  Z"
/>
<path fill="#020102" d="
  M 537.05 115.23
  L 537.11 128.90
  A 0.76 0.76 0.0 0 1 536.34 129.66
  L 534.26 129.65
  A 0.76 0.76 0.0 0 1 533.51 128.89
  L 533.51 115.22
  A 0.76 0.76 0.0 0 0 532.73 114.46
  L 529.30 114.54
  A 0.76 0.76 0.0 0 1 528.53 113.79
  L 528.51 112.01
  A 0.76 0.76 0.0 0 1 529.27 111.25
  L 541.62 111.25
  A 0.76 0.76 0.0 0 1 542.38 112.05
  L 542.29 113.85
  A 0.76 0.76 0.0 0 1 541.51 114.57
  L 537.84 114.46
  A 0.76 0.76 0.0 0 0 537.05 115.23
  Z"
/>
<path fill="#020102" d="
  M 506.27 116.24
  L 507.18 116.26
  Q 507.84 116.28 508.10 116.88
  Q 508.61 118.02 507.89 118.80
  A 1.32 1.31 23.8 0 1 506.80 119.22
  Q 506.27 119.17 505.79 119.39
  Q 505.27 119.63 505.28 120.20
  L 505.40 125.22
  A 0.82 0.81 -82.5 0 0 505.97 125.97
  Q 506.95 126.28 507.65 127.03
  C 508.66 128.10 507.99 129.65 506.51 129.61
  C 504.36 129.54 501.87 129.57 501.90 126.60
  C 501.92 124.40 502.62 119.94 500.38 118.58
  A 1.08 1.08 0.0 0 1 500.43 116.71
  Q 502.24 115.74 502.06 113.58
  Q 501.95 112.21 503.32 112.33
  L 504.16 112.40
  Q 505.10 112.48 505.21 113.41
  L 505.47 115.52
  Q 505.56 116.23 506.27 116.24
  Z"
/>
<path fill="#020102" d="
  M 225.11 120.18
  L 225.09 124.91
  A 1.35 1.34 -74.8 0 0 225.75 126.07
  L 227.25 126.96
  A 1.31 1.30 -39.5 0 1 227.02 129.31
  C 224.69 130.14 221.42 129.34 221.50 126.28
  Q 221.57 123.49 221.52 120.78
  C 221.51 119.87 221.05 119.34 220.30 118.89
  A 1.42 1.42 0.0 0 1 220.36 116.42
  Q 221.96 115.56 221.59 113.34
  A 0.73 0.72 85.7 0 1 222.32 112.49
  L 224.36 112.55
  Q 224.97 112.57 225.03 113.18
  L 225.23 115.27
  Q 225.28 115.76 225.67 116.07
  Q 226.18 116.47 226.85 116.48
  Q 227.49 116.48 227.93 116.93
  Q 228.41 117.41 228.23 118.11
  Q 228.07 118.68 227.50 118.83
  L 225.82 119.26
  Q 225.11 119.45 225.11 120.18
  Z"
/>
<path fill="#ffffff" d="
  M 286.40 115.24
  A 0.80 0.80 0.0 0 1 287.21 114.45
  L 289.23 114.48
  A 3.08 2.21 0.8 0 1 292.27 116.73
  L 292.26 117.47
  A 3.08 2.21 0.8 0 1 289.15 119.64
  L 287.13 119.61
  A 0.80 0.80 0.0 0 1 286.35 118.80
  L 286.40 115.24
  Z"
/>
<path fill="#020102" d="
  M 450.44 120.03
  L 453.08 120.61
  A 1.10 1.10 0.0 0 1 453.08 122.76
  L 450.45 123.35
  A 1.10 1.10 0.0 0 0 449.62 124.19
  L 449.04 126.83
  A 1.10 1.10 0.0 0 1 446.89 126.83
  L 446.30 124.20
  A 1.10 1.10 0.0 0 0 445.46 123.37
  L 442.82 122.79
  A 1.10 1.10 0.0 0 1 442.82 120.64
  L 445.45 120.05
  A 1.10 1.10 0.0 0 0 446.28 119.21
  L 446.86 116.57
  A 1.10 1.10 0.0 0 1 449.01 116.57
  L 449.60 119.20
  A 1.10 1.10 0.0 0 0 450.44 120.03
  Z"
/>
<path fill="#020102" d="
  M 546.56 123.93
  Q 545.52 123.90 545.74 124.92
  Q 546.02 126.18 547.85 126.49
  A 2.11 1.56 39.4 0 0 548.24 126.51
  Q 549.65 126.44 551.02 125.88
  Q 552.33 125.34 553.03 126.58
  Q 553.39 127.21 552.88 128.14
  A 1.25 1.25 0.0 0 1 552.28 128.71
  Q 548.79 130.35 545.50 129.18
  C 541.54 127.76 541.00 121.89 542.76 118.79
  C 546.03 113.04 554.69 116.34 553.72 123.15
  A 1.14 1.14 0.0 0 1 552.56 124.12
  L 546.56 123.93
  Z
  M 545.92 121.65
  L 549.94 121.51
  A 0.27 0.27 0.0 0 0 550.20 121.23
  L 550.19 121.07
  A 2.13 1.93 -2.0 0 0 548.00 119.22
  L 547.70 119.23
  A 2.13 1.93 -2.0 0 0 545.64 121.23
  L 545.64 121.39
  A 0.27 0.27 0.0 0 0 545.92 121.65
  Z"
/>
<path fill="#020102" d="
  M 218.3225 123.9432
  A 5.58 5.58 0.0 0 1 212.8506 129.6293
  L 211.8708 129.6482
  A 5.58 5.58 0.0 0 1 206.1847 124.1763
  L 206.1375 121.7168
  A 5.58 5.58 0.0 0 1 211.6094 116.0307
  L 212.5892 116.0118
  A 5.58 5.58 0.0 0 1 218.2753 121.4837
  L 218.3225 123.9432
  Z
  M 212.2534 126.6100
  A 3.76 2.61 90.1 0 0 214.8700 122.8546
  A 3.76 2.61 90.1 0 0 212.2666 119.0900
  A 3.76 2.61 90.1 0 0 209.6500 122.8454
  A 3.76 2.61 90.1 0 0 212.2534 126.6100
  Z"
/>
<path fill="#020102" d="
  M 236.92 121.43
  A 0.80 0.80 0.0 0 0 237.54 120.31
  Q 237.37 119.92 237.06 119.66
  Q 236.25 118.98 235.25 119.31
  Q 233.49 119.88 231.76 120.28
  Q 230.40 120.60 229.99 119.32
  A 1.06 1.06 0.0 0 1 230.22 118.26
  C 232.69 115.61 238.10 114.80 240.36 118.14
  C 241.91 120.44 241.16 125.19 241.28 127.92
  A 1.67 1.67 0.0 0 1 238.99 129.54
  Q 237.11 128.78 235.07 129.48
  C 230.17 131.16 227.27 124.79 231.54 122.38
  C 233.14 121.47 235.14 121.68 236.92 121.43
  Z
  M 237.6306 124.6666
  A 2.33 1.59 -16.8 0 0 234.9404 123.8179
  A 2.33 1.59 -16.8 0 0 233.1694 126.0134
  A 2.33 1.59 -16.8 0 0 235.8596 126.8621
  A 2.33 1.59 -16.8 0 0 237.6306 124.6666
  Z"
/>
<path fill="#020102" d="
  M 267.94 123.96
  Q 266.99 123.99 267.15 124.92
  Q 267.24 125.50 267.63 125.83
  Q 268.47 126.56 269.61 126.47
  Q 271.26 126.33 272.84 125.70
  A 1.15 1.14 72.5 0 1 274.37 126.50
  L 274.53 127.12
  A 1.29 1.29 0.0 0 1 273.92 128.53
  Q 271.20 130.09 268.21 129.54
  C 259.93 128.04 262.27 113.24 271.34 116.29
  Q 274.03 117.19 274.77 119.93
  L 275.23 121.68
  Q 275.98 124.45 273.12 124.14
  Q 270.54 123.85 267.94 123.96
  Z
  M 271.35 120.30
  Q 270.93 119.72 270.25 119.37
  Q 269.58 119.02 268.84 119.12
  Q 267.64 119.29 266.96 120.44
  Q 266.45 121.30 267.43 121.49
  Q 269.31 121.86 270.94 121.44
  Q 271.99 121.18 271.35 120.30
  Z"
/>
<path fill="#020102" d="
  M 301.82 121.11
  Q 301.31 124.21 301.71 127.56
  Q 301.91 129.29 300.19 129.56
  L 299.82 129.62
  Q 298.01 129.90 298.01 128.07
  L 297.98 117.25
  A 1.22 1.22 0.0 0 1 299.73 116.14
  Q 302.02 117.23 304.24 116.05
  A 1.23 1.23 0.0 0 1 306.01 116.83
  Q 306.32 118.06 305.62 119.15
  Q 305.39 119.51 304.97 119.62
  L 302.61 120.24
  Q 301.93 120.42 301.82 121.11
  Z"
/>
<path fill="#020102" d="
  M 319.3744 124.0989
  A 5.52 5.52 0.0 0 1 313.8737 129.6382
  L 312.8537 129.6417
  A 5.52 5.52 0.0 0 1 307.3145 124.1410
  L 307.3056 121.5811
  A 5.52 5.52 0.0 0 1 312.8063 116.0418
  L 313.8263 116.0383
  A 5.52 5.52 0.0 0 1 319.3655 121.5390
  L 319.3744 124.0989
  Z
  M 313.3363 126.5999
  A 3.77 2.61 89.6 0 0 315.9199 122.8118
  A 3.77 2.61 89.6 0 0 313.2837 119.0601
  A 3.77 2.61 89.6 0 0 310.7001 122.8482
  A 3.77 2.61 89.6 0 0 313.3363 126.5999
  Z"
/>
<path fill="#020102" d="
  M 326.40 126.28
  C 329.08 127.23 329.31 124.61 331.67 124.52
  Q 332.47 124.50 333.03 124.98
  A 0.88 0.88 0.0 0 1 333.30 125.92
  Q 332.16 129.55 327.88 129.65
  Q 322.69 129.76 321.80 125.07
  C 321.28 122.30 321.39 118.39 324.25 116.87
  Q 328.80 114.45 332.43 118.04
  Q 333.29 118.89 333.29 119.92
  A 1.56 1.56 0.0 0 1 330.93 121.27
  Q 329.95 120.69 329.16 119.88
  C 327.69 118.39 325.52 119.27 325.27 121.35
  Q 325.01 123.52 325.56 125.40
  Q 325.76 126.06 326.40 126.28
  Z"
/>
<path fill="#020102" d="
  M 339.21 124.74
  L 339.22 125.17
  A 1.06 1.06 0.0 0 0 339.96 126.17
  Q 342.15 126.85 344.36 125.88
  Q 345.66 125.31 346.47 126.48
  Q 346.87 127.06 346.19 127.98
  Q 345.53 128.88 344.46 129.23
  C 341.62 130.17 337.43 129.73 336.07 126.65
  C 334.58 123.28 334.81 118.34 338.52 116.54
  C 341.33 115.18 345.48 116.11 346.59 119.38
  Q 347.11 120.92 347.38 122.49
  A 1.31 1.31 0.0 0 1 346.07 124.03
  L 340.01 123.94
  A 0.79 0.78 -0.3 0 0 339.21 124.74
  Z
  M 339.29 121.55
  L 343.13 121.63
  A 0.40 0.40 0.0 0 0 343.53 121.23
  L 343.54 121.12
  A 2.11 1.85 1.1 0 0 341.46 119.23
  L 341.04 119.23
  A 2.11 1.85 1.1 0 0 338.90 121.04
  L 338.90 121.15
  A 0.40 0.40 0.0 0 0 339.29 121.55
  Z"
/>
<path fill="#020102" d="
  M 355.89 125.09
  C 353.71 124.34 349.40 123.55 349.16 120.60
  C 348.70 114.91 358.14 114.85 359.37 118.29
  Q 360.67 121.93 357.15 120.13
  Q 355.89 119.48 354.72 118.97
  Q 353.86 118.59 353.12 119.18
  Q 352.76 119.47 352.71 119.93
  Q 352.63 120.67 353.35 120.87
  Q 355.57 121.49 357.52 122.15
  Q 360.64 123.20 359.98 126.62
  C 359.21 130.65 352.80 130.06 350.39 128.56
  Q 349.07 127.74 349.21 126.12
  Q 349.24 125.73 349.76 125.49
  Q 350.81 125.01 351.80 125.62
  L 353.74 126.80
  A 1.73 1.72 -35.3 0 0 355.01 127.01
  Q 355.70 126.85 356.18 126.38
  Q 357.07 125.50 355.89 125.09
  Z"
/>
<path fill="#020102" d="
  M 368.32 124.87
  C 365.58 124.52 360.35 122.47 362.13 118.66
  C 363.15 116.49 365.60 115.83 367.74 115.98
  Q 368.82 116.05 369.77 116.59
  Q 372.63 118.25 372.42 119.64
  Q 372.17 121.24 370.68 120.60
  Q 369.32 120.01 368.08 119.11
  C 367.35 118.57 366.27 118.73 365.69 119.41
  A 1.03 1.03 0.0 0 0 366.32 121.10
  C 377.78 122.76 372.40 132.64 363.83 128.97
  A 2.81 2.67 -9.6 0 1 362.97 128.39
  Q 361.77 127.20 361.92 126.09
  Q 362.16 124.39 363.67 125.22
  L 366.75 126.91
  A 1.45 1.44 -39.8 0 0 367.92 127.01
  Q 369.07 126.64 369.02 125.63
  Q 368.99 124.95 368.32 124.87
  Z"
/>
<path fill="#020102" d="
  M 386.8445 124.2255
  A 5.52 5.52 0.0 0 1 381.2196 129.6385
  L 380.1997 129.6190
  A 5.52 5.52 0.0 0 1 374.7867 123.9940
  L 374.8355 121.4545
  A 5.52 5.52 0.0 0 1 380.4604 116.0415
  L 381.4803 116.0610
  A 5.52 5.52 0.0 0 1 386.8933 121.6860
  L 386.8445 124.2255
  Z
  M 380.8229 126.6299
  A 3.77 2.57 89.5 0 0 383.3599 122.8376
  A 3.77 2.57 89.5 0 0 380.7571 119.0901
  A 3.77 2.57 89.5 0 0 378.2201 122.8824
  A 3.77 2.57 89.5 0 0 380.8229 126.6299
  Z"
/>
<path fill="#020102" d="
  M 498.5923 124.1395
  A 5.52 5.52 0.0 0 1 493.0819 129.6691
  L 492.0819 129.6709
  A 5.52 5.52 0.0 0 1 486.5523 124.1605
  L 486.5477 121.5605
  A 5.52 5.52 0.0 0 1 492.0581 116.0309
  L 493.0581 116.0291
  A 5.52 5.52 0.0 0 1 498.5877 121.5395
  L 498.5923 124.1395
  Z
  M 492.6222 126.6093
  A 3.76 2.60 88.9 0 0 495.1495 122.8001
  A 3.76 2.60 88.9 0 0 492.4778 119.0907
  A 3.76 2.60 88.9 0 0 489.9505 122.8999
  A 3.76 2.60 88.9 0 0 492.6222 126.6093
  Z"
/>
<path fill="#020102" d="
  M 517.90 120.46
  C 517.36 119.12 515.84 118.91 514.66 119.52
  Q 512.92 120.42 511.00 120.16
  A 1.03 1.03 0.0 0 1 510.37 118.45
  Q 513.94 114.56 518.99 116.70
  C 520.60 117.38 521.48 119.00 521.50 120.69
  Q 521.55 124.82 521.50 128.55
  A 1.04 1.03 7.0 0 1 520.23 129.54
  Q 517.77 128.95 515.25 129.53
  C 513.23 129.99 510.68 129.35 510.05 127.17
  C 508.63 122.32 513.77 121.40 517.25 121.41
  A 0.70 0.69 -10.8 0 0 517.90 120.46
  Z
  M 517.8950 124.6701
  A 2.32 1.56 -17.3 0 0 515.2161 123.8706
  A 2.32 1.56 -17.3 0 0 513.4650 126.0499
  A 2.32 1.56 -17.3 0 0 516.1439 126.8494
  A 2.32 1.56 -17.3 0 0 517.8950 124.6701
  Z"
/>
<path fill="#020102" d="
  M 563.10 129.59
  Q 557.39 130.38 555.98 125.01
  C 553.17 114.29 567.36 113.65 567.50 120.21
  Q 567.51 120.96 566.79 121.19
  Q 564.85 121.79 563.69 120.10
  Q 563.38 119.65 562.88 119.41
  C 561.46 118.71 559.77 119.48 559.54 121.09
  Q 559.23 123.29 559.79 125.34
  Q 559.91 125.79 560.31 126.05
  C 563.42 128.10 564.17 123.01 567.18 124.86
  A 0.81 0.81 0.0 0 1 567.56 125.70
  Q 566.91 129.06 563.10 129.59
  Z"
/>
<path fill="#020102" d="
  M 573.51 121.24
  L 573.51 127.90
  Q 573.51 129.81 571.60 129.73
  L 571.29 129.72
  Q 569.92 129.66 569.92 128.29
  L 569.86 117.03
  A 1.04 1.04 0.0 0 1 571.22 116.04
  L 572.80 116.55
  Q 573.61 116.82 574.39 116.51
  C 577.72 115.20 581.12 116.31 581.26 120.40
  Q 581.40 124.06 581.45 127.99
  Q 581.47 129.40 580.06 129.52
  L 579.11 129.60
  A 1.27 1.26 -3.0 0 1 577.73 128.36
  L 577.64 121.16
  Q 577.61 119.23 575.68 119.20
  Q 575.33 119.19 574.99 119.29
  Q 573.51 119.70 573.51 121.24
  Z"
/>
<rect fill="#020102" x="-1.89" y="-6.70" transform="translate(585.85,122.78) rotate(0.1)" width="3.78" height="13.40" rx="1.20"/>
<path fill="#020102" d="
  M 594.29 125.25
  A 2.02 2.01 -28.5 0 0 597.31 126.14
  L 599.52 124.62
  A 1.43 1.42 69.3 0 1 601.75 125.63
  C 602.40 131.26 588.28 132.16 590.33 121.08
  Q 591.32 115.74 596.97 115.99
  C 598.94 116.07 601.40 117.40 601.89 119.57
  A 1.52 1.52 0.0 0 1 599.61 121.20
  Q 598.46 120.49 597.46 119.64
  A 2.04 2.04 0.0 0 0 594.18 120.63
  Q 593.45 123.19 594.29 125.25
  Z"
/>
<path fill="#020102" d="
  M 611.21 121.35
  A 0.69 0.69 0.0 0 0 611.65 120.24
  L 611.40 119.93
  Q 610.61 118.95 609.41 119.30
  Q 607.97 119.71 606.43 120.23
  Q 605.30 120.61 604.56 119.93
  A 1.38 1.38 0.0 0 1 604.65 117.83
  Q 608.84 114.56 613.22 116.94
  C 614.42 117.59 615.23 118.88 615.31 120.27
  Q 615.55 124.54 615.29 128.74
  A 1.07 1.07 0.0 0 1 613.79 129.65
  Q 611.97 128.84 609.98 129.39
  C 607.39 130.12 604.34 129.72 603.69 126.64
  Q 603.31 124.84 604.38 123.49
  C 606.06 121.35 608.79 121.68 611.21 121.35
  Z
  M 611.7404 124.6400
  A 2.29 1.54 -17.8 0 0 609.0892 123.8737
  A 2.29 1.54 -17.8 0 0 607.3796 126.0400
  A 2.29 1.54 -17.8 0 0 610.0308 126.8063
  A 2.29 1.54 -17.8 0 0 611.7404 124.6400
  Z"
/>
<path fill="#020102" d="
  M 628.87 119.36
  L 630.41 117.19
  A 2.35 2.34 16.8 0 1 632.23 116.22
  L 633.74 116.18
  Q 635.20 116.15 634.39 117.36
  L 631.13 122.20
  A 1.23 1.23 0.0 0 0 631.14 123.59
  L 634.22 128.03
  Q 635.23 129.49 633.46 129.60
  L 632.94 129.63
  Q 631.48 129.73 630.64 128.52
  L 629.23 126.52
  A 0.75 0.74 -53.8 0 0 627.91 126.73
  Q 626.98 129.69 623.96 129.62
  A 1.08 1.08 0.0 0 1 623.10 127.92
  L 626.04 123.63
  A 1.37 1.36 -44.8 0 0 626.05 122.09
  L 622.84 117.38
  A 0.78 0.78 0.0 0 1 623.34 116.17
  Q 626.51 115.60 627.76 119.20
  A 0.63 0.63 0.0 0 0 628.87 119.36
  Z"
/>
<path fill="#020102" d="
  M 399.55 126.48
  L 398.29 128.59
  A 2.37 2.36 22.1 0 1 395.70 129.68
  L 395.25 129.57
  Q 393.60 129.17 394.58 127.79
  L 397.58 123.53
  A 1.15 1.15 0.0 0 0 397.59 122.22
  L 394.32 117.53
  Q 393.47 116.30 394.96 116.23
  L 395.96 116.18
  A 2.44 2.42 72.3 0 1 398.13 117.31
  L 399.49 119.46
  Q 399.96 120.20 400.39 119.44
  L 401.37 117.72
  A 3.01 3.00 -83.7 0 1 403.10 116.33
  Q 404.12 116.02 405.16 116.18
  Q 406.47 116.37 405.73 117.46
  L 402.55 122.17
  A 1.26 1.25 44.8 0 0 402.56 123.59
  L 405.47 127.82
  Q 406.26 128.97 404.96 129.49
  Q 404.73 129.59 404.47 129.59
  A 3.17 3.00 71.1 0 1 401.82 128.20
  Q 401.21 127.30 400.58 126.43
  Q 400.03 125.67 399.55 126.48
  Z"
/>
<path fill="#ffffff" d="
  M 270.94 121.44
  Q 269.31 121.86 267.43 121.49
  Q 266.45 121.30 266.96 120.44
  Q 267.64 119.29 268.84 119.12
  Q 269.58 119.02 270.25 119.37
  Q 270.93 119.72 271.35 120.30
  Q 271.99 121.18 270.94 121.44
  Z"
/>
<ellipse fill="#ffffff" cx="0.00" cy="0.00" transform="translate(313.31,122.83) rotate(89.6)" rx="3.77" ry="2.61"/>
<ellipse fill="#ffffff" cx="0.00" cy="0.00" transform="translate(212.26,122.85) rotate(90.1)" rx="3.76" ry="2.61"/>
<rect fill="#ffffff" x="-2.24" y="-3.65" transform="translate(254.74,122.86) rotate(1.1)" width="4.48" height="7.30" rx="2.09"/>
<path fill="#ffffff" d="
  M 339.29 121.55
  A 0.40 0.40 0.0 0 1 338.90 121.15
  L 338.90 121.04
  A 2.11 1.85 1.1 0 1 341.04 119.23
  L 341.46 119.23
  A 2.11 1.85 1.1 0 1 343.54 121.12
  L 343.53 121.23
  A 0.40 0.40 0.0 0 1 343.13 121.63
  L 339.29 121.55
  Z"
/>
<ellipse fill="#ffffff" cx="0.00" cy="0.00" transform="translate(380.79,122.86) rotate(89.5)" rx="3.77" ry="2.57"/>
<ellipse fill="#ffffff" cx="0.00" cy="0.00" transform="translate(492.55,122.85) rotate(88.9)" rx="3.76" ry="2.60"/>
<path fill="#ffffff" d="
  M 545.92 121.65
  A 0.27 0.27 0.0 0 1 545.64 121.39
  L 545.64 121.23
  A 2.13 1.93 -2.0 0 1 547.70 119.23
  L 548.00 119.22
  A 2.13 1.93 -2.0 0 1 550.19 121.07
  L 550.20 121.23
  A 0.27 0.27 0.0 0 1 549.94 121.51
  L 545.92 121.65
  Z"
/>
<rect fill="#ffffff" x="-2.28" y="-2.59" transform="translate(647.74,123.79) rotate(-2.5)" width="4.56" height="5.18" rx="1.89"/>
<ellipse fill="#ffffff" cx="0.00" cy="0.00" transform="translate(235.40,125.34) rotate(-16.8)" rx="2.33" ry="1.59"/>
<ellipse fill="#ffffff" cx="0.00" cy="0.00" transform="translate(515.68,125.36) rotate(-17.3)" rx="2.32" ry="1.56"/>
<ellipse fill="#ffffff" cx="0.00" cy="0.00" transform="translate(609.56,125.34) rotate(-17.8)" rx="2.29" ry="1.54"/>
<path fill="#020102" d="
  M 431.9267 155.6493
  A 5.50 5.50 0.0 0 1 426.4363 161.1589
  L 425.1563 161.1611
  A 5.50 5.50 0.0 0 1 419.6467 155.6707
  L 419.6333 148.0307
  A 5.50 5.50 0.0 0 1 425.1237 142.5211
  L 426.4037 142.5189
  A 5.50 5.50 0.0 0 1 431.9133 148.0093
  L 431.9267 155.6493
  Z
  M 428.2368 148.0414
  A 2.33 2.33 0.0 0 0 425.8986 145.7195
  L 425.5986 145.7206
  A 2.33 2.33 0.0 0 0 423.2768 148.0587
  L 423.3032 155.6386
  A 2.33 2.33 0.0 0 0 425.6414 157.9605
  L 425.9414 157.9594
  A 2.33 2.33 0.0 0 0 428.2632 155.6213
  L 428.2368 148.0414
  Z"
/>
<path fill="#020102" d="
  M 412.75 146.36
  L 410.96 146.51
  A 0.82 0.82 0.0 0 1 410.07 145.71
  C 410.02 142.80 414.27 142.53 416.30 142.76
  A 0.91 0.90 -86.8 0 1 417.10 143.66
  L 417.03 160.02
  A 0.81 0.81 0.0 0 1 416.23 160.82
  L 414.25 160.84
  A 0.84 0.84 0.0 0 1 413.41 160.00
  L 413.45 147.00
  Q 413.45 146.30 412.75 146.36
  Z"
/>
<rect fill="#ffffff" x="-2.48" y="-6.12" transform="translate(425.77,151.84) rotate(-0.2)" width="4.96" height="12.24" rx="2.33"/>
</svg>
